Amstelvar-Roman-GRAD500.ufo
<glyph name="quotesingle" format="2">
	<unicode hex="0027"/>
	<advance width="584"/>
	<outline>
		<contour>
			<point x="251" y="910" type="line"/>
			<point x="137" y="1393" type="line"/>
			<point x="137" y="1452"/>
			<point x="212" y="1558"/>
			<point x="292" y="1558" type="qcurve" smooth="yes"/>
			<point x="372" y="1558"/>
			<point x="448" y="1452"/>
			<point x="448" y="1393" type="qcurve"/>
			<point x="332" y="910" type="line"/>
		</contour>
	</outline>
</glyph>
<glyph name="parenright" format="2">
	<unicode hex="0029"/>
	<advance width="598"/>
	<outline>
		<contour>
			<point x="563" y="665" type="qcurve" smooth="yes"/>
			<point x="563" y="397"/>
			<point x="268" y="-75"/>
			<point x="86" y="-194" type="qcurve"/>
			<point x="10" y="-123" type="line"/>
			<point x="114" y="4"/>
			<point x="266" y="428"/>
			<point x="266" y="666" type="qcurve" smooth="yes"/>
			<point x="266" y="903"/>
			<point x="111" y="1331"/>
			<point x="10" y="1457" type="qcurve"/>
			<point x="88" y="1526" type="line"/>
			<point x="268" y="1410"/>
			<point x="563" y="924"/>
		</contour>
	</outline>
</glyph>
<glyph name="two" format="2">
	<unicode hex="0032"/>
	<advance width="966"/>
	<outline>
		<contour>
			<point x="11" y="0" type="line"/>
			<point x="11" y="135" type="line"/>
			<point x="30" y="261"/>
			<point x="231" y="503"/>
			<point x="374" y="648" type="qcurve" smooth="yes"/>
			<point x="508" y="784"/>
			<point x="642" y="981"/>
			<point x="642" y="1112" type="qcurve" smooth="yes"/>
			<point x="642" y="1228"/>
			<point x="520" y="1332"/>
			<point x="433" y="1332" type="qcurve" smooth="yes"/>
			<point x="338" y="1332"/>
			<point x="188" y="1234"/>
			<point x="124" y="1155" type="qcurve"/>
			<point x="4" y="1286" type="line"/>
			<point x="81" y="1385"/>
			<point x="334" y="1522"/>
			<point x="506" y="1522" type="qcurve" smooth="yes"/>
			<point x="691" y="1522"/>
			<point x="947" y="1334"/>
			<point x="947" y="1131" type="qcurve" smooth="yes"/>
			<point x="947" y="937"/>
			<point x="714" y="667"/>
			<point x="572" y="565" type="qcurve" smooth="yes"/>
			<point x="422" y="458"/>
			<point x="233" y="308"/>
			<point x="204" y="233" type="qcurve"/>
			<point x="211" y="220" type="line"/>
			<point x="968" y="220" type="line"/>
			<point x="968" y="0" type="line"/>
		</contour>
	</outline>
</glyph>
<glyph name="five" format="2">
	<unicode hex="0035"/>
	<advance width="1016"/>
	<outline>
		<contour>
			<point x="-6" y="135" type="qcurve"/>
			<point x="82" y="285" type="line"/>
			<point x="136" y="234"/>
			<point x="300" y="149"/>
			<point x="396" y="149" type="qcurve" smooth="yes"/>
			<point x="514" y="149"/>
			<point x="681" y="282"/>
			<point x="681" y="451" type="qcurve" smooth="yes"/>
			<point x="681" y="611"/>
			<point x="433" y="764"/>
			<point x="237" y="760" type="qcurve" smooth="yes"/>
			<point x="141" y="758" type="line"/>
			<point x="78" y="838" type="line"/>
			<point x="151" y="1467" type="line"/>
			<point x="178" y="1500" type="line"/>
			<point x="905" y="1500" type="line"/>
			<point x="892" y="1270" type="line"/>
			<point x="293" y="1270" type="line"/>
			<point x="281" y="1256" type="line"/>
			<point x="237" y="905" type="line"/>
			<point x="367" y="951" type="line"/>
			<point x="658" y="965"/>
			<point x="989" y="740"/>
			<point x="989" y="501" type="qcurve" smooth="yes"/>
			<point x="989" y="252"/>
			<point x="697" y="-23"/>
			<point x="464" y="-23" type="qcurve" smooth="yes"/>
			<point x="304" y="-23"/>
			<point x="56" y="69"/>
		</contour>
	</outline>
</glyph>
<glyph name="six" format="2">
	<unicode hex="0036"/>
	<advance width="1176"/>
	<outline>
		<contour>
			<point x="51" y="635" type="qcurve" smooth="yes"/>
			<point x="51" y="988"/>
			<point x="535" y="1517"/>
			<point x="945" y="1585" type="qcurve"/>
			<point x="994" y="1457" type="line"/>
			<point x="715" y="1377"/>
			<point x="347" y="986"/>
			<point x="347" y="627" type="qcurve" smooth="yes"/>
			<point x="347" y="345"/>
			<point x="492" y="97"/>
			<point x="614" y="97" type="qcurve" smooth="yes"/>
			<point x="736" y="97"/>
			<point x="856" y="282"/>
			<point x="856" y="459" type="qcurve" smooth="yes"/>
			<point x="856" y="640"/>
			<point x="738" y="788"/>
			<point x="646" y="788" type="qcurve" smooth="yes"/>
			<point x="592" y="788"/>
			<point x="531" y="771"/>
			<point x="506" y="761" type="qcurve"/>
			<point x="461" y="859" type="line"/>
			<point x="492" y="889"/>
			<point x="633" y="938"/>
			<point x="728" y="938" type="qcurve" smooth="yes"/>
			<point x="918" y="938"/>
			<point x="1153" y="701"/>
			<point x="1153" y="513" type="qcurve" smooth="yes"/>
			<point x="1153" y="260"/>
			<point x="868" y="-23"/>
			<point x="631" y="-23" type="qcurve" smooth="yes"/>
			<point x="385" y="-23"/>
			<point x="51" y="328"/>
		</contour>
	</outline>
</glyph>
<glyph name="eight" format="2">
	<unicode hex="0038"/>
	<advance width="1066"/>
	<outline>
		<contour>
			<point x="16" y="388" type="qcurve" smooth="yes"/>
			<point x="16" y="575"/>
			<point x="268" y="802"/>
			<point x="404" y="861" type="qcurve"/>
			<point x="504" y="784" type="line"/>
			<point x="403" y="728"/>
			<point x="258" y="542"/>
			<point x="258" y="390" type="qcurve" smooth="yes"/>
			<point x="258" y="257"/>
			<point x="403" y="92"/>
			<point x="533" y="92" type="qcurve" smooth="yes"/>
			<point x="643" y="92"/>
			<point x="787" y="241"/>
			<point x="787" y="373" type="qcurve" smooth="yes"/>
			<point x="787" y="485"/>
			<point x="653" y="623"/>
			<point x="478" y="707" type="qcurve" smooth="yes"/>
			<point x="272" y="804"/>
			<point x="109" y="999"/>
			<point x="111" y="1157" type="qcurve" smooth="yes"/>
			<point x="112" y="1323"/>
			<point x="368" y="1531"/>
			<point x="550" y="1531" type="qcurve" smooth="yes"/>
			<point x="735" y="1531"/>
			<point x="951" y="1352"/>
			<point x="951" y="1214" type="qcurve" smooth="yes"/>
			<point x="951" y="1082"/>
			<point x="793" y="878"/>
			<point x="659" y="796" type="qcurve"/>
			<point x="540" y="864" type="line"/>
			<point x="632" y="930"/>
			<point x="733" y="1085"/>
			<point x="733" y="1195" type="qcurve" smooth="yes"/>
			<point x="733" y="1286"/>
			<point x="633" y="1390"/>
			<point x="549" y="1390" type="qcurve" smooth="yes"/>
			<point x="466" y="1390"/>
			<point x="343" y="1291"/>
			<point x="343" y="1199" type="qcurve" smooth="yes"/>
			<point x="343" y="1105"/>
			<point x="461" y="981"/>
			<point x="652" y="897" type="qcurve"/>
			<point x="843" y="812"/>
			<point x="1056" y="599"/>
			<point x="1056" y="421" type="qcurve" smooth="yes"/>
			<point x="1056" y="232"/>
			<point x="775" y="-23"/>
			<point x="534" y="-23" type="qcurve" smooth="yes"/>
			<point x="282" y="-23"/>
			<point x="16" y="220"/>
		</contour>
	</outline>
</glyph>
<glyph name="less" format="2">
	<unicode hex="003C"/>
	<advance width="1024"/>
	<outline>
		<contour>
			<point x="115" y="634" type="qcurve"/>
			<point x="117" y="637"/>
			<point x="636" y="1056"/>
			<point x="705" y="1112" type="qcurve" smooth="yes"/>
			<point x="780" y="1172"/>
			<point x="893" y="1054"/>
			<point x="829" y="988" type="qcurve" smooth="yes"/>
			<point x="702" y="857"/>
			<point x="450" y="637"/>
			<point x="448" y="637" type="qcurve"/>
			<point x="450" y="637"/>
			<point x="709" y="420"/>
			<point x="830" y="296" type="qcurve" smooth="yes"/>
			<point x="894" y="230"/>
			<point x="780" y="112"/>
			<point x="711" y="169" type="qcurve" smooth="yes"/>
			<point x="642" y="226"/>
			<point x="116" y="631"/>
		</contour>
	</outline>
</glyph>
<glyph name="greater" format="2">
	<unicode hex="003E"/>
	<advance width="1024"/>
	<outline>
		<contour>
			<point x="194" y="289" type="qcurve" smooth="yes"/>
			<point x="317" y="416"/>
			<point x="574" y="637"/>
			<point x="577" y="637" type="qcurve"/>
			<point x="574" y="637"/>
			<point x="321" y="853"/>
			<point x="196" y="980" type="qcurve" smooth="yes"/>
			<point x="131" y="1047"/>
			<point x="243" y="1167"/>
			<point x="318" y="1105" type="qcurve" smooth="yes"/>
			<point x="388" y="1048"/>
			<point x="908" y="641"/>
			<point x="910" y="638" type="qcurve"/>
			<point x="908" y="635"/>
			<point x="384" y="218"/>
			<point x="315" y="162" type="qcurve" smooth="yes"/>
			<point x="245" y="107"/>
			<point x="130" y="222"/>
		</contour>
	</outline>
</glyph>
<glyph name="A" format="2">
  <advance width="1506"/>
  <unicode hex="0041"/>
  <anchor x="753.0" y="0" name="bottom"/>
  <anchor x="1078" y="0" name="ogonek"/>
  <anchor x="753.0" y="1500" name="top"/>
  <outline>
    <contour>
      <point x="-25" y="0" type="line"/>
      <point x="-25" y="120" type="line"/>
      <point x="143" y="155" type="line"/>
      <point x="295" y="540" type="line"/>
      <point x="659" y="1508" type="line"/>
      <point x="831" y="1508" type="line"/>
      <point x="1186" y="599" type="line"/>
      <point x="1363" y="155" type="line"/>
      <point x="1531" y="120" type="line"/>
      <point x="1531" y="0" type="line"/>
      <point x="927" y="0" type="line"/>
      <point x="927" y="120" type="line"/>
      <point x="1077" y="151" type="line"/>
      <point x="948" y="498" type="line"/>
      <point x="701" y="1123" type="line"/>
      <point x="478" y="503" type="line"/>
      <point x="354" y="150" type="line"/>
      <point x="521" y="120" type="line"/>
      <point x="521" y="0" type="line"/>
    </contour>
    <contour>
      <point x="741" y="592" type="line"/>
      <point x="1105" y="608" type="line"/>
      <point x="1136" y="418" type="line"/>
      <point x="741" y="418" type="line"/>
    </contour>
    <contour>
      <point x="348" y="418" type="line"/>
      <point x="390" y="607" type="line"/>
      <point x="741" y="592" type="line"/>
      <point x="741" y="418" type="line"/>
    </contour>
  </outline>
</glyph>
<glyph name="B" format="2">
  <advance width="1259"/>
  <unicode hex="0042"/>
  <anchor x="629.5" y="0" name="bottom"/>
  <anchor x="629.5" y="1500" name="top"/>
  <outline>
    <contour>
      <point x="82" y="0" type="line"/>
      <point x="82" y="120" type="line"/>
      <point x="237" y="156" type="line"/>
      <point x="239" y="784" type="line"/>
      <point x="237" y="1332" type="line"/>
      <point x="82" y="1366" type="line"/>
      <point x="82" y="1500" type="line"/>
      <point x="725" y="1500" type="line" smooth="yes"/>
      <point x="937" y="1500"/>
      <point x="1141" y="1315"/>
      <point x="1141" y="1172" type="qcurve" smooth="yes"/>
      <point x="1141" y="1037"/>
      <point x="1014" y="854"/>
      <point x="902" y="830" type="qcurve"/>
      <point x="902" y="823" type="line"/>
      <point x="1039" y="794"/>
      <point x="1233" y="604"/>
      <point x="1233" y="433" type="qcurve" smooth="yes"/>
      <point x="1233" y="246"/>
      <point x="972" y="0"/>
      <point x="741" y="0" type="qcurve" smooth="yes"/>
    </contour>
    <contour>
      <point x="521" y="155" type="line"/>
      <point x="554" y="135" type="line"/>
      <point x="625" y="135" type="line" smooth="yes"/>
      <point x="771" y="135"/>
      <point x="947" y="271"/>
      <point x="947" y="440" type="qcurve" smooth="yes"/>
      <point x="947" y="584"/>
      <point x="794" y="718"/>
      <point x="691" y="718" type="qcurve" smooth="yes"/>
      <point x="530" y="718" type="line"/>
      <point x="521" y="704" type="line"/>
    </contour>
    <contour>
      <point x="520" y="886" type="line"/>
      <point x="529" y="872" type="line"/>
      <point x="574" y="872" type="line" smooth="yes"/>
      <point x="696" y="872"/>
      <point x="841" y="991"/>
      <point x="841" y="1129" type="qcurve" smooth="yes"/>
      <point x="841" y="1255"/>
      <point x="700" y="1350"/>
      <point x="584" y="1350" type="qcurve" smooth="yes"/>
      <point x="552" y="1350" type="line"/>
      <point x="523" y="1332" type="line"/>
    </contour>
  </outline>
</glyph>
<glyph name="H" format="2">
  <advance width="1740"/>
  <unicode hex="0048"/>
  <anchor x="870.0" y="0" name="bottom"/>
  <anchor x="870.0" y="1079.0" name="center"/>
  <anchor x="870.0" y="1500" name="top"/>
  <outline>
    <contour>
      <point x="82" y="0" type="line"/>
      <point x="82" y="120" type="line"/>
      <point x="236" y="155" type="line"/>
      <point x="239" y="754" type="line"/>
      <point x="236" y="1332" type="line"/>
      <point x="82" y="1366" type="line"/>
      <point x="82" y="1500" type="line"/>
      <point x="678" y="1500" type="line"/>
      <point x="678" y="1366" type="line"/>
      <point x="524" y="1332" type="line"/>
      <point x="521" y="754" type="line"/>
      <point x="524" y="155" type="line"/>
      <point x="678" y="120" type="line"/>
      <point x="678" y="0" type="line"/>
    </contour>
    <contour>
      <point x="380" y="706" type="line"/>
      <point x="380" y="858" type="line"/>
      <point x="870" y="850" type="line"/>
      <point x="1358" y="858" type="line"/>
      <point x="1358" y="706" type="line"/>
      <point x="870" y="706" type="line"/>
    </contour>
    <contour>
      <point x="1062" y="0" type="line"/>
      <point x="1062" y="120" type="line"/>
      <point x="1216" y="155" type="line"/>
      <point x="1219" y="754" type="line"/>
      <point x="1216" y="1332" type="line"/>
      <point x="1062" y="1366" type="line"/>
      <point x="1062" y="1500" type="line"/>
      <point x="1658" y="1500" type="line"/>
      <point x="1658" y="1366" type="line"/>
      <point x="1504" y="1332" type="line"/>
      <point x="1501" y="754" type="line"/>
      <point x="1504" y="155" type="line"/>
      <point x="1658" y="120" type="line"/>
      <point x="1658" y="0" type="line"/>
    </contour>
  </outline>
</glyph>
<glyph name="I" format="2">
  <advance width="780"/>
  <unicode hex="0049"/>
  <anchor x="390.0" y="0" name="bottom"/>
  <anchor x="236" y="0" name="ogonek"/>
  <anchor x="390.0" y="1500" name="top"/>
  <outline>
    <contour>
      <point x="82" y="0" type="line"/>
      <point x="82" y="120" type="line"/>
      <point x="245" y="155" type="line"/>
      <point x="247" y="754" type="line"/>
      <point x="245" y="1332" type="line"/>
      <point x="82" y="1366" type="line"/>
      <point x="82" y="1500" type="line"/>
      <point x="698" y="1500" type="line"/>
      <point x="698" y="1366" type="line"/>
      <point x="535" y="1332" type="line"/>
      <point x="533" y="754" type="line"/>
      <point x="535" y="156" type="line"/>
      <point x="698" y="120" type="line"/>
      <point x="698" y="0" type="line"/>
    </contour>
  </outline>
</glyph>
<glyph name="K" format="2">
  <advance width="1440"/>
  <unicode hex="004B"/>
  <anchor x="812.0" y="0" name="bottom"/>
  <anchor x="770.0" y="1500" name="top"/>
  <outline>
    <contour>
      <point x="82" y="0" type="line"/>
      <point x="82" y="120" type="line"/>
      <point x="240" y="155" type="line"/>
      <point x="242" y="754" type="line"/>
      <point x="240" y="1332" type="line"/>
      <point x="82" y="1366" type="line"/>
      <point x="82" y="1500" type="line"/>
      <point x="668" y="1500" type="line"/>
      <point x="668" y="1366" type="line"/>
      <point x="520" y="1332" type="line"/>
      <point x="518" y="754" type="line"/>
      <point x="520" y="155" type="line"/>
      <point x="678" y="120" type="line"/>
      <point x="678" y="0" type="line"/>
    </contour>
    <contour>
      <point x="380" y="431" type="line"/>
      <point x="380" y="663" type="line"/>
      <point x="991" y="1318" type="line"/>
      <point x="864" y="1366" type="line"/>
      <point x="864" y="1500" type="line"/>
      <point x="1420" y="1500" type="line"/>
      <point x="1420" y="1366" type="line"/>
      <point x="1222" y="1318" type="line"/>
      <point x="758" y="833" type="line"/>
      <point x="722" y="795" type="line"/>
    </contour>
    <contour>
      <point x="586" y="762" type="line"/>
      <point x="773" y="952" type="line"/>
      <point x="1369" y="155" type="line"/>
      <point x="1496" y="120" type="line"/>
      <point x="1496" y="0" type="line"/>
      <point x="903" y="0" type="line"/>
      <point x="903" y="120" type="line"/>
      <point x="1021" y="155" type="line"/>
    </contour>
  </outline>
</glyph>
<glyph name="L" format="2">
  <advance width="1264"/>
  <unicode hex="004C"/>
  <anchor x="705.0" y="0" name="bottom"/>
  <anchor x="928.0" y="750.0" name="center"/>
  <anchor x="632.0" y="1500" name="top"/>
  <anchor x="784" y="1001" name="topright"/>
  <outline>
    <contour>
      <point x="82" y="0" type="line"/>
      <point x="82" y="120" type="line"/>
      <point x="240" y="152" type="line"/>
      <point x="242" y="754" type="line"/>
      <point x="240" y="1332" type="line"/>
      <point x="82" y="1366" type="line"/>
      <point x="82" y="1500" type="line"/>
      <point x="701" y="1500" type="line"/>
      <point x="701" y="1366" type="line"/>
      <point x="520" y="1332" type="line"/>
      <point x="518" y="754" type="line"/>
      <point x="520" y="155" type="line"/>
      <point x="560" y="128" type="line"/>
      <point x="1046" y="128" type="line"/>
      <point x="1132" y="418" type="line"/>
      <point x="1284" y="418" type="line"/>
      <point x="1233" y="0" type="line"/>
    </contour>
  </outline>
</glyph>
<glyph name="N" format="2">
  <advance width="1600"/>
  <unicode hex="004E"/>
  <anchor x="800.0" y="0" name="bottom"/>
  <anchor x="800.0" y="1500" name="top"/>
  <outline>
    <contour>
      <point x="82" y="0" type="line"/>
      <point x="82" y="120" type="line"/>
      <point x="260" y="155" type="line"/>
      <point x="262" y="754" type="line"/>
      <point x="260" y="1332" type="line"/>
      <point x="82" y="1366" type="line"/>
      <point x="82" y="1500" type="line"/>
      <point x="558" y="1500" type="line"/>
      <point x="924" y="857" type="line"/>
      <point x="1172" y="454" type="line"/>
      <point x="1172" y="754" type="line"/>
      <point x="1170" y="1332" type="line"/>
      <point x="982" y="1366" type="line"/>
      <point x="982" y="1500" type="line"/>
      <point x="1538" y="1500" type="line"/>
      <point x="1538" y="1366" type="line"/>
      <point x="1350" y="1332" type="line"/>
      <point x="1348" y="754" type="line"/>
      <point x="1344" y="0" type="line"/>
      <point x="1132" y="0" type="line"/>
      <point x="707" y="721" type="line"/>
      <point x="441" y="1173" type="line"/>
      <point x="441" y="754" type="line"/>
      <point x="443" y="155" type="line"/>
      <point x="628" y="120" type="line"/>
      <point x="628" y="0" type="line"/>
    </contour>
  </outline>
</glyph>
<glyph name="O" format="2">
  <advance width="1664"/>
  <unicode hex="004F"/>
  <anchor x="832.0" y="0" name="bottom"/>
  <anchor x="832.0" y="750.0" name="center"/>
  <anchor x="1064" y="0" name="ogonek"/>
  <anchor x="832.0" y="1500" name="top"/>
  <anchor x="1028" y="1500" name="topright"/>
  <outline>
    <contour>
      <point x="60" y="737" type="qcurve" smooth="yes"/>
      <point x="60" y="1068"/>
      <point x="495" y="1530"/>
      <point x="832" y="1530" type="qcurve" smooth="yes"/>
      <point x="1169" y="1530"/>
      <point x="1584" y="1097"/>
      <point x="1584" y="752" type="qcurve" smooth="yes"/>
      <point x="1584" y="423"/>
      <point x="1173" y="-41"/>
      <point x="836" y="-41" type="qcurve" smooth="yes"/>
      <point x="507" y="-41"/>
      <point x="60" y="396"/>
    </contour>
    <contour>
      <point x="362" y="768" type="qcurve" smooth="yes"/>
      <point x="362" y="499"/>
      <point x="623" y="142"/>
      <point x="832" y="142" type="qcurve" smooth="yes"/>
      <point x="1060" y="142"/>
      <point x="1282" y="460"/>
      <point x="1282" y="745" type="qcurve" smooth="yes"/>
      <point x="1282" y="998"/>
      <point x="1043" y="1339"/>
      <point x="832" y="1339" type="qcurve" smooth="yes"/>
      <point x="604" y="1339"/>
      <point x="362" y="1028"/>
    </contour>
  </outline>
</glyph>
<glyph name="P" format="2">
  <advance width="1268"/>
  <unicode hex="0050"/>
  <anchor x="634.0" y="0" name="bottom"/>
  <anchor x="634.0" y="1500" name="top"/>
  <outline>
    <contour>
      <point x="82" y="0" type="line"/>
      <point x="82" y="120" type="line"/>
      <point x="240" y="157" type="line"/>
      <point x="242" y="754" type="line"/>
      <point x="240" y="1332" type="line"/>
      <point x="82" y="1366" type="line"/>
      <point x="82" y="1500" type="line"/>
      <point x="729" y="1500" type="line" smooth="yes"/>
      <point x="978" y="1500"/>
      <point x="1238" y="1284"/>
      <point x="1238" y="1072" type="qcurve" smooth="yes"/>
      <point x="1238" y="866"/>
      <point x="963" y="579"/>
      <point x="713" y="579" type="qcurve" smooth="yes"/>
      <point x="604" y="579"/>
      <point x="435" y="600"/>
      <point x="388" y="608" type="qcurve"/>
      <point x="397" y="754" type="line"/>
      <point x="456" y="741"/>
      <point x="571" y="732"/>
      <point x="649" y="732" type="qcurve" smooth="yes"/>
      <point x="786" y="732"/>
      <point x="943" y="910"/>
      <point x="943" y="1072" type="qcurve" smooth="yes"/>
      <point x="943" y="1227"/>
      <point x="773" y="1342"/>
      <point x="663" y="1342" type="qcurve" smooth="yes"/>
      <point x="555" y="1342" type="line"/>
      <point x="521" y="1320" type="line"/>
      <point x="518" y="764" type="line"/>
      <point x="520" y="152" type="line"/>
      <point x="698" y="120" type="line"/>
      <point x="698" y="0" type="line"/>
    </contour>
  </outline>
</glyph>
<glyph name="R" format="2">
  <advance width="1350"/>
  <unicode hex="0052"/>
  <anchor x="803.0" y="0" name="bottom"/>
  <anchor x="630.0" y="1500" name="top"/>
  <outline>
    <contour>
      <point x="82" y="0" type="line"/>
      <point x="82" y="120" type="line"/>
      <point x="240" y="156" type="line"/>
      <point x="242" y="794" type="line"/>
      <point x="240" y="1332" type="line"/>
      <point x="82" y="1366" type="line"/>
      <point x="82" y="1500" type="line"/>
      <point x="725" y="1500" type="line" smooth="yes"/>
      <point x="937" y="1500"/>
      <point x="1171" y="1324"/>
      <point x="1171" y="1149" type="qcurve" smooth="yes"/>
      <point x="1171" y="956"/>
      <point x="911" y="716"/>
      <point x="723" y="716" type="qcurve" smooth="yes"/>
      <point x="655" y="716"/>
      <point x="437" y="725"/>
      <point x="380" y="730" type="qcurve"/>
      <point x="380" y="865" type="line"/>
      <point x="626" y="865" type="line" smooth="yes"/>
      <point x="742" y="865"/>
      <point x="884" y="1005"/>
      <point x="884" y="1137" type="qcurve" smooth="yes"/>
      <point x="884" y="1253"/>
      <point x="771" y="1352"/>
      <point x="664" y="1352" type="qcurve" smooth="yes"/>
      <point x="551" y="1352" type="line"/>
      <point x="522" y="1334" type="line"/>
      <point x="518" y="814" type="line"/>
      <point x="520" y="156" type="line"/>
      <point x="686" y="120" type="line"/>
      <point x="686" y="0" type="line"/>
    </contour>
    <contour>
      <point x="591" y="776" type="line"/>
      <point x="856" y="815" type="line"/>
      <point x="1189" y="315" type="line" smooth="yes"/>
      <point x="1283" y="174"/>
      <point x="1392" y="120"/>
      <point x="1426" y="120" type="qcurve"/>
      <point x="1426" y="0" type="line"/>
      <point x="1111" y="0" type="line"/>
      <point x="1082" y="20" type="line"/>
    </contour>
  </outline>
</glyph>
<glyph name="T" format="2">
  <advance width="1288"/>
  <unicode hex="0054"/>
  <anchor x="644.0" y="0" name="bottom"/>
  <anchor x="644.0" y="750.0" name="center"/>
  <anchor x="644.0" y="1500" name="top"/>
  <outline>
    <contour>
      <point x="30" y="1052" type="line"/>
      <point x="30" y="1500" type="line"/>
      <point x="1258" y="1500" type="line"/>
      <point x="1258" y="1052" type="line"/>
      <point x="1108" y="1052" type="line"/>
      <point x="1073" y="1362" type="line"/>
      <point x="803" y="1362" type="line"/>
      <point x="784" y="1342" type="line"/>
      <point x="782" y="754" type="line"/>
      <point x="784" y="156" type="line"/>
      <point x="951" y="120" type="line"/>
      <point x="951" y="0" type="line"/>
      <point x="335" y="0" type="line"/>
      <point x="335" y="120" type="line"/>
      <point x="504" y="156" type="line"/>
      <point x="506" y="754" type="line"/>
      <point x="504" y="1342" type="line"/>
      <point x="495" y="1362" type="line"/>
      <point x="215" y="1362" type="line"/>
      <point x="180" y="1052" type="line"/>
    </contour>
  </outline>
</glyph>
<glyph name="Y" format="2">
  <advance width="1266"/>
  <unicode hex="0059"/>
  <anchor x="636.0" y="0" name="bottom"/>
  <anchor x="640.0" y="1500" name="top"/>
  <outline>
    <contour>
      <point x="-30" y="1386" type="line"/>
      <point x="-30" y="1500" type="line"/>
      <point x="547" y="1500" type="line"/>
      <point x="547" y="1386" type="line"/>
      <point x="390" y="1351" type="line"/>
      <point x="535" y="1080" type="line"/>
      <point x="680" y="831" type="line"/>
      <point x="815" y="1074" type="line"/>
      <point x="954" y="1338" type="line"/>
      <point x="787" y="1366" type="line"/>
      <point x="787" y="1500" type="line"/>
      <point x="1296" y="1500" type="line"/>
      <point x="1296" y="1366" type="line"/>
      <point x="1148" y="1339" type="line"/>
      <point x="963" y="1011" type="line"/>
      <point x="773" y="652" type="line"/>
      <point x="775" y="155" type="line"/>
      <point x="943" y="120" type="line"/>
      <point x="943" y="0" type="line"/>
      <point x="324" y="0" type="line"/>
      <point x="324" y="120" type="line"/>
      <point x="495" y="155" type="line"/>
      <point x="497" y="647" type="line"/>
      <point x="317" y="975" type="line"/>
      <point x="92" y="1360" type="line"/>
    </contour>
  </outline>
</glyph>
<glyph name="Z" format="2">
  <advance width="1166"/>
  <unicode hex="005A"/>
  <anchor x="583.0" y="0" name="bottom"/>
  <anchor x="583.0" y="1500" name="top"/>
  <outline>
    <contour>
      <point x="70" y="0" type="line"/>
      <point x="24" y="146" type="line"/>
      <point x="800" y="1354" type="line"/>
      <point x="791" y="1362" type="line"/>
      <point x="288" y="1362" type="line"/>
      <point x="252" y="1048" type="line"/>
      <point x="80" y="1048" type="line"/>
      <point x="80" y="1500" type="line"/>
      <point x="1101" y="1500" type="line"/>
      <point x="1101" y="1314" type="line"/>
      <point x="336" y="134" type="line"/>
      <point x="344" y="128" type="line"/>
      <point x="930" y="128" type="line"/>
      <point x="1008" y="388" type="line"/>
      <point x="1168" y="388" type="line"/>
      <point x="1126" y="0" type="line"/>
    </contour>
  </outline>
</glyph>
<glyph name="backslash" format="2">
	<unicode hex="005C"/>
	<advance width="656"/>
	<outline>
		<contour>
			<point x="-71" y="1512" type="line"/>
			<point x="120" y="1565" type="line"/>
			<point x="736" y="-108" type="line"/>
			<point x="545" y="-161" type="line"/>
		</contour>
	</outline>
</glyph>
<glyph name="a" format="2">
  <advance width="1096"/>
  <unicode hex="0061"/>
  <anchor x="548.0" y="0" name="bottom"/>
  <anchor x="878" y="0" name="ogonek"/>
  <anchor x="514.0" y="1000" name="top"/>
  <outline>
    <contour>
      <point x="82" y="279" type="qcurve" smooth="yes"/>
      <point x="82" y="414"/>
      <point x="411" y="611"/>
      <point x="736" y="651" type="qcurve"/>
      <point x="745" y="521" type="line"/>
      <point x="528" y="492"/>
      <point x="342" y="374"/>
      <point x="342" y="277" type="qcurve" smooth="yes"/>
      <point x="342" y="202"/>
      <point x="405" y="136"/>
      <point x="461" y="136" type="qcurve" smooth="yes"/>
      <point x="537" y="136"/>
      <point x="620" y="198"/>
      <point x="654" y="251" type="qcurve"/>
      <point x="656" y="635" type="line" smooth="yes"/>
      <point x="657" y="756"/>
      <point x="582" y="869"/>
      <point x="492" y="869" type="qcurve" smooth="yes"/>
      <point x="434" y="869"/>
      <point x="351" y="825"/>
      <point x="329" y="804" type="qcurve"/>
      <point x="350" y="783"/>
      <point x="376" y="744"/>
      <point x="380" y="724" type="qcurve" smooth="yes"/>
      <point x="389" y="680"/>
      <point x="334" y="605"/>
      <point x="276" y="605" type="qcurve" smooth="yes"/>
      <point x="212" y="605"/>
      <point x="146" y="690"/>
      <point x="146" y="763" type="qcurve" smooth="yes"/>
      <point x="146" y="864"/>
      <point x="360" y="1023"/>
      <point x="539" y="1023" type="qcurve" smooth="yes"/>
      <point x="722" y="1023"/>
      <point x="906" y="841"/>
      <point x="906" y="643" type="qcurve" smooth="yes"/>
      <point x="906" y="134" type="line"/>
      <point x="1039" y="99" type="line"/>
      <point x="1039" y="0" type="line"/>
      <point x="723" y="0" type="line"/>
      <point x="671" y="60" type="line"/>
      <point x="666" y="97" type="line"/>
      <point x="614" y="39"/>
      <point x="484" y="-13"/>
      <point x="379" y="-13" type="qcurve" smooth="yes"/>
      <point x="244" y="-13"/>
      <point x="82" y="142"/>
    </contour>
  </outline>
</glyph>
<glyph name="d" format="2">
  <advance width="1207"/>
  <unicode hex="0064"/>
  <anchor x="603.5" y="0" name="bottom"/>
  <anchor x="876" y="1202.0" name="center"/>
  <anchor x="604" y="1534" name="top"/>
  <anchor x="961" y="1000" name="topright"/>
  <outline>
    <contour>
      <point x="53" y="478" type="qcurve" smooth="yes"/>
      <point x="53" y="722"/>
      <point x="337" y="1020"/>
      <point x="525" y="1020" type="qcurve" smooth="yes"/>
      <point x="618" y="1020"/>
      <point x="717" y="974"/>
      <point x="757" y="939" type="qcurve"/>
      <point x="749" y="1376" type="line"/>
      <point x="575" y="1406" type="line"/>
      <point x="575" y="1500" type="line"/>
      <point x="865" y="1534" type="line"/>
      <point x="986" y="1534" type="line"/>
      <point x="1014" y="1502" type="line"/>
      <point x="1011" y="538" type="line"/>
      <point x="1020" y="135" type="line"/>
      <point x="1157" y="100" type="line"/>
      <point x="1157" y="0" type="line"/>
      <point x="844" y="0" type="line"/>
      <point x="788" y="60" type="line"/>
      <point x="771" y="99" type="line"/>
      <point x="730" y="53"/>
      <point x="587" y="-9"/>
      <point x="511" y="-9" type="qcurve" smooth="yes"/>
      <point x="314" y="-9"/>
      <point x="53" y="254"/>
    </contour>
    <contour>
      <point x="324" y="492" type="qcurve" smooth="yes"/>
      <point x="324" y="323"/>
      <point x="436" y="136"/>
      <point x="540" y="136" type="qcurve" smooth="yes"/>
      <point x="614" y="136"/>
      <point x="722" y="214"/>
      <point x="751" y="270" type="qcurve"/>
      <point x="755" y="511" type="line"/>
      <point x="755" y="762" type="line"/>
      <point x="729" y="807"/>
      <point x="632" y="874"/>
      <point x="555" y="874" type="qcurve" smooth="yes"/>
      <point x="447" y="874"/>
      <point x="324" y="654"/>
    </contour>
  </outline>
</glyph>
<glyph name="e" format="2">
  <advance width="1051"/>
  <unicode hex="0065"/>
  <anchor x="578" y="0" name="bottom"/>
  <anchor x="744" y="0" name="ogonek"/>
  <anchor x="539" y="1000" name="top"/>
  <outline>
    <contour>
      <point x="53" y="500" type="qcurve" smooth="yes"/>
      <point x="53" y="717"/>
      <point x="328" y="1022"/>
      <point x="541" y="1022" type="qcurve" smooth="yes"/>
      <point x="736" y="1022"/>
      <point x="988" y="794"/>
      <point x="988" y="588" type="qcurve" smooth="yes"/>
      <point x="988" y="496" type="line"/>
      <point x="216" y="496" type="line"/>
      <point x="216" y="622" type="line"/>
      <point x="721" y="622" type="line"/>
      <point x="720" y="741"/>
      <point x="635" y="879"/>
      <point x="549" y="879" type="qcurve" smooth="yes"/>
      <point x="443" y="879"/>
      <point x="327" y="682"/>
      <point x="327" y="512" type="qcurve" smooth="yes"/>
      <point x="328" y="322"/>
      <point x="476" y="123"/>
      <point x="601" y="123" type="qcurve" smooth="yes"/>
      <point x="699" y="123"/>
      <point x="821" y="185"/>
      <point x="877" y="250" type="qcurve"/>
      <point x="958" y="146" type="line"/>
      <point x="891" y="68"/>
      <point x="704" y="-22"/>
      <point x="552" y="-22" type="qcurve" smooth="yes"/>
      <point x="335" y="-22"/>
      <point x="53" y="249"/>
    </contour>
  </outline>
</glyph>
<glyph name="g" format="2">
  <advance width="1048"/>
  <unicode hex="0067"/>
  <anchor x="524.0" y="-416" name="bottom"/>
  <anchor x="524.0" y="1000" name="top"/>
  <outline>
    <contour>
      <point x="-6" y="-264" type="qcurve" smooth="yes"/>
      <point x="-6" y="-179"/>
      <point x="113" y="-73"/>
      <point x="189" y="-37" type="qcurve"/>
      <point x="274" y="-74" type="line"/>
      <point x="250" y="-103"/>
      <point x="212" y="-178"/>
      <point x="212" y="-237" type="qcurve" smooth="yes"/>
      <point x="212" y="-309"/>
      <point x="372" y="-373"/>
      <point x="551" y="-373" type="qcurve" smooth="yes"/>
      <point x="676" y="-373"/>
      <point x="875" y="-326"/>
      <point x="875" y="-240" type="qcurve" smooth="yes"/>
      <point x="875" y="-194"/>
      <point x="771" y="-159"/>
      <point x="553" y="-157" type="qcurve" smooth="yes"/>
      <point x="299" y="-155"/>
      <point x="64" y="-34"/>
      <point x="64" y="106" type="qcurve" smooth="yes"/>
      <point x="64" y="194"/>
      <point x="198" y="316"/>
      <point x="278" y="362" type="qcurve"/>
      <point x="338" y="249" type="line"/>
      <point x="307" y="230"/>
      <point x="252" y="179"/>
      <point x="252" y="146" type="qcurve" smooth="yes"/>
      <point x="252" y="110"/>
      <point x="358" y="81"/>
      <point x="558" y="81" type="qcurve" smooth="yes"/>
      <point x="834" y="81"/>
      <point x="1067" y="-32"/>
      <point x="1067" y="-189" type="qcurve" smooth="yes"/>
      <point x="1067" y="-330"/>
      <point x="799" y="-518"/>
      <point x="506" y="-518" type="qcurve" smooth="yes"/>
      <point x="247" y="-518"/>
      <point x="-6" y="-378"/>
    </contour>
    <contour>
      <point x="76" y="629" type="qcurve" smooth="yes"/>
      <point x="76" y="800"/>
      <point x="312" y="1022"/>
      <point x="495" y="1022" type="qcurve" smooth="yes"/>
      <point x="679" y="1022"/>
      <point x="917" y="816"/>
      <point x="917" y="634" type="qcurve" smooth="yes"/>
      <point x="917" y="463"/>
      <point x="682" y="217"/>
      <point x="500" y="217" type="qcurve" smooth="yes"/>
      <point x="316" y="217"/>
      <point x="76" y="444"/>
    </contour>
    <contour>
      <point x="342" y="638" type="qcurve" smooth="yes"/>
      <point x="342" y="495"/>
      <point x="426" y="341"/>
      <point x="494" y="341" type="qcurve" smooth="yes"/>
      <point x="567" y="341"/>
      <point x="646" y="481"/>
      <point x="646" y="629" type="qcurve" smooth="yes"/>
      <point x="646" y="748"/>
      <point x="563" y="888"/>
      <point x="495" y="888" type="qcurve" smooth="yes"/>
      <point x="423" y="888"/>
      <point x="342" y="763"/>
    </contour>
    <contour>
      <point x="605" y="925" type="line"/>
      <point x="590" y="1000" type="line"/>
      <point x="1053" y="1000" type="line"/>
      <point x="1053" y="865" type="line"/>
    </contour>
  </outline>
</glyph>
<glyph name="h" format="2">
  <advance width="1258"/>
  <unicode hex="0068"/>
  <anchor x="629.0" y="0" name="bottom"/>
  <anchor x="347.0" y="1202" name="center"/>
  <anchor x="304.0" y="1534" name="top"/>
  <outline>
    <contour>
      <point x="81" y="0" type="line"/>
      <point x="81" y="100" type="line"/>
      <point x="203" y="135" type="line"/>
      <point x="205" y="527" type="line"/>
      <point x="203" y="1346" type="line"/>
      <point x="57" y="1376" type="line"/>
      <point x="57" y="1500" type="line"/>
      <point x="333" y="1534" type="line"/>
      <point x="438" y="1534" type="line"/>
      <point x="466" y="1502" type="line"/>
      <point x="468" y="926" type="line"/>
      <point x="505" y="957"/>
      <point x="646" y="1021"/>
      <point x="746" y="1021" type="qcurve" smooth="yes"/>
      <point x="896" y="1021"/>
      <point x="1075" y="873"/>
      <point x="1075" y="743" type="qcurve" smooth="yes"/>
      <point x="1075" y="669"/>
      <point x="1070" y="527"/>
      <point x="1070" y="527" type="qcurve"/>
      <point x="1075" y="135" type="line"/>
      <point x="1203" y="100" type="line"/>
      <point x="1203" y="0" type="line"/>
      <point x="707" y="0" type="line"/>
      <point x="707" y="100" type="line"/>
      <point x="816" y="135" type="line"/>
      <point x="817" y="527" type="line"/>
      <point x="817" y="672" type="line" smooth="yes"/>
      <point x="817" y="755"/>
      <point x="735" y="847"/>
      <point x="659" y="847" type="qcurve" smooth="yes"/>
      <point x="588" y="847"/>
      <point x="495" y="799"/>
      <point x="463" y="755" type="qcurve"/>
      <point x="465" y="527" type="line"/>
      <point x="467" y="135" type="line"/>
      <point x="586" y="100" type="line"/>
      <point x="586" y="0" type="line"/>
    </contour>
  </outline>
</glyph>
<glyph name="i" format="2">
  <advance width="639"/>
  <unicode hex="0069"/>
  <anchor x="319.5" y="0" name="bottom"/>
  <anchor x="319.5" y="1000" name="top"/>
  <anchor x="241" y="0" name="ogonek"/>
  <outline>
    <contour>
      <point x="57" y="0" type="line"/>
      <point x="57" y="100" type="line"/>
      <point x="206" y="135" type="line"/>
      <point x="208" y="527" type="line"/>
      <point x="201" y="822" type="line"/>
      <point x="62" y="852" type="line"/>
      <point x="62" y="966" type="line"/>
      <point x="340" y="1000" type="line"/>
      <point x="447" y="1000" type="line"/>
      <point x="470" y="961" type="line"/>
      <point x="463" y="607" type="line"/>
      <point x="465" y="135" type="line"/>
      <point x="603" y="100" type="line"/>
      <point x="603" y="0" type="line"/>
    </contour>
    <contour>
      <point x="159" y="1326" type="qcurve" smooth="yes"/>
      <point x="159" y="1395"/>
      <point x="235" y="1470"/>
      <point x="306" y="1470" type="qcurve" smooth="yes"/>
      <point x="373" y="1470"/>
      <point x="454" y="1391"/>
      <point x="454" y="1326" type="qcurve" smooth="yes"/>
      <point x="454" y="1257"/>
      <point x="377" y="1182"/>
      <point x="306" y="1182" type="qcurve" smooth="yes"/>
      <point x="239" y="1182"/>
      <point x="159" y="1262"/>
    </contour>
  </outline>
</glyph>
<glyph name="j" format="2">
  <advance width="556"/>
  <unicode hex="006A"/>
  <anchor x="278.0" y="-436" name="bottom"/>
  <anchor x="278.0" y="1000" name="top"/>
  <outline>
    <contour>
      <point x="-12" y="-479" type="qcurve"/>
      <point x="-12" y="-331" type="line"/>
      <point x="117" y="-328"/>
      <point x="181" y="-242"/>
      <point x="181" y="-120" type="qcurve" smooth="yes"/>
      <point x="179" y="527" type="line"/>
      <point x="173" y="822" type="line"/>
      <point x="15" y="852" type="line"/>
      <point x="15" y="966" type="line"/>
      <point x="323" y="1000" type="line"/>
      <point x="415" y="1000" type="line"/>
      <point x="438" y="961" type="line"/>
      <point x="432" y="527" type="line"/>
      <point x="439" y="-122" type="line" smooth="yes"/>
      <point x="441" y="-301"/>
      <point x="198" y="-490"/>
    </contour>
    <contour>
      <point x="142" y="1316" type="qcurve" smooth="yes"/>
      <point x="142" y="1385"/>
      <point x="216" y="1461"/>
      <point x="285" y="1461" type="qcurve" smooth="yes"/>
      <point x="350" y="1461"/>
      <point x="428" y="1381"/>
      <point x="428" y="1316" type="qcurve" smooth="yes"/>
      <point x="428" y="1246"/>
      <point x="355" y="1170"/>
      <point x="285" y="1170" type="qcurve" smooth="yes"/>
      <point x="220" y="1170"/>
      <point x="142" y="1251"/>
    </contour>
  </outline>
</glyph>
<glyph name="m" format="2">
  <advance width="1916"/>
  <unicode hex="006D"/>
  <anchor x="958.0" y="0" name="bottom"/>
  <anchor x="958.0" y="1000" name="top"/>
  <outline>
    <contour>
      <point x="76" y="0" type="line"/>
      <point x="76" y="100" type="line"/>
      <point x="204" y="135" type="line"/>
      <point x="206" y="527" type="line"/>
      <point x="204" y="822" type="line"/>
      <point x="76" y="852" type="line"/>
      <point x="76" y="966" type="line"/>
      <point x="339" y="1000" type="line"/>
      <point x="407" y="946" type="line"/>
      <point x="424" y="889" type="line"/>
      <point x="454" y="927"/>
      <point x="649" y="1021"/>
      <point x="750" y="1021" type="qcurve" smooth="yes"/>
      <point x="872" y="1021"/>
      <point x="1031" y="926"/>
      <point x="1056" y="840" type="qcurve"/>
      <point x="1108" y="928"/>
      <point x="1273" y="1021"/>
      <point x="1379" y="1021" type="qcurve" smooth="yes"/>
      <point x="1533" y="1021"/>
      <point x="1712" y="872"/>
      <point x="1712" y="742" type="qcurve" smooth="yes"/>
      <point x="1712" y="674"/>
      <point x="1710" y="555"/>
      <point x="1710" y="527" type="qcurve" smooth="yes"/>
      <point x="1715" y="135" type="line"/>
      <point x="1843" y="100" type="line"/>
      <point x="1843" y="0" type="line"/>
      <point x="1347" y="0" type="line"/>
      <point x="1347" y="100" type="line"/>
      <point x="1455" y="135" type="line"/>
      <point x="1457" y="527" type="line"/>
      <point x="1457" y="687" type="line" smooth="yes"/>
      <point x="1457" y="765"/>
      <point x="1365" y="842"/>
      <point x="1290" y="842" type="qcurve" smooth="yes"/>
      <point x="1227" y="842"/>
      <point x="1114" y="789"/>
      <point x="1084" y="741" type="qcurve"/>
      <point x="1084" y="688"/>
      <point x="1086" y="544"/>
      <point x="1086" y="527" type="qcurve" smooth="yes"/>
      <point x="1089" y="135" type="line"/>
      <point x="1207" y="100" type="line"/>
      <point x="1207" y="0" type="line"/>
      <point x="721" y="0" type="line"/>
      <point x="721" y="100" type="line"/>
      <point x="830" y="135" type="line"/>
      <point x="832" y="527" type="line"/>
      <point x="832" y="687" type="line" smooth="yes"/>
      <point x="832" y="765"/>
      <point x="739" y="852"/>
      <point x="670" y="852" type="qcurve" smooth="yes"/>
      <point x="599" y="852"/>
      <point x="484" y="795"/>
      <point x="460" y="744" type="qcurve"/>
      <point x="460" y="527" type="line"/>
      <point x="462" y="135" type="line"/>
      <point x="581" y="100" type="line"/>
      <point x="581" y="0" type="line"/>
    </contour>
  </outline>
</glyph>
<glyph name="n" format="2">
  <advance width="1264"/>
  <unicode hex="006E"/>
  <anchor x="632.0" y="0" name="bottom"/>
  <anchor x="632.0" y="1000" name="top"/>
  <outline>
    <contour>
      <point x="86" y="0" type="line"/>
      <point x="86" y="100" type="line"/>
      <point x="204" y="135" type="line"/>
      <point x="206" y="527" type="line"/>
      <point x="194" y="822" type="line"/>
      <point x="76" y="852" type="line"/>
      <point x="76" y="966" type="line"/>
      <point x="340" y="1000" type="line"/>
      <point x="408" y="946" type="line"/>
      <point x="422" y="891" type="line"/>
      <point x="450" y="929"/>
      <point x="640" y="1021"/>
      <point x="741" y="1021" type="qcurve" smooth="yes"/>
      <point x="895" y="1021"/>
      <point x="1070" y="872"/>
      <point x="1070" y="742" type="qcurve" smooth="yes"/>
      <point x="1070" y="677"/>
      <point x="1065" y="549"/>
      <point x="1065" y="527" type="qcurve" smooth="yes"/>
      <point x="1070" y="135" type="line"/>
      <point x="1198" y="100" type="line"/>
      <point x="1198" y="0" type="line"/>
      <point x="700" y="0" type="line"/>
      <point x="700" y="100" type="line"/>
      <point x="808" y="135" type="line"/>
      <point x="810" y="527" type="line"/>
      <point x="810" y="672" type="line" smooth="yes"/>
      <point x="810" y="755"/>
      <point x="728" y="847"/>
      <point x="652" y="847" type="qcurve" smooth="yes"/>
      <point x="586" y="847"/>
      <point x="489" y="801"/>
      <point x="457" y="755" type="qcurve"/>
      <point x="459" y="527" type="line"/>
      <point x="461" y="135" type="line"/>
      <point x="580" y="100" type="line"/>
      <point x="580" y="0" type="line"/>
    </contour>
  </outline>
</glyph>
<glyph name="o" format="2">
  <advance width="1168"/>
  <unicode hex="006F"/>
  <anchor x="584.0" y="0" name="bottom"/>
  <anchor x="584.0" y="500.0" name="center"/>
  <anchor x="747" y="0" name="ogonek"/>
  <anchor x="584.0" y="1000" name="top"/>
  <anchor x="751" y="1000" name="topright"/>
  <outline>
    <contour>
      <point x="54" y="500" type="qcurve" smooth="yes"/>
      <point x="54" y="717"/>
      <point x="350" y="1022"/>
      <point x="582" y="1022" type="qcurve" smooth="yes"/>
      <point x="815" y="1022"/>
      <point x="1114" y="737"/>
      <point x="1114" y="506" type="qcurve" smooth="yes"/>
      <point x="1114" y="290"/>
      <point x="820" y="-22"/>
      <point x="588" y="-22" type="qcurve" smooth="yes"/>
      <point x="355" y="-22"/>
      <point x="54" y="267"/>
    </contour>
    <contour>
      <point x="325" y="519" type="qcurve" smooth="yes"/>
      <point x="326" y="342"/>
      <point x="446" y="119"/>
      <point x="580" y="119" type="qcurve" smooth="yes"/>
      <point x="725" y="119"/>
      <point x="844" y="322"/>
      <point x="844" y="505" type="qcurve" smooth="yes"/>
      <point x="844" y="674"/>
      <point x="717" y="874"/>
      <point x="582" y="874" type="qcurve" smooth="yes"/>
      <point x="436" y="874"/>
      <point x="324" y="694"/>
    </contour>
  </outline>
</glyph>
<glyph name="p" format="2">
  <advance width="1198"/>
  <unicode hex="0070"/>
  <anchor x="599.0" y="0" name="bottom"/>
  <anchor x="599.0" y="1000" name="top"/>
  <outline>
    <contour>
      <point x="61" y="-480" type="line"/>
      <point x="61" y="-380" type="line"/>
      <point x="204" y="-345" type="line"/>
      <point x="206" y="427" type="line"/>
      <point x="204" y="822" type="line"/>
      <point x="56" y="852" type="line"/>
      <point x="56" y="966" type="line"/>
      <point x="339" y="1000" type="line"/>
      <point x="412" y="945" type="line"/>
      <point x="425" y="891" type="line"/>
      <point x="461" y="935"/>
      <point x="624" y="1020"/>
      <point x="718" y="1020" type="qcurve" smooth="yes"/>
      <point x="888" y="1020"/>
      <point x="1143" y="772"/>
      <point x="1143" y="530" type="qcurve" smooth="yes"/>
      <point x="1143" y="286"/>
      <point x="900" y="-12"/>
      <point x="686" y="-12" type="qcurve" smooth="yes"/>
      <point x="603" y="-12"/>
      <point x="503" y="16"/>
      <point x="464" y="36" type="qcurve"/>
      <point x="464" y="-345" type="line"/>
      <point x="626" y="-380" type="line"/>
      <point x="626" y="-480" type="line"/>
    </contour>
    <contour>
      <point x="462" y="239" type="line"/>
      <point x="486" y="179"/>
      <point x="593" y="111"/>
      <point x="666" y="111" type="qcurve" smooth="yes"/>
      <point x="764" y="111"/>
      <point x="871" y="313"/>
      <point x="871" y="505" type="qcurve" smooth="yes"/>
      <point x="871" y="688"/>
      <point x="765" y="874"/>
      <point x="669" y="874" type="qcurve" smooth="yes"/>
      <point x="597" y="874"/>
      <point x="493" y="809"/>
      <point x="462" y="743" type="qcurve"/>
      <point x="460" y="427" type="line"/>
    </contour>
  </outline>
</glyph>
<glyph name="q" format="2">
  <advance width="1188"/>
  <unicode hex="0071"/>
  <anchor x="594.0" y="0" name="bottom"/>
  <anchor x="594.0" y="1000" name="top"/>
  <outline>
    <contour>
      <point x="58" y="478" type="qcurve" smooth="yes"/>
      <point x="58" y="731"/>
      <point x="328" y="1020"/>
      <point x="556" y="1020" type="qcurve" smooth="yes"/>
      <point x="639" y="1020"/>
      <point x="769" y="968"/>
      <point x="803" y="939" type="qcurve"/>
      <point x="853" y="1010" type="line"/>
      <point x="1148" y="975" type="line"/>
      <point x="1148" y="862" type="line"/>
      <point x="1009" y="828" type="line"/>
      <point x="1002" y="428" type="line"/>
      <point x="1004" y="-345" type="line"/>
      <point x="1146" y="-380" type="line"/>
      <point x="1146" y="-480" type="line"/>
      <point x="591" y="-480" type="line"/>
      <point x="591" y="-380" type="line"/>
      <point x="744" y="-345" type="line"/>
      <point x="750" y="71" type="line"/>
      <point x="700" y="31"/>
      <point x="581" y="-9"/>
      <point x="496" y="-9" type="qcurve" smooth="yes"/>
      <point x="314" y="-9"/>
      <point x="58" y="242"/>
    </contour>
    <contour>
      <point x="328" y="493" type="qcurve" smooth="yes"/>
      <point x="328" y="315"/>
      <point x="445" y="137"/>
      <point x="537" y="137" type="qcurve" smooth="yes"/>
      <point x="604" y="137"/>
      <point x="717" y="202"/>
      <point x="748" y="257" type="qcurve"/>
      <point x="750" y="776" type="line"/>
      <point x="724" y="815"/>
      <point x="623" y="876"/>
      <point x="555" y="876" type="qcurve" smooth="yes"/>
      <point x="455" y="876"/>
      <point x="328" y="694"/>
    </contour>
  </outline>
</glyph>
<glyph name="t" format="2">
  <advance width="643"/>
  <unicode hex="0074"/>
  <anchor x="321.5" y="0" name="bottom"/>
  <anchor x="312" y="622.0" name="center"/>
  <anchor x="322" y="1179" name="top"/>
  <anchor x="540" y="1000" name="topright"/>
  <outline>
    <contour>
      <point x="26" y="832" type="line"/>
      <point x="26" y="946" type="line"/>
      <point x="144" y="974"/>
      <point x="261" y="1118"/>
      <point x="294" y="1180" type="qcurve"/>
      <point x="376" y="1180" type="line"/>
      <point x="409" y="1140" type="line"/>
      <point x="404" y="974" type="line"/>
      <point x="600" y="974" type="line"/>
      <point x="600" y="832" type="line"/>
      <point x="402" y="832" type="line"/>
      <point x="396" y="527" type="line"/>
      <point x="396" y="256" type="line" smooth="yes"/>
      <point x="396" y="191"/>
      <point x="439" y="149"/>
      <point x="524" y="149" type="qcurve" smooth="yes"/>
      <point x="597" y="149" type="line"/>
      <point x="597" y="29" type="line"/>
      <point x="324" y="-8" type="line"/>
      <point x="247" y="-8"/>
      <point x="137" y="73"/>
      <point x="139" y="163" type="qcurve" smooth="yes"/>
      <point x="139" y="527" type="line"/>
      <point x="139" y="820" type="line"/>
    </contour>
  </outline>
</glyph>
<glyph name="u" format="2">
  <advance width="1244"/>
  <unicode hex="0075"/>
  <anchor x="622.0" y="0" name="bottom"/>
  <anchor x="1030" y="20" name="ogonek"/>
  <anchor x="622.0" y="1000" name="top"/>
  <anchor x="1178" y="1000" name="topright"/>
  <outline>
    <contour>
      <point x="48" y="852" type="line"/>
      <point x="48" y="966" type="line"/>
      <point x="306" y="1000" type="line"/>
      <point x="423" y="1000" type="line"/>
      <point x="445" y="964" type="line"/>
      <point x="443" y="473" type="line"/>
      <point x="443" y="288" type="line" smooth="yes"/>
      <point x="443" y="222"/>
      <point x="509" y="142"/>
      <point x="577" y="142" type="qcurve" smooth="yes"/>
      <point x="657" y="142"/>
      <point x="756" y="201"/>
      <point x="792" y="265" type="qcurve"/>
      <point x="792" y="473" type="line"/>
      <point x="789" y="822" type="line"/>
      <point x="653" y="852" type="line"/>
      <point x="653" y="966" type="line"/>
      <point x="932" y="1000" type="line"/>
      <point x="1027" y="1000" type="line"/>
      <point x="1048" y="964" type="line"/>
      <point x="1046" y="473" type="line"/>
      <point x="1048" y="168" type="line"/>
      <point x="1200" y="138" type="line"/>
      <point x="1200" y="34" type="line"/>
      <point x="862" y="0" type="line"/>
      <point x="827" y="27" type="line"/>
      <point x="800" y="107" type="line"/>
      <point x="748" y="43"/>
      <point x="607" y="-21"/>
      <point x="505" y="-21" type="qcurve" smooth="yes"/>
      <point x="351" y="-21"/>
      <point x="187" y="128"/>
      <point x="187" y="258" type="qcurve" smooth="yes"/>
      <point x="187" y="330"/>
      <point x="189" y="448"/>
      <point x="189" y="473" type="qcurve" smooth="yes"/>
      <point x="184" y="822" type="line"/>
    </contour>
  </outline>
</glyph>
<glyph name="v" format="2">
  <advance width="1026"/>
  <unicode hex="0076"/>
  <anchor x="513.0" y="0" name="bottom"/>
  <anchor x="513.0" y="1000" name="top"/>
  <outline>
    <contour>
      <point x="-24" y="890" type="line"/>
      <point x="-24" y="1000" type="line"/>
      <point x="450" y="1000" type="line"/>
      <point x="450" y="890" type="line"/>
      <point x="341" y="853" type="line"/>
      <point x="459" y="552" type="line"/>
      <point x="548" y="319" type="line"/>
      <point x="626" y="538" type="line"/>
      <point x="747" y="860" type="line"/>
      <point x="610" y="890" type="line"/>
      <point x="610" y="1000" type="line"/>
      <point x="1066" y="1000" type="line"/>
      <point x="1066" y="890" type="line"/>
      <point x="908" y="855" type="line"/>
      <point x="770" y="497" type="line"/>
      <point x="584" y="-8" type="line"/>
      <point x="422" y="-8" type="line"/>
      <point x="240" y="470" type="line"/>
      <point x="88" y="855" type="line"/>
    </contour>
  </outline>
</glyph>
<glyph name="w" format="2">
  <advance width="1573"/>
  <unicode hex="0077"/>
  <anchor x="786.5" y="0" name="bottom"/>
  <anchor x="786.5" y="1000" name="top"/>
  <outline>
    <contour>
      <point x="-20" y="890" type="line"/>
      <point x="-20" y="1000" type="line"/>
      <point x="439" y="1000" type="line"/>
      <point x="439" y="890" type="line"/>
      <point x="336" y="853" type="line"/>
      <point x="447" y="543" type="line"/>
      <point x="543" y="303" type="line"/>
      <point x="610" y="480" type="line"/>
      <point x="732" y="842" type="line"/>
      <point x="850" y="738" type="line"/>
      <point x="726" y="415" type="line"/>
      <point x="571" y="-8" type="line"/>
      <point x="414" y="-8" type="line"/>
      <point x="235" y="477" type="line"/>
      <point x="88" y="855" type="line"/>
    </contour>
    <contour>
      <point x="547" y="890" type="line"/>
      <point x="547" y="1000" type="line"/>
      <point x="996" y="1000" type="line"/>
      <point x="996" y="890" type="line"/>
      <point x="901" y="853" type="line"/>
      <point x="1028" y="500" type="line"/>
      <point x="1102" y="304" type="line"/>
      <point x="1194" y="541" type="line"/>
      <point x="1306" y="860" type="line"/>
      <point x="1168" y="890" type="line"/>
      <point x="1168" y="1000" type="line"/>
      <point x="1613" y="1000" type="line"/>
      <point x="1613" y="890" type="line"/>
      <point x="1465" y="855" type="line"/>
      <point x="1325" y="489" type="line"/>
      <point x="1147" y="-8" type="line"/>
      <point x="990" y="-8" type="line"/>
      <point x="828" y="432" type="line"/>
      <point x="665" y="855" type="line"/>
    </contour>
  </outline>
</glyph>
<glyph name="x" format="2">
  <advance width="1043"/>
  <unicode hex="0078"/>
  <anchor x="521.5" y="0" name="bottom"/>
  <anchor x="521.5" y="1000" name="top"/>
  <outline>
    <contour>
      <point x="16" y="0" type="line"/>
      <point x="16" y="100" type="line"/>
      <point x="164" y="135" type="line"/>
      <point x="467" y="539" type="line"/>
      <point x="480" y="557" type="line"/>
      <point x="697" y="860" type="line"/>
      <point x="590" y="890" type="line"/>
      <point x="590" y="1000" type="line"/>
      <point x="1006" y="1000" type="line"/>
      <point x="1006" y="890" type="line"/>
      <point x="858" y="855" type="line"/>
      <point x="578" y="469" type="line"/>
      <point x="572" y="460" type="line"/>
      <point x="335" y="130" type="line"/>
      <point x="462" y="100" type="line"/>
      <point x="462" y="0" type="line"/>
    </contour>
    <contour>
      <point x="20" y="890" type="line"/>
      <point x="20" y="1000" type="line"/>
      <point x="472" y="1000" type="line"/>
      <point x="472" y="890" type="line"/>
      <point x="409" y="853" type="line"/>
      <point x="606" y="579" type="line"/>
      <point x="938" y="135" type="line"/>
      <point x="1043" y="100" type="line"/>
      <point x="1043" y="0" type="line"/>
      <point x="571" y="0" type="line"/>
      <point x="571" y="100" type="line"/>
      <point x="654" y="137" type="line"/>
      <point x="432" y="424" type="line"/>
      <point x="128" y="855" type="line"/>
    </contour>
  </outline>
</glyph>
<glyph name="y" format="2">
  <advance width="1026"/>
  <unicode hex="0079"/>
  <anchor x="782.0" y="0" name="bottom"/>
  <anchor x="524.0" y="1000" name="top"/>
  <outline>
    <contour>
      <point x="-10" y="890" type="line"/>
      <point x="-10" y="1000" type="line"/>
      <point x="464" y="1000" type="line"/>
      <point x="464" y="890" type="line"/>
      <point x="341" y="853" type="line"/>
      <point x="461" y="552" type="line"/>
      <point x="550" y="333" type="line"/>
      <point x="626" y="538" type="line"/>
      <point x="744" y="860" type="line"/>
      <point x="610" y="890" type="line"/>
      <point x="610" y="1000" type="line"/>
      <point x="1056" y="1000" type="line"/>
      <point x="1056" y="890" type="line"/>
      <point x="912" y="855" type="line"/>
      <point x="775" y="497" type="line"/>
      <point x="484" y="-287" type="line" smooth="yes"/>
      <point x="443" y="-398"/>
      <point x="286" y="-492"/>
      <point x="197" y="-492" type="qcurve"/>
      <point x="39" y="-460" type="line"/>
      <point x="39" y="-326" type="line"/>
      <point x="140" y="-326" type="line" smooth="yes"/>
      <point x="206" y="-326"/>
      <point x="319" y="-287"/>
      <point x="353" y="-195" type="qcurve" smooth="yes"/>
      <point x="422" y="-8" type="line"/>
      <point x="404" y="39" type="line"/>
      <point x="236" y="481" type="line"/>
      <point x="78" y="855" type="line"/>
    </contour>
  </outline>
</glyph>
<glyph name="z" format="2">
  <advance width="885"/>
  <unicode hex="007A"/>
  <anchor x="442.5" y="0" name="bottom"/>
  <anchor x="442.5" y="1000" name="top"/>
  <outline>
    <contour>
      <point x="22" y="0" type="line"/>
      <point x="22" y="130" type="line"/>
      <point x="546" y="864" type="line"/>
      <point x="215" y="864" type="line"/>
      <point x="188" y="690" type="line"/>
      <point x="50" y="690" type="line"/>
      <point x="50" y="1000" type="line"/>
      <point x="845" y="1000" type="line"/>
      <point x="845" y="881" type="line"/>
      <point x="307" y="136" type="line"/>
      <point x="696" y="136" type="line"/>
      <point x="723" y="300" type="line"/>
      <point x="861" y="300" type="line"/>
      <point x="861" y="0" type="line"/>
    </contour>
  </outline>
</glyph>
<glyph name="braceleft" format="2">
	<unicode hex="007B"/>
	<advance width="693"/>
	<outline>
		<contour>
			<point x="44" y="459" type="line"/>
			<point x="44" y="601" type="line"/>
			<point x="141" y="611" type="line" smooth="yes"/>
			<point x="196" y="617"/>
			<point x="256" y="662"/>
			<point x="256" y="725" type="qcurve" smooth="yes"/>
			<point x="256" y="836"/>
			<point x="132" y="1066"/>
			<point x="132" y="1184" type="qcurve" smooth="yes"/>
			<point x="132" y="1343"/>
			<point x="315" y="1510"/>
			<point x="463" y="1510" type="qcurve" smooth="yes"/>
			<point x="529" y="1510"/>
			<point x="655" y="1503"/>
			<point x="689" y="1500" type="qcurve"/>
			<point x="689" y="1356" type="line"/>
			<point x="641" y="1358"/>
			<point x="598" y="1358"/>
			<point x="552" y="1358" type="qcurve" smooth="yes"/>
			<point x="474" y="1358"/>
			<point x="389" y="1297"/>
			<point x="389" y="1200" type="qcurve" smooth="yes"/>
			<point x="389" y="1098"/>
			<point x="495" y="883"/>
			<point x="495" y="792" type="qcurve" smooth="yes"/>
			<point x="495" y="697"/>
			<point x="414" y="573"/>
			<point x="340" y="551" type="qcurve"/>
			<point x="424" y="521"/>
			<point x="495" y="392"/>
			<point x="495" y="320" type="qcurve" smooth="yes"/>
			<point x="495" y="225"/>
			<point x="366" y="-80"/>
			<point x="366" y="-181" type="qcurve" smooth="yes"/>
			<point x="366" y="-279"/>
			<point x="455" y="-343"/>
			<point x="533" y="-343" type="qcurve" smooth="yes"/>
			<point x="579" y="-343"/>
			<point x="636" y="-343"/>
			<point x="685" y="-341" type="qcurve"/>
			<point x="685" y="-483" type="line"/>
			<point x="650" y="-486"/>
			<point x="517" y="-495"/>
			<point x="451" y="-495" type="qcurve" smooth="yes"/>
			<point x="292" y="-495"/>
			<point x="109" y="-327"/>
			<point x="109" y="-168" type="qcurve" smooth="yes"/>
			<point x="109" y="-50"/>
			<point x="255" y="246"/>
			<point x="255" y="364" type="qcurve"/>
			<point x="255" y="459" type="line"/>
		</contour>
	</outline>
</glyph>
<glyph name="ordfeminine" format="2">
	<unicode hex="00AA"/>
	<advance width="945"/>
	<outline>
		<contour>
			<point x="31" y="896" type="qcurve" smooth="yes"/>
			<point x="31" y="1022"/>
			<point x="319" y="1189"/>
			<point x="623" y="1218" type="qcurve"/>
			<point x="630" y="1116" type="line"/>
			<point x="461" y="1097"/>
			<point x="265" y="1004"/>
			<point x="265" y="899" type="qcurve" smooth="yes"/>
			<point x="265" y="849"/>
			<point x="344" y="794"/>
			<point x="399" y="794" type="qcurve" smooth="yes"/>
			<point x="457" y="794"/>
			<point x="577" y="861"/>
			<point x="601" y="904" type="qcurve"/>
			<point x="603" y="1192" type="line" smooth="yes"/>
			<point x="604" y="1332"/>
			<point x="514" y="1424"/>
			<point x="443" y="1424" type="qcurve" smooth="yes"/>
			<point x="380" y="1424"/>
			<point x="275" y="1395"/>
			<point x="250" y="1377" type="qcurve"/>
			<point x="267" y="1361"/>
			<point x="290" y="1324"/>
			<point x="294" y="1295" type="qcurve" smooth="yes"/>
			<point x="297" y="1267"/>
			<point x="250" y="1217"/>
			<point x="202" y="1216" type="qcurve" smooth="yes"/>
			<point x="155" y="1214"/>
			<point x="93" y="1281"/>
			<point x="93" y="1339" type="qcurve" smooth="yes"/>
			<point x="93" y="1423"/>
			<point x="306" y="1543"/>
			<point x="479" y="1543" type="qcurve" smooth="yes"/>
			<point x="659" y="1543"/>
			<point x="835" y="1385"/>
			<point x="837" y="1202" type="qcurve" smooth="yes"/>
			<point x="841" y="790" type="line"/>
			<point x="939" y="761" type="line"/>
			<point x="939" y="684" type="line"/>
			<point x="665" y="684" type="line"/>
			<point x="622" y="734" type="line"/>
			<point x="613" y="783" type="line"/>
			<point x="573" y="739"/>
			<point x="407" y="670"/>
			<point x="307" y="670" type="qcurve" smooth="yes"/>
			<point x="176" y="670"/>
			<point x="31" y="802"/>
		</contour>
	</outline>
</glyph>
<glyph name="guillemetleft" format="2">
	<unicode hex="00AB"/>
	<advance width="1295"/>
	<outline>
		<contour>
			<point x="25" y="644" type="line"/>
			<point x="25" y="644"/>
			<point x="610" y="998"/>
			<point x="678" y="1044" type="qcurve" smooth="yes"/>
			<point x="747" y="1090"/>
			<point x="854" y="968"/>
			<point x="794" y="922" type="qcurve" smooth="yes"/>
			<point x="663" y="826"/>
			<point x="352" y="613"/>
			<point x="352" y="613" type="qcurve"/>
			<point x="352" y="613"/>
			<point x="712" y="349"/>
			<point x="798" y="285" type="qcurve" smooth="yes"/>
			<point x="858" y="241"/>
			<point x="770" y="116"/>
			<point x="697" y="154" type="qcurve" smooth="yes"/>
			<point x="631" y="188"/>
			<point x="100" y="516"/>
			<point x="25" y="564" type="qcurve"/>
		</contour>
		<contour>
			<point x="499" y="645" type="line"/>
			<point x="499" y="645"/>
			<point x="1074" y="989"/>
			<point x="1141" y="1035" type="qcurve" smooth="yes"/>
			<point x="1208" y="1079"/>
			<point x="1289" y="918"/>
			<point x="1235" y="879" type="qcurve" smooth="yes"/>
			<point x="1118" y="796"/>
			<point x="840" y="612"/>
			<point x="840" y="612" type="qcurve"/>
			<point x="840" y="612"/>
			<point x="1162" y="384"/>
			<point x="1239" y="329" type="qcurve" smooth="yes"/>
			<point x="1292" y="291"/>
			<point x="1231" y="131"/>
			<point x="1159" y="168" type="qcurve" smooth="yes"/>
			<point x="1094" y="201"/>
			<point x="572" y="521"/>
			<point x="499" y="567" type="qcurve"/>
		</contour>
	</outline>
</glyph>
<glyph name="macron" format="2">
  <advance width="1024"/>
  <unicode hex="00AF"/>
  <outline>
    <contour>
      <point x="197" y="1218" type="line"/>
      <point x="197" y="1383" type="line"/>
      <point x="828" y="1383" type="line"/>
      <point x="828" y="1218" type="line"/>
    </contour>
  </outline>
</glyph>
<glyph name="threesuperior" format="2">
	<unicode hex="00B3"/>
	<advance width="747"/>
	<outline>
		<contour>
			<point x="45" y="739" type="qcurve"/>
			<point x="96" y="846" type="line"/>
			<point x="148" y="805"/>
			<point x="254" y="769"/>
			<point x="328" y="769" type="qcurve" smooth="yes"/>
			<point x="405" y="769"/>
			<point x="494" y="837"/>
			<point x="494" y="913" type="qcurve" smooth="yes"/>
			<point x="494" y="987"/>
			<point x="375" y="1049"/>
			<point x="251" y="1045" type="qcurve" smooth="yes"/>
			<point x="220" y="1045" type="line"/>
			<point x="204" y="1161" type="line"/>
			<point x="267" y="1164" type="line" smooth="yes"/>
			<point x="375" y="1169"/>
			<point x="471" y="1238"/>
			<point x="471" y="1302" type="qcurve" smooth="yes"/>
			<point x="471" y="1353"/>
			<point x="409" y="1402"/>
			<point x="342" y="1402" type="qcurve" smooth="yes"/>
			<point x="276" y="1402"/>
			<point x="171" y="1357"/>
			<point x="134" y="1326" type="qcurve"/>
			<point x="77" y="1425" type="line"/>
			<point x="132" y="1471"/>
			<point x="293" y="1520"/>
			<point x="397" y="1520" type="qcurve" smooth="yes"/>
			<point x="529" y="1520"/>
			<point x="674" y="1418"/>
			<point x="674" y="1337" type="qcurve" smooth="yes"/>
			<point x="675" y="1250"/>
			<point x="558" y="1142"/>
			<point x="444" y="1118" type="qcurve"/>
			<point x="444" y="1114" type="line"/>
			<point x="563" y="1111"/>
			<point x="699" y="1001"/>
			<point x="699" y="905" type="qcurve" smooth="yes"/>
			<point x="699" y="783"/>
			<point x="504" y="649"/>
			<point x="346" y="649" type="qcurve" smooth="yes"/>
			<point x="260" y="649"/>
			<point x="97" y="697"/>
		</contour>
	</outline>
</glyph>
<glyph name="paragraph" format="2">
	<unicode hex="00B6"/>
	<advance width="1148"/>
	<outline>
		<contour>
			<point x="1049" y="120" type="line"/>
			<point x="1049" y="0" type="line"/>
			<point x="238" y="0" type="line"/>
			<point x="238" y="121" type="line"/>
			<point x="746" y="152" type="line"/>
			<point x="748" y="766" type="line"/>
			<point x="709" y="760"/>
			<point x="519" y="752"/>
			<point x="460" y="752" type="qcurve" smooth="yes"/>
			<point x="267" y="752"/>
			<point x="33" y="965"/>
			<point x="33" y="1145" type="qcurve" smooth="yes"/>
			<point x="33" y="1316"/>
			<point x="255" y="1500"/>
			<point x="447" y="1500" type="qcurve" smooth="yes"/>
			<point x="1102" y="1500" type="line"/>
			<point x="1102" y="1366" type="line"/>
			<point x="894" y="1332" type="line"/>
			<point x="892" y="754" type="line"/>
			<point x="894" y="155" type="line"/>
		</contour>
		<contour>
			<point x="599" y="61" type="line"/>
			<point x="435" y="56" type="line"/>
			<point x="437" y="766" type="line"/>
			<point x="597" y="773" type="line"/>
		</contour>
	</outline>
</glyph>
<glyph name="cedilla" format="2">
  <advance width="1024"/>
  <unicode hex="00B8"/>
  <outline>
    <contour>
      <point x="577" y="-4" type="line"/>
      <point x="505" y="-119" type="line"/>
      <point x="524" y="-113"/>
      <point x="589" y="-102"/>
      <point x="622" y="-102" type="qcurve" smooth="yes"/>
      <point x="707" y="-102"/>
      <point x="828" y="-192"/>
      <point x="828" y="-286" type="qcurve" smooth="yes"/>
      <point x="828" y="-384"/>
      <point x="672" y="-495"/>
      <point x="558" y="-495" type="qcurve" smooth="yes"/>
      <point x="461" y="-495"/>
      <point x="299" y="-449"/>
      <point x="242" y="-406" type="qcurve"/>
      <point x="308" y="-279" type="line"/>
      <point x="349" y="-310"/>
      <point x="451" y="-351"/>
      <point x="521" y="-351" type="qcurve" smooth="yes"/>
      <point x="573" y="-351"/>
      <point x="635" y="-311"/>
      <point x="635" y="-285" type="qcurve" smooth="yes"/>
      <point x="635" y="-244"/>
      <point x="585" y="-215"/>
      <point x="533" y="-215" type="qcurve" smooth="yes"/>
      <point x="499" y="-215"/>
      <point x="450" y="-227"/>
      <point x="435" y="-233" type="qcurve"/>
      <point x="366" y="-145" type="line"/>
      <point x="472" y="58" type="line"/>
    </contour>
  </outline>
</glyph>
<glyph name="onesuperior" format="2">
	<unicode hex="00B9"/>
	<advance width="718"/>
	<outline>
		<contour>
			<point x="94" y="670" type="line"/>
			<point x="94" y="767" type="line"/>
			<point x="278" y="797" type="line"/>
			<point x="281" y="1109" type="line"/>
			<point x="278" y="1363" type="line"/>
			<point x="92" y="1384" type="line"/>
			<point x="92" y="1478" type="line"/>
			<point x="448" y="1511" type="line"/>
			<point x="480" y="1476" type="line"/>
			<point x="474" y="1109" type="line"/>
			<point x="476" y="797" type="line"/>
			<point x="661" y="767" type="line"/>
			<point x="661" y="670" type="line"/>
		</contour>
	</outline>
</glyph>
<glyph name="guillemetright" format="2">
	<unicode hex="00BB"/>
	<advance width="1295"/>
	<outline>
		<contour>
			<point x="1264" y="562" type="line"/>
			<point x="1264" y="562"/>
			<point x="679" y="208"/>
			<point x="611" y="162" type="qcurve" smooth="yes"/>
			<point x="542" y="116"/>
			<point x="435" y="238"/>
			<point x="495" y="284" type="qcurve" smooth="yes"/>
			<point x="626" y="380"/>
			<point x="937" y="593"/>
			<point x="937" y="593" type="qcurve"/>
			<point x="937" y="593"/>
			<point x="577" y="857"/>
			<point x="491" y="921" type="qcurve" smooth="yes"/>
			<point x="431" y="965"/>
			<point x="519" y="1090"/>
			<point x="592" y="1052" type="qcurve" smooth="yes"/>
			<point x="658" y="1018"/>
			<point x="1189" y="690"/>
			<point x="1264" y="642" type="qcurve"/>
		</contour>
		<contour>
			<point x="790" y="561" type="line"/>
			<point x="790" y="561"/>
			<point x="215" y="217"/>
			<point x="148" y="171" type="qcurve" smooth="yes"/>
			<point x="81" y="127"/>
			<point x="0" y="288"/>
			<point x="54" y="327" type="qcurve" smooth="yes"/>
			<point x="171" y="410"/>
			<point x="449" y="594"/>
			<point x="449" y="594" type="qcurve"/>
			<point x="449" y="594"/>
			<point x="127" y="822"/>
			<point x="50" y="877" type="qcurve" smooth="yes"/>
			<point x="-3" y="915"/>
			<point x="58" y="1075"/>
			<point x="130" y="1038" type="qcurve" smooth="yes"/>
			<point x="195" y="1005"/>
			<point x="717" y="685"/>
			<point x="790" y="639" type="qcurve"/>
		</contour>
	</outline>
</glyph>
<glyph name="questiondown" format="2">
	<unicode hex="00BF"/>
	<advance width="934"/>
	<outline>
		<contour>
			<point x="738" y="1183" type="qcurve" smooth="yes"/>
			<point x="738" y="1116"/>
			<point x="642" y="1019"/>
			<point x="566" y="1019" type="qcurve" smooth="yes"/>
			<point x="491" y="1019"/>
			<point x="395" y="1116"/>
			<point x="395" y="1183" type="qcurve" smooth="yes"/>
			<point x="395" y="1250"/>
			<point x="491" y="1347"/>
			<point x="566" y="1347" type="qcurve" smooth="yes"/>
			<point x="642" y="1347"/>
			<point x="738" y="1250"/>
		</contour>
		<contour>
			<point x="920" y="104" type="qcurve" smooth="yes"/>
			<point x="920" y="-42"/>
			<point x="681" y="-215"/>
			<point x="475" y="-215" type="qcurve" smooth="yes"/>
			<point x="263" y="-215"/>
			<point x="6" y="-23"/>
			<point x="6" y="158" type="qcurve" smooth="yes"/>
			<point x="6" y="330"/>
			<point x="195" y="539"/>
			<point x="304" y="585" type="qcurve" smooth="yes"/>
			<point x="393" y="623"/>
			<point x="533" y="718"/>
			<point x="533" y="796" type="qcurve" smooth="yes"/>
			<point x="533" y="869" type="line"/>
			<point x="650" y="869" type="line"/>
			<point x="665" y="785" type="line" smooth="yes"/>
			<point x="681" y="698"/>
			<point x="582" y="528"/>
			<point x="471" y="463" type="qcurve" smooth="yes"/>
			<point x="388" y="415"/>
			<point x="267" y="295"/>
			<point x="267" y="170" type="qcurve" smooth="yes"/>
			<point x="267" y="51"/>
			<point x="405" y="-86"/>
			<point x="525" y="-86" type="qcurve" smooth="yes"/>
			<point x="629" y="-86"/>
			<point x="754" y="-7"/>
			<point x="754" y="44" type="qcurve" smooth="yes"/>
			<point x="754" y="75"/>
			<point x="636" y="133"/>
			<point x="635" y="189" type="qcurve" smooth="yes"/>
			<point x="633" y="232"/>
			<point x="697" y="300"/>
			<point x="761" y="300" type="qcurve" smooth="yes"/>
			<point x="831" y="300"/>
			<point x="920" y="201"/>
		</contour>
	</outline>
</glyph>
<glyph name="AE" format="2">
  <advance width="1962"/>
  <unicode hex="00C6"/>
  <anchor x="1055.0" y="1500" name="top"/>
  <outline>
    <contour>
      <point x="-44" y="0" type="line"/>
      <point x="-44" y="121" type="line"/>
      <point x="140" y="155" type="line"/>
      <point x="370" y="540" type="line"/>
      <point x="831" y="1342" type="line"/>
      <point x="706" y="1366" type="line"/>
      <point x="706" y="1500" type="line"/>
      <point x="1831" y="1500" type="line"/>
      <point x="1831" y="1128" type="line"/>
      <point x="1675" y="1128" type="line"/>
      <point x="1640" y="1368" type="line"/>
      <point x="1260" y="1368" type="line"/>
      <point x="1222" y="1347" type="line"/>
      <point x="1220" y="783" type="line"/>
      <point x="1222" y="150" type="line"/>
      <point x="1259" y="125" type="line"/>
      <point x="1709" y="125" type="line"/>
      <point x="1784" y="396" type="line"/>
      <point x="1930" y="396" type="line"/>
      <point x="1891" y="0" type="line"/>
      <point x="734" y="0" type="line"/>
      <point x="734" y="110" type="line"/>
      <point x="932" y="147" type="line"/>
      <point x="934" y="783" type="line"/>
      <point x="932" y="1196" type="line"/>
      <point x="916" y="1212" type="line"/>
      <point x="506" y="503" type="line"/>
      <point x="301" y="152" type="line"/>
      <point x="483" y="121" type="line"/>
      <point x="483" y="0" type="line"/>
    </contour>
    <contour>
      <point x="391" y="445" type="line"/>
      <point x="464" y="575" type="line"/>
      <point x="723" y="560" type="line"/>
      <point x="723" y="445" type="line"/>
    </contour>
    <contour>
      <point x="723" y="560" type="line"/>
      <point x="1037" y="576" type="line"/>
      <point x="1037" y="445" type="line"/>
      <point x="723" y="445" type="line"/>
    </contour>
    <contour>
      <point x="1078" y="731" type="line"/>
      <point x="1078" y="841" type="line"/>
      <point x="1501" y="851" type="line"/>
      <point x="1533" y="1024" type="line"/>
      <point x="1680" y="1024" type="line"/>
      <point x="1680" y="545" type="line"/>
      <point x="1533" y="545" type="line"/>
      <point x="1501" y="721" type="line"/>
    </contour>
  </outline>
</glyph>
<glyph name="multiply" format="2">
	<unicode hex="00D7"/>
	<advance width="1024"/>
	<outline>
		<contour>
			<point x="257" y="241" type="line"/>
			<point x="122" y="377" type="line"/>
			<point x="767" y="1023" type="line"/>
			<point x="903" y="887" type="line"/>
		</contour>
		<contour>
			<point x="764" y="238" type="line"/>
			<point x="119" y="884" type="line"/>
			<point x="261" y="1026" type="line"/>
			<point x="906" y="381" type="line"/>
		</contour>
	</outline>
</glyph>
<glyph name="ae" format="2">
  <advance width="1690"/>
  <unicode hex="00E6"/>
  <anchor x="869.0" y="1000" name="top"/>
  <outline>
    <contour>
      <point x="68" y="246" type="qcurve" smooth="yes"/>
      <point x="68" y="401"/>
      <point x="384" y="592"/>
      <point x="702" y="630" type="qcurve"/>
      <point x="710" y="532" type="line"/>
      <point x="536" y="509"/>
      <point x="327" y="388"/>
      <point x="327" y="272" type="qcurve" smooth="yes"/>
      <point x="327" y="202"/>
      <point x="396" y="132"/>
      <point x="457" y="132" type="qcurve" smooth="yes"/>
      <point x="523" y="132"/>
      <point x="676" y="209"/>
      <point x="705" y="260" type="qcurve"/>
      <point x="692" y="297"/>
      <point x="676" y="425"/>
      <point x="676" y="495" type="qcurve" smooth="yes"/>
      <point x="676" y="614" type="line" smooth="yes"/>
      <point x="676" y="778"/>
      <point x="555" y="899"/>
      <point x="464" y="899" type="qcurve" smooth="yes"/>
      <point x="399" y="899"/>
      <point x="304" y="865"/>
      <point x="281" y="840" type="qcurve"/>
      <point x="301" y="820"/>
      <point x="326" y="777"/>
      <point x="329" y="750" type="qcurve" smooth="yes"/>
      <point x="334" y="702"/>
      <point x="283" y="646"/>
      <point x="236" y="644" type="qcurve" smooth="yes"/>
      <point x="187" y="643"/>
      <point x="124" y="715"/>
      <point x="125" y="788" type="qcurve" smooth="yes"/>
      <point x="126" y="890"/>
      <point x="342" y="1029"/>
      <point x="498" y="1029" type="qcurve" smooth="yes"/>
      <point x="624" y="1029"/>
      <point x="796" y="962"/>
      <point x="832" y="895" type="qcurve"/>
      <point x="837" y="895" type="line"/>
      <point x="876" y="956"/>
      <point x="1059" y="1029"/>
      <point x="1169" y="1029" type="qcurve" smooth="yes"/>
      <point x="1351" y="1029"/>
      <point x="1606" y="804"/>
      <point x="1619" y="595" type="qcurve"/>
      <point x="1619" y="522" type="line"/>
      <point x="890" y="522" type="line"/>
      <point x="890" y="630" type="line"/>
      <point x="1385" y="630" type="line"/>
      <point x="1376" y="773"/>
      <point x="1249" y="910"/>
      <point x="1163" y="910" type="qcurve" smooth="yes"/>
      <point x="1062" y="910"/>
      <point x="928" y="723"/>
      <point x="929" y="530" type="qcurve" smooth="yes"/>
      <point x="929" y="326"/>
      <point x="1100" y="126"/>
      <point x="1237" y="126" type="qcurve" smooth="yes"/>
      <point x="1330" y="126"/>
      <point x="1480" y="182"/>
      <point x="1521" y="222" type="qcurve"/>
      <point x="1580" y="137" type="line"/>
      <point x="1532" y="71"/>
      <point x="1325" y="-22"/>
      <point x="1185" y="-22" type="qcurve" smooth="yes"/>
      <point x="1041" y="-22"/>
      <point x="813" y="62"/>
      <point x="761" y="153" type="qcurve"/>
      <point x="706" y="84"/>
      <point x="485" y="-15"/>
      <point x="353" y="-15" type="qcurve" smooth="yes"/>
      <point x="212" y="-15"/>
      <point x="68" y="132"/>
    </contour>
  </outline>
</glyph>
<glyph name="eth" format="2">
  <advance width="1172"/>
  <unicode hex="00F0"/>
  <outline>
    <contour>
      <point x="54" y="495" type="qcurve" smooth="yes"/>
      <point x="54" y="729"/>
      <point x="344" y="1020"/>
      <point x="574" y="1020" type="qcurve" smooth="yes"/>
      <point x="778" y="1020"/>
      <point x="980" y="721"/>
      <point x="994" y="496" type="qcurve"/>
      <point x="841" y="496" type="line"/>
      <point x="846" y="668"/>
      <point x="698" y="891"/>
      <point x="577" y="892" type="qcurve" smooth="yes"/>
      <point x="459" y="893"/>
      <point x="332" y="704"/>
      <point x="333" y="513" type="qcurve" smooth="yes"/>
      <point x="334" y="318"/>
      <point x="471" y="97"/>
      <point x="575" y="98" type="qcurve" smooth="yes"/>
      <point x="707" y="98"/>
      <point x="843" y="363"/>
      <point x="843" y="621" type="qcurve" smooth="yes"/>
      <point x="843" y="959"/>
      <point x="508" y="1375"/>
      <point x="248" y="1474" type="qcurve"/>
      <point x="302" y="1585" type="line"/>
      <point x="693" y="1465"/>
      <point x="1120" y="952"/>
      <point x="1120" y="624" type="qcurve" smooth="yes"/>
      <point x="1120" y="329"/>
      <point x="824" y="-21"/>
      <point x="574" y="-21" type="qcurve" smooth="yes"/>
      <point x="342" y="-21"/>
      <point x="54" y="252"/>
    </contour>
    <contour>
      <point x="333" y="1210" type="line"/>
      <point x="842" y="1535" type="line"/>
      <point x="917" y="1424" type="line"/>
      <point x="409" y="1098" type="line"/>
    </contour>
  </outline>
</glyph>
<glyph name="idotless" format="2">
  <advance width="639"/>
  <unicode hex="0131"/>
  <anchor x="319.5" y="1000" name="top"/>
  <outline>
    <contour>
      <point x="57" y="0" type="line"/>
      <point x="57" y="100" type="line"/>
      <point x="206" y="135" type="line"/>
      <point x="208" y="527" type="line"/>
      <point x="201" y="822" type="line"/>
      <point x="62" y="852" type="line"/>
      <point x="62" y="966" type="line"/>
      <point x="340" y="1000" type="line"/>
      <point x="447" y="1000" type="line"/>
      <point x="470" y="961" type="line"/>
      <point x="463" y="607" type="line"/>
      <point x="465" y="135" type="line"/>
      <point x="603" y="100" type="line"/>
      <point x="603" y="0" type="line"/>
    </contour>
  </outline>
</glyph>
<glyph name="oe" format="2">
	<unicode hex="0153"/>
	<advance width="1891"/>
	<outline>
		<contour>
			<point x="54" y="508" type="qcurve" smooth="yes"/>
			<point x="54" y="739"/>
			<point x="351" y="1032"/>
			<point x="579" y="1032" type="qcurve" smooth="yes"/>
			<point x="709" y="1032"/>
			<point x="953" y="921"/>
			<point x="1009" y="856" type="qcurve"/>
			<point x="1016" y="856" type="line"/>
			<point x="1066" y="934"/>
			<point x="1254" y="1032"/>
			<point x="1368" y="1032" type="qcurve" smooth="yes"/>
			<point x="1553" y="1032"/>
			<point x="1817" y="805"/>
			<point x="1830" y="596" type="qcurve"/>
			<point x="1830" y="512" type="line"/>
			<point x="1072" y="512" type="line"/>
			<point x="1072" y="631" type="line"/>
			<point x="1566" y="631" type="line"/>
			<point x="1557" y="774"/>
			<point x="1443" y="911"/>
			<point x="1365" y="911" type="qcurve" smooth="yes"/>
			<point x="1263" y="911"/>
			<point x="1110" y="724"/>
			<point x="1111" y="531" type="qcurve" smooth="yes"/>
			<point x="1111" y="327"/>
			<point x="1301" y="127"/>
			<point x="1439" y="127" type="qcurve" smooth="yes"/>
			<point x="1531" y="127"/>
			<point x="1688" y="182"/>
			<point x="1729" y="222" type="qcurve"/>
			<point x="1781" y="148" type="line"/>
			<point x="1738" y="79"/>
			<point x="1526" y="-21"/>
			<point x="1383" y="-21" type="qcurve" smooth="yes"/>
			<point x="1271" y="-21"/>
			<point x="1052" y="103"/>
			<point x="997" y="175" type="qcurve"/>
			<point x="992" y="175" type="line"/>
			<point x="942" y="107"/>
			<point x="706" y="-21"/>
			<point x="583" y="-21" type="qcurve" smooth="yes"/>
			<point x="354" y="-21"/>
			<point x="54" y="261"/>
		</contour>
		<contour>
			<point x="334" y="526" type="qcurve" smooth="yes"/>
			<point x="335" y="327"/>
			<point x="474" y="98"/>
			<point x="579" y="98" type="qcurve" smooth="yes"/>
			<point x="703" y="98"/>
			<point x="844" y="305"/>
			<point x="844" y="512" type="qcurve" smooth="yes"/>
			<point x="844" y="705"/>
			<point x="696" y="909"/>
			<point x="580" y="909" type="qcurve" smooth="yes"/>
			<point x="465" y="909"/>
			<point x="333" y="724"/>
		</contour>
	</outline>
</glyph>
<glyph name="florin" format="2">
	<unicode hex="0192"/>
	<advance width="637"/>
	<outline>
		<contour>
			<point x="441" y="2" type="line" smooth="yes"/>
			<point x="444" y="-156"/>
			<point x="272" y="-309"/>
			<point x="172" y="-309" type="qcurve" smooth="yes"/>
			<point x="139" y="-309"/>
			<point x="63" y="-302"/>
			<point x="34" y="-295" type="qcurve" smooth="yes"/>
			<point x="13" y="-290" type="line"/>
			<point x="29" y="-143" type="line"/>
			<point x="53" y="-150" type="line" smooth="yes"/>
			<point x="61" y="-152"/>
			<point x="92" y="-157"/>
			<point x="108" y="-157" type="qcurve" smooth="yes"/>
			<point x="177" y="-157"/>
			<point x="211" y="-73"/>
			<point x="209" y="0" type="qcurve" smooth="yes"/>
			<point x="190" y="830" type="line"/>
			<point x="27" y="842" type="line"/>
			<point x="17" y="986" type="line"/>
			<point x="182" y="1004" type="line"/>
			<point x="179" y="1168" type="line" smooth="yes"/>
			<point x="176" y="1344"/>
			<point x="349" y="1518"/>
			<point x="449" y="1518" type="qcurve" smooth="yes"/>
			<point x="482" y="1518"/>
			<point x="558" y="1509"/>
			<point x="587" y="1504" type="qcurve" smooth="yes"/>
			<point x="608" y="1499" type="line"/>
			<point x="592" y="1352" type="line"/>
			<point x="568" y="1359" type="line" smooth="yes"/>
			<point x="560" y="1361"/>
			<point x="529" y="1366"/>
			<point x="513" y="1366" type="qcurve" smooth="yes"/>
			<point x="444" y="1366"/>
			<point x="408" y="1302"/>
			<point x="412" y="1229" type="qcurve" smooth="yes"/>
			<point x="424" y="1005" type="line"/>
			<point x="601" y="1005" type="line"/>
			<point x="601" y="853" type="line"/>
			<point x="424" y="842" type="line"/>
		</contour>
	</outline>
</glyph>
<glyph name="schwa" format="2">
	<unicode hex="0259"/>
	<advance width="1051"/>
	<outline>
		<contour>
			<point x="995" y="500" type="qcurve" smooth="yes"/>
			<point x="995" y="283"/>
			<point x="720" y="-22"/>
			<point x="507" y="-22" type="qcurve" smooth="yes"/>
			<point x="312" y="-22"/>
			<point x="60" y="206"/>
			<point x="60" y="412" type="qcurve" smooth="yes"/>
			<point x="60" y="504" type="line"/>
			<point x="832" y="504" type="line"/>
			<point x="832" y="378" type="line"/>
			<point x="327" y="378" type="line"/>
			<point x="328" y="259"/>
			<point x="400" y="121"/>
			<point x="506" y="121" type="qcurve" smooth="yes"/>
			<point x="612" y="121"/>
			<point x="721" y="318"/>
			<point x="721" y="488" type="qcurve" smooth="yes"/>
			<point x="720" y="678"/>
			<point x="572" y="877"/>
			<point x="434" y="877" type="qcurve" smooth="yes"/>
			<point x="349" y="877"/>
			<point x="226" y="818"/>
			<point x="171" y="750" type="qcurve"/>
			<point x="90" y="854" type="line"/>
			<point x="150" y="930"/>
			<point x="339" y="1022"/>
			<point x="501" y="1022" type="qcurve" smooth="yes"/>
			<point x="713" y="1022"/>
			<point x="995" y="751"/>
		</contour>
	</outline>
</glyph>
<glyph name="ring" format="2">
	<unicode hex="02DA"/>
	<advance width="1024"/>
	<outline>
		<contour>
			<point x="268" y="1357" type="qcurve" smooth="yes"/>
			<point x="268" y="1455"/>
			<point x="410" y="1591"/>
			<point x="512" y="1591" type="qcurve" smooth="yes"/>
			<point x="614" y="1591"/>
			<point x="756" y="1455"/>
			<point x="756" y="1357" type="qcurve" smooth="yes"/>
			<point x="756" y="1260"/>
			<point x="614" y="1123"/>
			<point x="512" y="1123" type="qcurve" smooth="yes"/>
			<point x="410" y="1123"/>
			<point x="268" y="1260"/>
		</contour>
		<contour>
			<point x="402" y="1357" type="qcurve" smooth="yes"/>
			<point x="402" y="1308"/>
			<point x="462" y="1247"/>
			<point x="512" y="1247" type="qcurve" smooth="yes"/>
			<point x="565" y="1247"/>
			<point x="622" y="1303"/>
			<point x="622" y="1357" type="qcurve" smooth="yes"/>
			<point x="622" y="1406"/>
			<point x="562" y="1468"/>
			<point x="512" y="1468" type="qcurve" smooth="yes"/>
			<point x="459" y="1468"/>
			<point x="402" y="1411"/>
		</contour>
	</outline>
</glyph>
<glyph name="ogonek" format="2">
  <advance width="1024"/>
  <unicode hex="02DB"/>
  <outline>
    <contour>
      <point x="448" y="-244" type="qcurve" smooth="yes"/>
      <point x="448" y="-280"/>
      <point x="493" y="-313"/>
      <point x="535" y="-313" type="qcurve" smooth="yes"/>
      <point x="590" y="-313"/>
      <point x="707" y="-274"/>
      <point x="760" y="-232" type="qcurve"/>
      <point x="833" y="-349" type="line"/>
      <point x="794" y="-395"/>
      <point x="627" y="-482"/>
      <point x="505" y="-482.0" type="qcurve" smooth="yes"/>
      <point x="387" y="-482"/>
      <point x="261" y="-384"/>
      <point x="261" y="-298" type="qcurve" smooth="yes"/>
      <point x="261" y="-205"/>
      <point x="391" y="-36"/>
      <point x="477" y="30" type="qcurve" smooth="yes"/>
      <point x="504" y="51" type="line"/>
      <point x="593" y="-3" type="line"/>
      <point x="575" y="-21" type="line" smooth="yes"/>
      <point x="502" y="-97"/>
      <point x="448" y="-194"/>
    </contour>
  </outline>
</glyph>
<glyph name="hookabovecomb" format="2">
  <advance width="1024"/>
  <unicode hex="0309"/>
  <anchor x="512.0" y="1000" name="_top"/>
  <anchor x="512.0" y="1628.0" name="top"/>
  <outline>
    <contour>
      <point x="388" y="1155" type="line"/>
      <point x="388" y="1259" type="line"/>
      <point x="459" y="1355" type="line"/>
      <point x="477" y="1349"/>
      <point x="522" y="1342"/>
      <point x="536" y="1342" type="qcurve" smooth="yes"/>
      <point x="580" y="1342"/>
      <point x="621.0" y="1379.0"/>
      <point x="621" y="1408" type="qcurve" smooth="yes"/>
      <point x="621" y="1437"/>
      <point x="572" y="1462"/>
      <point x="522" y="1462" type="qcurve" smooth="yes"/>
      <point x="473" y="1462"/>
      <point x="370" y="1435"/>
      <point x="338" y="1416" type="qcurve"/>
      <point x="281" y="1565" type="line"/>
      <point x="340" y="1594"/>
      <point x="469" y="1628"/>
      <point x="550" y="1628" type="qcurve" smooth="yes"/>
      <point x="654" y="1628"/>
      <point x="801" y="1515"/>
      <point x="801" y="1405" type="qcurve" smooth="yes"/>
      <point x="801" y="1313"/>
      <point x="693" y="1199"/>
      <point x="613" y="1199" type="qcurve" smooth="yes"/>
      <point x="585" y="1199"/>
      <point x="539" y="1206"/>
      <point x="523" y="1210" type="qcurve"/>
      <point x="523" y="1155" type="line"/>
    </contour>
  </outline>
</glyph>
<glyph name="breveinvertedcomb" format="2">
  <advance width="1024"/>
  <unicode hex="030F"/>
  <anchor x="512.0" y="1000" name="_top"/>
  <anchor x="512.0" y="1524.0" name="top"/>
  <outline>
    <contour>
      <point x="260" y="1181" type="qcurve"/>
      <point x="144" y="1231" type="line"/>
      <point x="158" y="1333"/>
      <point x="368" y="1523"/>
      <point x="511" y="1523" type="qcurve" smooth="yes"/>
      <point x="654" y="1523"/>
      <point x="860" y="1355"/>
      <point x="880" y="1234" type="qcurve"/>
      <point x="759" y="1180.0" type="line"/>
      <point x="729" y="1237"/>
      <point x="601" y="1333"/>
      <point x="510" y="1334" type="qcurve" smooth="yes"/>
      <point x="416" y="1333"/>
      <point x="286" y="1235"/>
    </contour>
  </outline>
</glyph>
<glyph name="dblgravecomb" format="2">
  <advance width="1024"/>
  <unicode hex="0311"/>
  <anchor x="512.0" y="1000" name="_top"/>
  <anchor x="512.0" y="1585.0" name="top"/>
  <outline>
    <contour>
      <point x="103" y="1487" type="qcurve"/>
      <point x="103" y="1533"/>
      <point x="168" y="1585"/>
      <point x="209" y="1585" type="qcurve" smooth="yes"/>
      <point x="257" y="1585"/>
      <point x="321" y="1518"/>
      <point x="359" y="1464" type="qcurve" smooth="yes"/>
      <point x="531" y="1220" type="line"/>
      <point x="430" y="1142" type="line"/>
      <point x="204" y="1334" type="line" smooth="yes"/>
      <point x="165" y="1367"/>
      <point x="103" y="1443"/>
    </contour>
    <contour>
      <point x="503" y="1487" type="qcurve"/>
      <point x="503" y="1533"/>
      <point x="568" y="1585"/>
      <point x="609" y="1585" type="qcurve" smooth="yes"/>
      <point x="657" y="1585"/>
      <point x="721" y="1518"/>
      <point x="759" y="1463" type="qcurve" smooth="yes"/>
      <point x="928" y="1221" type="line"/>
      <point x="830" y="1142" type="line"/>
      <point x="604" y="1336" type="line" smooth="yes"/>
      <point x="564" y="1370"/>
      <point x="503" y="1443"/>
    </contour>
  </outline>
</glyph>
<glyph name="horncomb" format="2">
  <advance width="1024"/>
  <unicode hex="031B"/>
  <anchor x="0" y="1000" name="_topright"/>
  <anchor x="0.0" y="1256" name="topright"/>
  <outline>
    <contour>
      <point x="0" y="1000" type="line"/>
      <point x="25" y="1000.0"/>
      <point x="51" y="1000.0"/>
      <point x="76" y="1000" type="qcurve" smooth="yes"/>
      <point x="142" y="1000"/>
      <point x="188" y="1043"/>
      <point x="188" y="1085" type="qcurve" smooth="yes"/>
      <point x="188" y="1120"/>
      <point x="176" y="1208"/>
      <point x="166" y="1256" type="qcurve"/>
      <point x="297" y="1256" type="line"/>
      <point x="321" y="1206"/>
      <point x="353" y="1106"/>
      <point x="353" y="1050" type="qcurve" smooth="yes"/>
      <point x="353" y="973"/>
      <point x="243" y="864"/>
      <point x="145" y="864" type="qcurve" smooth="yes"/>
      <point x="96" y="864"/>
      <point x="23" y="880"/>
      <point x="0" y="889" type="qcurve"/>
    </contour>
  </outline>
</glyph>
<glyph name="dotbelowcomb" format="2">
  <advance width="1024"/>
  <unicode hex="0323"/>
  <anchor x="512.0" y="0" name="_bottom"/>
  <anchor x="512.0" y="-441.0" name="bottom"/>
  <outline>
    <contour>
      <point x="376" y="-306" type="qcurve" smooth="yes"/>
      <point x="376" y="-243"/>
      <point x="445" y="-172"/>
      <point x="512" y="-172" type="qcurve" smooth="yes"/>
      <point x="575" y="-172"/>
      <point x="648" y="-247"/>
      <point x="648" y="-306" type="qcurve" smooth="yes"/>
      <point x="648" y="-371"/>
      <point x="579" y="-441"/>
      <point x="512" y="-441" type="qcurve" smooth="yes"/>
      <point x="449" y="-441"/>
      <point x="376" y="-366"/>
    </contour>
  </outline>
</glyph>
<glyph name="dieresisbelowcomb" format="2">
  <advance width="1024"/>
  <unicode hex="0324"/>
  <anchor x="512.0" y="0" name="_bottom"/>
  <anchor x="512.0" y="-462" name="bottom"/>
  <outline>
    <contour>
      <point x="143" y="-328" type="qcurve" smooth="yes"/>
      <point x="143" y="-263"/>
      <point x="215" y="-193"/>
      <point x="282" y="-193" type="qcurve" smooth="yes"/>
      <point x="345" y="-193"/>
      <point x="421" y="-267"/>
      <point x="421" y="-328" type="qcurve" smooth="yes"/>
      <point x="421" y="-392"/>
      <point x="350" y="-462"/>
      <point x="282" y="-462" type="qcurve" smooth="yes"/>
      <point x="219" y="-462"/>
      <point x="143" y="-389"/>
    </contour>
    <contour>
      <point x="603" y="-328" type="qcurve" smooth="yes"/>
      <point x="603" y="-263"/>
      <point x="675" y="-193"/>
      <point x="742" y="-193" type="qcurve" smooth="yes"/>
      <point x="805" y="-193"/>
      <point x="881" y="-267"/>
      <point x="881" y="-328" type="qcurve" smooth="yes"/>
      <point x="881" y="-392"/>
      <point x="810" y="-462"/>
      <point x="742" y="-462" type="qcurve" smooth="yes"/>
      <point x="679" y="-462"/>
      <point x="603" y="-389"/>
    </contour>
  </outline>
</glyph>
<glyph name="commaaccentcomb" format="2">
  <advance width="1024"/>
  <unicode hex="0326"/>
  <anchor x="512.0" y="0" name="_bottom"/>
  <anchor x="512.0" y="-702.0" name="bottom"/>
  <outline>
    <contour>
      <point x="352" y="-629" type="line"/>
      <point x="392" y="-599"/>
      <point x="497" y="-492"/>
      <point x="510" y="-442" type="qcurve"/>
      <point x="445" y="-440"/>
      <point x="372" y="-365"/>
      <point x="372" y="-303" type="qcurve" smooth="yes"/>
      <point x="372" y="-241"/>
      <point x="457" y="-152"/>
      <point x="524" y="-152" type="qcurve" smooth="yes"/>
      <point x="586" y="-152"/>
      <point x="676" y="-232"/>
      <point x="676" y="-312" type="qcurve" smooth="yes"/>
      <point x="676" y="-440"/>
      <point x="510" y="-643"/>
      <point x="415" y="-702" type="qcurve"/>
    </contour>
  </outline>
</glyph>
<glyph name="brevebelowcomb" format="2">
  <advance width="1024"/>
  <unicode hex="032E"/>
  <anchor x="512.0" y="0" name="_bottom"/>
  <anchor x="512.0" y="-474" name="bottom"/>
  <outline>
    <contour>
      <point x="767" y="-115" type="qcurve"/>
      <point x="905" y="-201" type="line"/>
      <point x="864" y="-288"/>
      <point x="656" y="-474"/>
      <point x="513" y="-474" type="qcurve" smooth="yes"/>
      <point x="370" y="-474"/>
      <point x="166" y="-305"/>
      <point x="121" y="-200" type="qcurve"/>
      <point x="259" y="-115" type="line"/>
      <point x="291" y="-165"/>
      <point x="418" y="-261"/>
      <point x="514" y="-262" type="qcurve" smooth="yes"/>
      <point x="613" y="-261"/>
      <point x="741" y="-171"/>
    </contour>
  </outline>
</glyph>
<glyph name="macronbelowcomb" format="2">
  <advance width="1024"/>
  <unicode hex="0331"/>
  <anchor x="512.0" y="0" name="_bottom"/>
  <anchor x="512.0" y="-319" name="bottom"/>
  <outline>
    <contour>
      <point x="206" y="-319" type="line"/>
      <point x="206" y="-133" type="line"/>
      <point x="818" y="-133" type="line"/>
      <point x="818" y="-319" type="line"/>
    </contour>
  </outline>
</glyph>
<glyph name="numeralsign" format="2">
  <advance width="349"/>
  <unicode hex="0374"/>
  <outline>
    <contour>
      <point x="112" y="887" type="line"/>
      <point x="3" y="918" type="line"/>
      <point x="86" y="1500" type="line"/>
      <point x="267" y="1484" type="line"/>
      <point x="337" y="1429" type="line"/>
    </contour>
  </outline>
</glyph>
<glyph name="Gamma" format="2">
	<unicode hex="0393"/>
	<advance width="1136"/>
	<outline>
		<contour>
			<point x="82" y="0" type="line"/>
			<point x="82" y="120" type="line"/>
			<point x="240" y="157" type="line"/>
			<point x="242" y="760" type="line"/>
			<point x="240" y="1332" type="line"/>
			<point x="82" y="1366" type="line"/>
			<point x="82" y="1500" type="line"/>
			<point x="1096" y="1500" type="line"/>
			<point x="1096" y="1048" type="line"/>
			<point x="924" y="1048" type="line"/>
			<point x="888" y="1362" type="line"/>
			<point x="550" y="1362" type="line"/>
			<point x="520" y="1342" type="line"/>
			<point x="518" y="740" type="line"/>
			<point x="520" y="152" type="line"/>
			<point x="698" y="120" type="line"/>
			<point x="698" y="0" type="line"/>
		</contour>
	</outline>
</glyph>
<glyph name="Phi" format="2">
  <advance width="1639"/>
  <unicode hex="03A6"/>
  <outline>
    <contour>
      <point x="542" y="-30" type="line"/>
      <point x="542" y="91" type="line"/>
      <point x="681" y="127" type="line"/>
      <point x="680" y="301" type="line"/>
      <point x="689" y="301" type="line"/>
      <point x="691" y="740" type="line"/>
      <point x="951" y="740" type="line"/>
      <point x="953" y="302" type="line"/>
      <point x="962" y="301" type="line"/>
      <point x="964" y="127" type="line"/>
      <point x="1110" y="90" type="line"/>
      <point x="1110" y="-30" type="line"/>
    </contour>
    <contour>
      <point x="691" y="740" type="line"/>
      <point x="689" y="1186" type="line"/>
      <point x="680" y="1187" type="line"/>
      <point x="677" y="1352" type="line"/>
      <point x="533" y="1386" type="line"/>
      <point x="533" y="1520" type="line"/>
      <point x="1109" y="1520" type="line"/>
      <point x="1109" y="1386" type="line"/>
      <point x="964" y="1352" type="line"/>
      <point x="962" y="1187" type="line"/>
      <point x="953" y="1187" type="line"/>
      <point x="951" y="740" type="line"/>
    </contour>
    <contour>
      <point x="754" y="220" type="line"/>
      <point x="392" y="223"/>
      <point x="42" y="499"/>
      <point x="42" y="731" type="qcurve" smooth="yes"/>
      <point x="42" y="977"/>
      <point x="401" y="1261"/>
      <point x="754" y="1269" type="qcurve"/>
      <point x="754" y="1125" type="line"/>
      <point x="539" y="1123"/>
      <point x="337" y="932"/>
      <point x="337" y="737" type="qcurve" smooth="yes"/>
      <point x="337" y="551"/>
      <point x="542" y="360"/>
      <point x="754" y="360" type="qcurve"/>
    </contour>
    <contour>
      <point x="885" y="220" type="qcurve"/>
      <point x="885" y="359" type="line"/>
      <point x="1104" y="361"/>
      <point x="1304" y="558"/>
      <point x="1304" y="754" type="qcurve" smooth="yes"/>
      <point x="1304" y="939"/>
      <point x="1100" y="1123"/>
      <point x="885" y="1124" type="qcurve"/>
      <point x="885" y="1269" type="line"/>
      <point x="1246" y="1266"/>
      <point x="1596" y="991"/>
      <point x="1596" y="759" type="qcurve" smooth="yes"/>
      <point x="1596" y="513"/>
      <point x="1239" y="228"/>
    </contour>
  </outline>
</glyph>
<glyph name="beta" format="2">
  <advance width="1234"/>
  <unicode hex="03B2"/>
  <outline>
    <contour>
      <point x="214" y="-480" type="line"/>
      <point x="145" y="-426" type="line"/>
      <point x="161" y="131" type="line"/>
      <point x="161" y="982" type="line" smooth="yes"/>
      <point x="161" y="1265"/>
      <point x="408" y="1534"/>
      <point x="622" y="1534" type="qcurve" smooth="yes"/>
      <point x="841" y="1534"/>
      <point x="1059" y="1321"/>
      <point x="1059" y="1168" type="qcurve" smooth="yes"/>
      <point x="1059" y="990"/>
      <point x="797" y="721"/>
      <point x="584" y="687" type="qcurve" smooth="yes"/>
      <point x="546" y="681" type="line"/>
      <point x="477" y="735" type="line"/>
      <point x="573" y="913" type="line"/>
      <point x="634" y="906" type="line" smooth="yes"/>
      <point x="901" y="875"/>
      <point x="1166" y="653"/>
      <point x="1166" y="458" type="qcurve" smooth="yes"/>
      <point x="1166" y="250"/>
      <point x="923" y="-22"/>
      <point x="693" y="-22" type="qcurve"/>
      <point x="564" y="-22"/>
      <point x="382" y="89"/>
      <point x="321" y="196" type="qcurve"/>
      <point x="321" y="269" type="line"/>
      <point x="394" y="269" type="line"/>
      <point x="434" y="190"/>
      <point x="580" y="120"/>
      <point x="652" y="120" type="qcurve" smooth="yes"/>
      <point x="759" y="120"/>
      <point x="898" y="291"/>
      <point x="898" y="438" type="qcurve" smooth="yes"/>
      <point x="898" y="611"/>
      <point x="756" y="784"/>
      <point x="644" y="788" type="qcurve"/>
      <point x="659" y="834" type="line"/>
      <point x="732" y="847"/>
      <point x="834" y="1003"/>
      <point x="834" y="1151" type="qcurve" smooth="yes"/>
      <point x="834" y="1257"/>
      <point x="737" y="1386"/>
      <point x="637" y="1386" type="qcurve" smooth="yes"/>
      <point x="532" y="1386"/>
      <point x="417" y="1237"/>
      <point x="417" y="1017" type="qcurve" smooth="yes"/>
      <point x="417" y="129" type="line"/>
      <point x="428" y="-453" type="line"/>
    </contour>
  </outline>
</glyph>
<glyph name="eta" format="2">
  <advance width="1221"/>
  <unicode hex="03B7"/>
  <anchor x="525" y="1000" name="GRKtop"/>
  <outline>
    <contour>
      <point x="857" y="-480" type="line"/>
      <point x="788" y="-426" type="line"/>
      <point x="804" y="375" type="line"/>
      <point x="804" y="661" type="line" smooth="yes"/>
      <point x="804" y="757"/>
      <point x="719" y="847"/>
      <point x="647" y="847" type="qcurve"/>
      <point x="585" y="847"/>
      <point x="495" y="772"/>
      <point x="463" y="711" type="qcurve"/>
      <point x="461" y="526" type="line"/>
      <point x="475" y="27" type="line"/>
      <point x="261" y="0" type="line"/>
      <point x="192" y="54" type="line"/>
      <point x="212" y="666" type="line"/>
      <point x="211" y="780"/>
      <point x="190" y="826"/>
      <point x="148" y="837" type="qcurve" smooth="yes"/>
      <point x="89" y="852" type="line"/>
      <point x="89" y="966" type="line"/>
      <point x="333" y="1000" type="line"/>
      <point x="391" y="999"/>
      <point x="452" y="938"/>
      <point x="458" y="844" type="qcurve"/>
      <point x="459" y="844" type="line"/>
      <point x="499" y="911"/>
      <point x="662" y="1021"/>
      <point x="772" y="1021" type="qcurve" smooth="yes"/>
      <point x="915" y="1021"/>
      <point x="1059" y="857"/>
      <point x="1063" y="695" type="qcurve" smooth="yes"/>
      <point x="1061" y="392" type="line"/>
      <point x="1071" y="-453" type="line"/>
    </contour>
  </outline>
</glyph>
<glyph name="theta" format="2">
  <advance width="1172"/>
  <unicode hex="03B8"/>
  <outline>
    <contour>
      <point x="582" y="-22" type="qcurve" smooth="yes"/>
      <point x="293" y="-20"/>
      <point x="61" y="350"/>
      <point x="61" y="752" type="qcurve" smooth="yes"/>
      <point x="61" y="1176"/>
      <point x="322" y="1534"/>
      <point x="594" y="1534" type="qcurve" smooth="yes"/>
      <point x="865" y="1534"/>
      <point x="1111" y="1206"/>
      <point x="1111" y="781" type="qcurve" smooth="yes"/>
      <point x="1111" y="368"/>
      <point x="851" y="-24"/>
    </contour>
    <contour>
      <point x="586" y="120" type="qcurve" smooth="yes"/>
      <point x="719" y="120"/>
      <point x="842" y="352"/>
      <point x="842" y="782" type="qcurve" smooth="yes"/>
      <point x="842" y="1149"/>
      <point x="721" y="1386"/>
      <point x="590" y="1386" type="qcurve" smooth="yes"/>
      <point x="450" y="1386"/>
      <point x="332" y="1157"/>
      <point x="333" y="790" type="qcurve" smooth="yes"/>
      <point x="334" y="355"/>
      <point x="451" y="120"/>
    </contour>
    <contour>
      <point x="282" y="638" type="line"/>
      <point x="282" y="887" type="line"/>
      <point x="587" y="825" type="line"/>
      <point x="889" y="887" type="line"/>
      <point x="889" y="638" type="line"/>
      <point x="587" y="700" type="line"/>
    </contour>
  </outline>
</glyph>
<glyph name="nu" format="2">
  <advance width="1017"/>
  <unicode hex="03BD"/>
  <outline>
    <contour>
      <point x="436" y="-10" type="line"/>
      <point x="251" y="475" type="line"/>
      <point x="130" y="777" type="line" smooth="yes"/>
      <point x="117" y="810"/>
      <point x="95.0" y="827.0"/>
      <point x="62" y="835" type="qcurve" smooth="yes"/>
      <point x="-4" y="851" type="line"/>
      <point x="-4" y="966" type="line"/>
      <point x="229" y="1001" type="line"/>
      <point x="283" y="1001"/>
      <point x="338" y="938"/>
      <point x="364" y="860" type="qcurve" smooth="yes"/>
      <point x="464" y="555" type="line"/>
      <point x="560" y="259" type="line"/>
      <point x="552" y="259" type="line"/>
      <point x="641" y="546" type="line"/>
      <point x="753" y="975" type="line"/>
      <point x="944" y="1000" type="line"/>
      <point x="1013" y="946" type="line"/>
      <point x="816" y="507" type="line"/>
      <point x="598" y="-10" type="line"/>
    </contour>
  </outline>
</glyph>
<glyph name="xi" format="2">
  <advance width="942"/>
  <unicode hex="03BE"/>
  <outline>
    <contour>
      <point x="736" y="-313" type="line"/>
      <point x="714" y="-115" type="line" smooth="yes"/>
      <point x="708" y="-64"/>
      <point x="675" y="-29"/>
      <point x="626" y="-26" type="qcurve" smooth="yes"/>
      <point x="549" y="-21" type="line" smooth="yes"/>
      <point x="290" y="-4"/>
      <point x="54" y="182"/>
      <point x="54" y="365" type="qcurve" smooth="yes"/>
      <point x="54" y="570"/>
      <point x="398" y="819"/>
      <point x="723" y="871" type="qcurve" smooth="yes"/>
      <point x="786" y="881" type="line"/>
      <point x="855" y="827" type="line"/>
      <point x="759" y="649" type="line"/>
      <point x="723" y="653" type="line" smooth="yes"/>
      <point x="402" y="689"/>
      <point x="126" y="860"/>
      <point x="126" y="1018" type="qcurve" smooth="yes"/>
      <point x="126" y="1131"/>
      <point x="266" y="1306"/>
      <point x="405" y="1346" type="qcurve"/>
      <point x="442" y="1324" type="line"/>
      <point x="178" y="1314" type="line"/>
      <point x="109" y="1368" type="line"/>
      <point x="132" y="1534" type="line"/>
      <point x="908" y="1513" type="line"/>
      <point x="908" y="1347" type="line"/>
      <point x="619" y="1324"/>
      <point x="363" y="1170"/>
      <point x="363" y="1033" type="qcurve" smooth="yes"/>
      <point x="363" y="938"/>
      <point x="469" y="812"/>
      <point x="682" y="769" type="qcurve"/>
      <point x="665" y="723" type="line"/>
      <point x="449" y="698"/>
      <point x="327" y="535"/>
      <point x="327" y="405" type="qcurve"/>
      <point x="327" y="301"/>
      <point x="459" y="182"/>
      <point x="655" y="172" type="qcurve" smooth="yes"/>
      <point x="733" y="168" type="line" smooth="yes"/>
      <point x="816" y="164"/>
      <point x="888" y="92"/>
      <point x="889" y="35" type="qcurve"/>
      <point x="862" y="-313" type="line"/>
    </contour>
  </outline>
</glyph>
<glyph name="pi" format="2">
  <advance width="1234"/>
  <unicode hex="03C0"/>
  <outline>
    <contour>
      <point x="1168" y="780" type="line"/>
      <point x="54" y="803" type="line"/>
      <point x="54" y="917" type="line"/>
      <point x="177" y="985" type="line"/>
      <point x="1122" y="1000" type="line"/>
      <point x="1191" y="946" type="line"/>
    </contour>
    <contour>
      <point x="269" y="0" type="line"/>
      <point x="200" y="54" type="line"/>
      <point x="249" y="492" type="line"/>
      <point x="296" y="881" type="line"/>
      <point x="489" y="881" type="line"/>
      <point x="484" y="496" type="line"/>
      <point x="483" y="27" type="line"/>
    </contour>
    <contour>
      <point x="936" y="-8" type="line"/>
      <point x="821" y="-10"/>
      <point x="736" y="107"/>
      <point x="743" y="221" type="qcurve" smooth="yes"/>
      <point x="786" y="881" type="line"/>
      <point x="968" y="881" type="line"/>
      <point x="982" y="252" type="line" smooth="yes"/>
      <point x="983" y="201"/>
      <point x="1044.0" y="149.0"/>
      <point x="1133" y="149" type="qcurve" smooth="yes"/>
      <point x="1156" y="149" type="line"/>
      <point x="1156" y="30" type="line"/>
    </contour>
  </outline>
</glyph>
<glyph name="rho" format="2">
  <advance width="1128"/>
  <unicode hex="03C1"/>
  <outline>
    <contour>
      <point x="143" y="-480" type="line"/>
      <point x="74" y="-426" type="line"/>
      <point x="90" y="100" type="line"/>
      <point x="90" y="473" type="line" smooth="yes"/>
      <point x="90" y="724"/>
      <point x="345" y="1022"/>
      <point x="592" y="1022" type="qcurve" smooth="yes"/>
      <point x="823" y="1022"/>
      <point x="1096" y="743"/>
      <point x="1096" y="514" type="qcurve" smooth="yes"/>
      <point x="1096" y="280"/>
      <point x="818" y="-21"/>
      <point x="594" y="-22" type="qcurve"/>
      <point x="476" y="-22"/>
      <point x="301" y="100"/>
      <point x="250" y="197" type="qcurve"/>
      <point x="250" y="269" type="line"/>
      <point x="323" y="269" type="line"/>
      <point x="361" y="196"/>
      <point x="494" y="120"/>
      <point x="575" y="120" type="qcurve" smooth="yes"/>
      <point x="702" y="120"/>
      <point x="827" y="310"/>
      <point x="827" y="499" type="qcurve" smooth="yes"/>
      <point x="827" y="693"/>
      <point x="700" y="874"/>
      <point x="580" y="874" type="qcurve"/>
      <point x="454" y="874"/>
      <point x="345" y="670"/>
      <point x="347" y="416" type="qcurve"/>
      <point x="347" y="94" type="line"/>
      <point x="357" y="-453" type="line"/>
    </contour>
  </outline>
</glyph>
<glyph name="finalsigma" format="2">
  <advance width="923"/>
  <unicode hex="03C2"/>
  <outline>
    <contour>
      <point x="706" y="-313" type="line"/>
      <point x="686" y="-131" type="line" smooth="yes"/>
      <point x="679" y="-69"/>
      <point x="648" y="-30"/>
      <point x="605" y="-27" type="qcurve" smooth="yes"/>
      <point x="532" y="-22" type="line" smooth="yes"/>
      <point x="282" y="-5"/>
      <point x="54" y="262"/>
      <point x="54" y="489" type="qcurve" smooth="yes"/>
      <point x="54" y="743"/>
      <point x="315" y="1021"/>
      <point x="548" y="1021" type="qcurve"/>
      <point x="675" y="1021"/>
      <point x="846" y="955"/>
      <point x="880" y="923" type="qcurve"/>
      <point x="880" y="611" type="line"/>
      <point x="754" y="611" type="line"/>
      <point x="717" y="832" type="line"/>
      <point x="694" y="854"/>
      <point x="625" y="874"/>
      <point x="577" y="874" type="qcurve" smooth="yes"/>
      <point x="458.0" y="874.0"/>
      <point x="326.0" y="698.0"/>
      <point x="326" y="515" type="qcurve" smooth="yes"/>
      <point x="326" y="374"/>
      <point x="451" y="180"/>
      <point x="622" y="172" type="qcurve" smooth="yes"/>
      <point x="707" y="168" type="line" smooth="yes"/>
      <point x="784" y="164"/>
      <point x="857" y="95"/>
      <point x="859" y="35" type="qcurve"/>
      <point x="832" y="-313" type="line"/>
    </contour>
  </outline>
</glyph>
<glyph name="upsilon" format="2">
  <advance width="1100"/>
  <unicode hex="03C5"/>
  <anchor x="539" y="1000" name="GRKtop"/>
  <outline>
    <contour>
      <point x="571" y="-22" type="qcurve"/>
      <point x="356" y="-22"/>
      <point x="143" y="197"/>
      <point x="151" y="400" type="qcurve" smooth="yes"/>
      <point x="161" y="658" type="line" smooth="yes"/>
      <point x="166" y="776"/>
      <point x="132" y="828"/>
      <point x="89" y="839" type="qcurve" smooth="yes"/>
      <point x="38" y="852" type="line"/>
      <point x="38" y="966" type="line"/>
      <point x="282" y="1000" type="line"/>
      <point x="362" y="998"/>
      <point x="417" y="885"/>
      <point x="414" y="769" type="qcurve" smooth="yes"/>
      <point x="404" y="383" type="line" smooth="yes"/>
      <point x="400" y="244"/>
      <point x="493" y="141"/>
      <point x="578" y="141" type="qcurve"/>
      <point x="682" y="141"/>
      <point x="779" y="290"/>
      <point x="779" y="447" type="qcurve"/>
      <point x="779" y="628"/>
      <point x="714" y="831"/>
      <point x="651" y="924" type="qcurve"/>
      <point x="826" y="1026" type="line"/>
      <point x="936" y="924"/>
      <point x="1050" y="647"/>
      <point x="1049" y="488" type="qcurve" smooth="yes"/>
      <point x="1048" y="241"/>
      <point x="795" y="-22"/>
    </contour>
  </outline>
</glyph>
<glyph name="phi" format="2">
  <advance width="1316"/>
  <unicode hex="03C6"/>
  <outline>
    <contour>
      <point x="611" y="-21" type="line"/>
      <point x="320" y="-13"/>
      <point x="30" y="275"/>
      <point x="30" y="498" type="qcurve" smooth="yes"/>
      <point x="30" y="747"/>
      <point x="342" y="1024"/>
      <point x="620" y="1024" type="qcurve"/>
      <point x="620" y="904" type="line"/>
      <point x="467.0" y="904"/>
      <point x="302" y="700"/>
      <point x="302" y="496" type="qcurve" smooth="yes"/>
      <point x="302" y="302"/>
      <point x="457.0" y="103"/>
      <point x="611" y="103" type="qcurve"/>
    </contour>
    <contour>
      <point x="704" y="-21" type="qcurve"/>
      <point x="704" y="103" type="line"/>
      <point x="857.0" y="103"/>
      <point x="1014" y="302"/>
      <point x="1014" y="496" type="qcurve" smooth="yes"/>
      <point x="1014" y="700"/>
      <point x="849.0" y="904"/>
      <point x="695" y="904" type="qcurve"/>
      <point x="695" y="1024" type="line"/>
      <point x="972" y="1024"/>
      <point x="1286" y="747"/>
      <point x="1286" y="498" type="qcurve" smooth="yes"/>
      <point x="1286" y="275"/>
      <point x="994" y="-13"/>
    </contour>
    <contour>
      <point x="583" y="-480" type="line"/>
      <point x="514" y="-426" type="line"/>
      <point x="528" y="45" type="line"/>
      <point x="539" y="45" type="line"/>
      <point x="557" y="954" type="line"/>
      <point x="552" y="954" type="line"/>
      <point x="554" y="1516" type="line"/>
      <point x="698" y="1534" type="line"/>
      <point x="761" y="1486" type="line"/>
      <point x="763" y="954" type="line"/>
      <point x="758" y="954" type="line"/>
      <point x="778" y="45" type="line"/>
      <point x="788" y="45" type="line"/>
      <point x="797" y="-453" type="line"/>
    </contour>
  </outline>
</glyph>
<glyph name="omega" format="2">
  <advance width="1468"/>
  <unicode hex="03C9"/>
  <anchor x="735" y="1000" name="GRKtop"/>
  <outline>
    <contour>
      <point x="473.0" y="-23" type="qcurve" smooth="yes"/>
      <point x="264.0" y="-23"/>
      <point x="64.0" y="227"/>
      <point x="64.0" y="434" type="qcurve" smooth="yes"/>
      <point x="64.0" y="615.0"/>
      <point x="241.0" y="943"/>
      <point x="398.0" y="1011" type="qcurve"/>
      <point x="526.0" y="928" type="line"/>
      <point x="448.0" y="850"/>
      <point x="336.0" y="599"/>
      <point x="336.0" y="423" type="qcurve" smooth="yes"/>
      <point x="336.0" y="253"/>
      <point x="426.0" y="118"/>
      <point x="511.0" y="118" type="qcurve" smooth="yes"/>
      <point x="620.0" y="118"/>
      <point x="698.0" y="368"/>
      <point x="703.0" y="525" type="qcurve"/>
      <point x="765.0" y="525" type="line"/>
      <point x="777.0" y="322"/>
      <point x="862.0" y="118"/>
      <point x="951.0" y="118" type="qcurve" smooth="yes"/>
      <point x="1037.0" y="118"/>
      <point x="1133.0" y="254"/>
      <point x="1133.0" y="436" type="qcurve" smooth="yes"/>
      <point x="1133.0" y="617"/>
      <point x="1013.0" y="853"/>
      <point x="941.0" y="923" type="qcurve"/>
      <point x="1116.0" y="1026" type="line"/>
      <point x="1230.0" y="950"/>
      <point x="1405.0" y="660"/>
      <point x="1405.0" y="443" type="qcurve"/>
      <point x="1405.0" y="219"/>
      <point x="1193.0" y="-23"/>
      <point x="1012.0" y="-23" type="qcurve" smooth="yes"/>
      <point x="799.0" y="-23"/>
      <point x="612.0" y="310"/>
      <point x="604.0" y="600" type="qcurve" smooth="yes"/>
      <point x="602.0" y="675" type="line"/>
      <point x="796.0" y="702" type="line"/>
      <point x="865.0" y="648" type="line"/>
      <point x="864.0" y="571" type="line" smooth="yes"/>
      <point x="861.0" y="308"/>
      <point x="671.0" y="-23"/>
    </contour>
  </outline>
</glyph>
<glyph name="Lje" format="2">
  <advance width="2058"/>
  <unicode hex="0409"/>
  <outline>
    <contour>
      <point x="1734" y="443" type="qcurve" smooth="yes"/>
      <point x="1734" y="588"/>
      <point x="1586" y="748"/>
      <point x="1426" y="748" type="qcurve"/>
      <point x="1294" y="748" type="line"/>
      <point x="1285" y="734" type="line"/>
      <point x="1285" y="159" type="line"/>
      <point x="1319" y="139" type="line"/>
      <point x="1411" y="139" type="line" smooth="yes"/>
      <point x="1575" y="139"/>
      <point x="1734" y="284"/>
    </contour>
    <contour>
      <point x="1286" y="1332" type="line"/>
      <point x="1286" y="924" type="line"/>
      <point x="1295" y="910" type="line"/>
      <point x="1482" y="910" type="line" smooth="yes"/>
      <point x="1727" y="910"/>
      <point x="2021" y="691"/>
      <point x="2021" y="469" type="qcurve" smooth="yes"/>
      <point x="2021" y="253"/>
      <point x="1769.0" y="0.0"/>
      <point x="1532" y="0" type="qcurve" smooth="yes"/>
      <point x="846" y="0" type="line"/>
      <point x="846" y="120" type="line"/>
      <point x="1000" y="155" type="line"/>
      <point x="1002" y="736" type="line"/>
      <point x="1000" y="1334" type="line"/>
      <point x="960" y="1362" type="line"/>
      <point x="653" y="1362" type="line"/>
      <point x="613" y="1334" type="line"/>
      <point x="561" y="754" type="line" smooth="yes"/>
      <point x="518" y="278"/>
      <point x="336" y="-17"/>
      <point x="123" y="-17" type="qcurve" smooth="yes"/>
      <point x="85" y="-17"/>
      <point x="29" y="-8"/>
      <point x="0" y="0" type="qcurve"/>
      <point x="0" y="243" type="line"/>
      <point x="24" y="235"/>
      <point x="64" y="230"/>
      <point x="85" y="230" type="qcurve" smooth="yes"/>
      <point x="246" y="230"/>
      <point x="356" y="470"/>
      <point x="382" y="754" type="qcurve" smooth="yes"/>
      <point x="434" y="1332" type="line"/>
      <point x="226" y="1366" type="line"/>
      <point x="226" y="1500" type="line"/>
      <point x="1442" y="1500" type="line"/>
      <point x="1442" y="1366" type="line"/>
    </contour>
  </outline>
</glyph>
<glyph name="Tshe" format="2">
  <advance width="1806"/>
  <unicode hex="040B"/>
  <outline>
    <contour>
      <point x="1742" y="120" type="line"/>
      <point x="1742" y="0" type="line"/>
      <point x="1270" y="0" type="line"/>
      <point x="1272" y="416" type="line" smooth="yes"/>
      <point x="1273" y="599"/>
      <point x="1099" y="730"/>
      <point x="956" y="730" type="qcurve" smooth="yes"/>
      <point x="883" y="730"/>
      <point x="708" y="691"/>
      <point x="624" y="657" type="qcurve"/>
      <point x="624" y="806" type="line"/>
      <point x="707" y="844"/>
      <point x="905" y="898"/>
      <point x="1044" y="898" type="qcurve" smooth="yes"/>
      <point x="1273" y="898"/>
      <point x="1558" y="702"/>
      <point x="1558" y="439" type="qcurve" smooth="yes"/>
      <point x="1558" y="155" type="line"/>
    </contour>
    <contour>
      <point x="30" y="1052" type="line"/>
      <point x="30" y="1500" type="line"/>
      <point x="1258" y="1500" type="line"/>
      <point x="1258" y="1092" type="line"/>
      <point x="1108" y="1092" type="line"/>
      <point x="1073" y="1362" type="line"/>
      <point x="783" y="1362" type="line"/>
      <point x="764" y="1342" type="line"/>
      <point x="762" y="754" type="line"/>
      <point x="764" y="156" type="line"/>
      <point x="953" y="120" type="line"/>
      <point x="953" y="0" type="line"/>
      <point x="315" y="0" type="line"/>
      <point x="315" y="120" type="line"/>
      <point x="484" y="156" type="line"/>
      <point x="486" y="754" type="line"/>
      <point x="484" y="1342" type="line"/>
      <point x="475" y="1362" type="line"/>
      <point x="215" y="1362" type="line"/>
      <point x="180" y="1052" type="line"/>
    </contour>
  </outline>
</glyph>
<glyph name="Be" format="2">
  <advance width="1288"/>
  <unicode hex="0411"/>
  <outline>
    <contour>
      <point x="947" y="443" type="qcurve" smooth="yes"/>
      <point x="947" y="598"/>
      <point x="783" y="728"/>
      <point x="644" y="728" type="qcurve" smooth="yes"/>
      <point x="529" y="728" type="line"/>
      <point x="520" y="714" type="line"/>
      <point x="522" y="157" type="line"/>
      <point x="556" y="135" type="line"/>
      <point x="625" y="135" type="line" smooth="yes"/>
      <point x="792" y="135"/>
      <point x="947" y="274"/>
    </contour>
    <contour>
      <point x="82" y="0" type="line"/>
      <point x="82" y="120" type="line"/>
      <point x="237" y="156" type="line"/>
      <point x="239" y="736" type="line"/>
      <point x="237" y="1332" type="line"/>
      <point x="82" y="1366" type="line"/>
      <point x="82" y="1500" type="line"/>
      <point x="1116" y="1500" type="line"/>
      <point x="1116" y="1142" type="line"/>
      <point x="966" y="1142" type="line"/>
      <point x="931" y="1362" type="line"/>
      <point x="553" y="1362" type="line"/>
      <point x="523" y="1342" type="line"/>
      <point x="520" y="895" type="line"/>
      <point x="529" y="881" type="line"/>
      <point x="690" y="881" type="line" smooth="yes"/>
      <point x="958" y="881"/>
      <point x="1233" y="665"/>
      <point x="1233" y="453" type="qcurve" smooth="yes"/>
      <point x="1233" y="227"/>
      <point x="953" y="0"/>
      <point x="753" y="0" type="qcurve" smooth="yes"/>
    </contour>
  </outline>
</glyph>
<glyph name="Zhe" format="2">
  <advance width="2082"/>
  <unicode hex="0416"/>
  <anchor x="1041" y="0" name="bottom"/>
  <anchor x="1041.0" y="1500" name="top"/>
  <outline>
    <contour>
      <point x="732" y="0" type="line"/>
      <point x="732" y="120" type="line"/>
      <point x="895" y="155" type="line"/>
      <point x="897" y="754" type="line"/>
      <point x="895" y="1332" type="line"/>
      <point x="732" y="1366" type="line"/>
      <point x="732" y="1500" type="line"/>
      <point x="1348" y="1500" type="line"/>
      <point x="1348" y="1366" type="line"/>
      <point x="1185" y="1332" type="line"/>
      <point x="1183" y="754" type="line"/>
      <point x="1185" y="155" type="line"/>
      <point x="1348" y="120" type="line"/>
      <point x="1348" y="0" type="line"/>
    </contour>
    <contour>
      <point x="1036" y="683" type="line"/>
      <point x="1036" y="865" type="line"/>
      <point x="1306" y="868" type="line"/>
      <point x="1641" y="1318" type="line"/>
      <point x="1509" y="1366" type="line"/>
      <point x="1509" y="1500" type="line"/>
      <point x="2056" y="1500" type="line"/>
      <point x="2056" y="1366" type="line"/>
      <point x="1888" y="1318" type="line"/>
      <point x="1448" y="745" type="line"/>
      <point x="1366" y="683" type="line"/>
    </contour>
    <contour>
      <point x="1272" y="716" type="line"/>
      <point x="1431" y="941" type="line"/>
      <point x="2030" y="155" type="line"/>
      <point x="2137" y="120" type="line"/>
      <point x="2137" y="0" type="line"/>
      <point x="1574" y="0" type="line"/>
      <point x="1574" y="120" type="line"/>
      <point x="1692" y="155" type="line"/>
    </contour>
    <contour>
      <point x="1036" y="683" type="line"/>
      <point x="756" y="683" type="line"/>
      <point x="629" y="745" type="line"/>
      <point x="186" y="1318" type="line"/>
      <point x="18" y="1366" type="line"/>
      <point x="18" y="1500" type="line"/>
      <point x="571" y="1500" type="line"/>
      <point x="571" y="1366" type="line"/>
      <point x="447" y="1318" type="line"/>
      <point x="780" y="868" type="line"/>
      <point x="1036" y="865" type="line"/>
    </contour>
    <contour>
      <point x="820" y="716" type="line"/>
      <point x="408" y="155" type="line"/>
      <point x="518" y="120" type="line"/>
      <point x="518" y="0" type="line"/>
      <point x="-55" y="0" type="line"/>
      <point x="-55" y="120" type="line"/>
      <point x="72" y="155" type="line"/>
      <point x="646" y="920" type="line"/>
    </contour>
  </outline>
</glyph>
<glyph name="Icyr" format="2">
  <advance width="1760"/>
  <unicode hex="0418"/>
  <anchor x="880" y="0" name="bottom"/>
  <anchor x="880.0" y="1500" name="top"/>
  <outline>
    <contour>
      <point x="1082" y="0" type="line"/>
      <point x="1082" y="120" type="line"/>
      <point x="1237" y="155" type="line"/>
      <point x="1239" y="754" type="line"/>
      <point x="1237" y="1332" type="line"/>
      <point x="1082" y="1366" type="line"/>
      <point x="1082" y="1500" type="line"/>
      <point x="1678" y="1500" type="line"/>
      <point x="1678" y="1366" type="line"/>
      <point x="1523" y="1332" type="line"/>
      <point x="1521" y="754" type="line"/>
      <point x="1523" y="155" type="line"/>
      <point x="1678" y="120" type="line"/>
      <point x="1678" y="0" type="line"/>
    </contour>
    <contour>
      <point x="82" y="0" type="line"/>
      <point x="82" y="120" type="line"/>
      <point x="237" y="155" type="line"/>
      <point x="239" y="754" type="line"/>
      <point x="237" y="1332" type="line"/>
      <point x="82" y="1366" type="line"/>
      <point x="82" y="1500" type="line"/>
      <point x="678" y="1500" type="line"/>
      <point x="678" y="1366" type="line"/>
      <point x="523" y="1332" type="line"/>
      <point x="521" y="754" type="line"/>
      <point x="523" y="155" type="line"/>
      <point x="678" y="120" type="line"/>
      <point x="678" y="0" type="line"/>
    </contour>
    <contour>
      <point x="482" y="204" type="line"/>
      <point x="344" y="329" type="line"/>
      <point x="816" y="810" type="line"/>
      <point x="1282" y="1286" type="line"/>
      <point x="1420" y="1161" type="line"/>
      <point x="946" y="676" type="line"/>
    </contour>
  </outline>
</glyph>
<glyph name="Ka" format="2">
  <advance width="1441"/>
  <unicode hex="041A"/>
  <anchor x="812.0" y="0" name="bottom"/>
  <anchor x="770.0" y="1500" name="top"/>
  <outline>
    <contour>
      <point x="72" y="0" type="line"/>
      <point x="72" y="120" type="line"/>
      <point x="240" y="155" type="line"/>
      <point x="242" y="754" type="line"/>
      <point x="240" y="1332" type="line"/>
      <point x="72" y="1366" type="line"/>
      <point x="72" y="1500" type="line"/>
      <point x="678" y="1500" type="line"/>
      <point x="678" y="1366" type="line"/>
      <point x="520" y="1332" type="line"/>
      <point x="518" y="754" type="line"/>
      <point x="520" y="155" type="line"/>
      <point x="688" y="120" type="line"/>
      <point x="688" y="0" type="line"/>
    </contour>
    <contour>
      <point x="380" y="696" type="line"/>
      <point x="380" y="868" type="line"/>
      <point x="636" y="864" type="line"/>
      <point x="991" y="1318" type="line"/>
      <point x="864" y="1366" type="line"/>
      <point x="864" y="1500" type="line"/>
      <point x="1420" y="1500" type="line"/>
      <point x="1420" y="1366" type="line"/>
      <point x="1232" y="1318" type="line"/>
      <point x="773" y="745" type="line"/>
      <point x="731" y="696" type="line"/>
    </contour>
    <contour>
      <point x="587" y="716" type="line"/>
      <point x="783" y="913" type="line"/>
      <point x="1369" y="155" type="line"/>
      <point x="1496" y="120" type="line"/>
      <point x="1496" y="0" type="line"/>
      <point x="903" y="0" type="line"/>
      <point x="903" y="120" type="line"/>
      <point x="1021" y="155" type="line"/>
    </contour>
  </outline>
</glyph>
<glyph name="Ucyr" format="2">
  <advance width="1366"/>
  <unicode hex="0423"/>
  <anchor x="729" y="0" name="bottom"/>
  <anchor x="729" y="1500" name="top"/>
  <outline>
    <contour>
      <point x="670" y="501" type="qcurve" smooth="yes"/>
      <point x="882" y="979" type="line"/>
      <point x="1034" y="1333" type="line"/>
      <point x="887" y="1366" type="line"/>
      <point x="887" y="1500" type="line"/>
      <point x="1396" y="1500" type="line"/>
      <point x="1396" y="1366" type="line"/>
      <point x="1228" y="1327" type="line"/>
      <point x="1032" y="927" type="line"/>
      <point x="813" y="451" type="line" smooth="yes"/>
      <point x="718" y="244"/>
      <point x="524" y="-17"/>
      <point x="359" y="-17" type="qcurve" smooth="yes"/>
      <point x="325" y="-17"/>
      <point x="243" y="-6"/>
      <point x="198" y="8" type="qcurve"/>
      <point x="198" y="251" type="line"/>
      <point x="250" y="237"/>
      <point x="309" y="230"/>
      <point x="341" y="230" type="qcurve" smooth="yes"/>
      <point x="439" y="230"/>
      <point x="597" y="337"/>
    </contour>
    <contour>
      <point x="622" y="294" type="line"/>
      <point x="338" y="878" type="line"/>
      <point x="107" y="1330" type="line"/>
      <point x="-30" y="1366" type="line"/>
      <point x="-30" y="1500" type="line"/>
      <point x="542" y="1500" type="line"/>
      <point x="542" y="1366" type="line"/>
      <point x="405" y="1330" type="line"/>
      <point x="556" y="986" type="line"/>
      <point x="762" y="565" type="line"/>
    </contour>
  </outline>
</glyph>
<glyph name="Tse" format="2">
  <advance width="1720"/>
  <unicode hex="0426"/>
  <outline>
    <contour>
      <point x="1199" y="754" type="line"/>
      <point x="1196" y="1332" type="line"/>
      <point x="1042" y="1366" type="line"/>
      <point x="1042" y="1500" type="line"/>
      <point x="1638" y="1500" type="line"/>
      <point x="1638" y="1366" type="line"/>
      <point x="1484" y="1332" type="line"/>
      <point x="1481" y="754" type="line"/>
      <point x="1483" y="128" type="line"/>
      <point x="1658" y="128" type="line"/>
      <point x="1668" y="-338" type="line"/>
      <point x="1486" y="-338" type="line"/>
      <point x="1417" y="0" type="line"/>
      <point x="82" y="0" type="line"/>
      <point x="82" y="120" type="line"/>
      <point x="236" y="155" type="line"/>
      <point x="239" y="754" type="line"/>
      <point x="236" y="1332" type="line"/>
      <point x="82" y="1366" type="line"/>
      <point x="82" y="1500" type="line"/>
      <point x="678" y="1500" type="line"/>
      <point x="678" y="1366" type="line"/>
      <point x="524" y="1332" type="line"/>
      <point x="521" y="754" type="line"/>
      <point x="524" y="156" type="line"/>
      <point x="563" y="128" type="line"/>
      <point x="1157" y="128" type="line"/>
      <point x="1196" y="156" type="line"/>
    </contour>
  </outline>
</glyph>
<glyph name="Sha" format="2">
  <advance width="2340"/>
  <unicode hex="0428"/>
  <outline>
    <contour>
      <point x="1304" y="156" type="line"/>
      <point x="1344" y="128" type="line"/>
      <point x="1756" y="128" type="line"/>
      <point x="1796" y="156" type="line"/>
      <point x="1799" y="746" type="line"/>
      <point x="1796" y="1332" type="line"/>
      <point x="1642" y="1366" type="line"/>
      <point x="1642" y="1500" type="line"/>
      <point x="2258" y="1500" type="line"/>
      <point x="2258" y="1366" type="line"/>
      <point x="2084" y="1332" type="line"/>
      <point x="2081" y="746" type="line"/>
      <point x="2084" y="155" type="line"/>
      <point x="2268" y="120" type="line"/>
      <point x="2268" y="0" type="line"/>
      <point x="77" y="0" type="line"/>
      <point x="77" y="120" type="line"/>
      <point x="236" y="155" type="line"/>
      <point x="239" y="746" type="line"/>
      <point x="236" y="1332" type="line"/>
      <point x="82" y="1366" type="line"/>
      <point x="82" y="1500" type="line"/>
      <point x="678" y="1500" type="line"/>
      <point x="678" y="1366" type="line"/>
      <point x="524" y="1332" type="line"/>
      <point x="521" y="746" type="line"/>
      <point x="524" y="156" type="line"/>
      <point x="564" y="128" type="line"/>
      <point x="976" y="128" type="line"/>
      <point x="1016" y="156" type="line"/>
      <point x="1019" y="754" type="line"/>
      <point x="1016" y="1332" type="line"/>
      <point x="852" y="1366" type="line"/>
      <point x="852" y="1500" type="line"/>
      <point x="1468" y="1500" type="line"/>
      <point x="1468" y="1366" type="line"/>
      <point x="1304" y="1332" type="line"/>
      <point x="1301" y="754" type="line"/>
    </contour>
  </outline>
</glyph>
<glyph name="Shcha" format="2">
  <advance width="2340"/>
  <unicode hex="0429"/>
  <outline>
    <contour>
      <point x="2043" y="0" type="line"/>
      <point x="82" y="0" type="line"/>
      <point x="82" y="120" type="line"/>
      <point x="236" y="155" type="line"/>
      <point x="239" y="746" type="line"/>
      <point x="236" y="1332" type="line"/>
      <point x="82" y="1366" type="line"/>
      <point x="82" y="1500" type="line"/>
      <point x="678" y="1500" type="line"/>
      <point x="678" y="1366" type="line"/>
      <point x="524" y="1332" type="line"/>
      <point x="521" y="746" type="line"/>
      <point x="524" y="156" type="line"/>
      <point x="564" y="128" type="line"/>
      <point x="976" y="128" type="line"/>
      <point x="1016" y="156" type="line"/>
      <point x="1019" y="754" type="line"/>
      <point x="1016" y="1332" type="line"/>
      <point x="852" y="1366" type="line"/>
      <point x="852" y="1500" type="line"/>
      <point x="1468" y="1500" type="line"/>
      <point x="1468" y="1366" type="line"/>
      <point x="1304" y="1332" type="line"/>
      <point x="1301" y="754" type="line"/>
      <point x="1304" y="156" type="line"/>
      <point x="1344" y="128" type="line"/>
      <point x="1756" y="128" type="line"/>
      <point x="1796" y="156" type="line"/>
      <point x="1799" y="746" type="line"/>
      <point x="1796" y="1332" type="line"/>
      <point x="1642" y="1366" type="line"/>
      <point x="1642" y="1500" type="line"/>
      <point x="2248" y="1500" type="line"/>
      <point x="2248" y="1366" type="line"/>
      <point x="2084" y="1332" type="line"/>
      <point x="2081" y="746" type="line"/>
      <point x="2083" y="128" type="line"/>
      <point x="2278" y="128" type="line"/>
      <point x="2288" y="-338" type="line"/>
      <point x="2112" y="-338" type="line"/>
    </contour>
  </outline>
</glyph>
<glyph name="Hard" format="2">
  <advance width="1478"/>
  <unicode hex="042A"/>
  <outline>
    <contour>
      <point x="891" y="1500" type="line"/>
      <point x="891" y="1366" type="line"/>
      <point x="747" y="1332" type="line"/>
      <point x="745" y="915" type="line"/>
      <point x="754" y="901" type="line"/>
      <point x="919" y="901" type="line" smooth="yes"/>
      <point x="1152" y="901"/>
      <point x="1458" y="680"/>
      <point x="1458" y="463" type="qcurve" smooth="yes"/>
      <point x="1458" y="261"/>
      <point x="1213" y="0"/>
      <point x="965" y="0" type="qcurve" smooth="yes"/>
      <point x="255" y="0" type="line"/>
      <point x="255" y="120" type="line"/>
      <point x="459" y="155" type="line"/>
      <point x="462" y="736" type="line"/>
      <point x="460" y="1362" type="line"/>
      <point x="215" y="1362" type="line"/>
      <point x="180" y="1052" type="line"/>
      <point x="30" y="1052" type="line"/>
      <point x="30" y="1500" type="line"/>
    </contour>
    <contour>
      <point x="753" y="748" type="line"/>
      <point x="744" y="734" type="line"/>
      <point x="744" y="155" type="line"/>
      <point x="778" y="135" type="line"/>
      <point x="845" y="135" type="line" smooth="yes"/>
      <point x="1011" y="135"/>
      <point x="1170" y="290"/>
      <point x="1170" y="443" type="qcurve" smooth="yes"/>
      <point x="1170" y="593"/>
      <point x="1014" y="748"/>
      <point x="863" y="748" type="qcurve" smooth="yes"/>
    </contour>
  </outline>
</glyph>
<glyph name="Ecyr" format="2">
  <advance width="1530"/>
  <unicode hex="042D"/>
  <anchor x="710.0" y="0" name="bottom"/>
  <anchor x="710.0" y="1500" name="top"/>
  <outline>
    <contour>
      <point x="1341" y="699" type="line"/>
      <point x="688" y="693" type="line"/>
      <point x="653" y="518" type="line"/>
      <point x="503" y="518" type="line"/>
      <point x="503" y="1014" type="line"/>
      <point x="653" y="1014" type="line"/>
      <point x="688" y="839" type="line"/>
      <point x="1341" y="833" type="line"/>
    </contour>
    <contour>
      <point x="743" y="142.0" type="qcurve" smooth="yes"/>
      <point x="952" y="142"/>
      <point x="1190" y="436"/>
      <point x="1190" y="745" type="qcurve" smooth="yes"/>
      <point x="1190" y="1022"/>
      <point x="952" y="1339"/>
      <point x="736" y="1339" type="qcurve" smooth="yes"/>
      <point x="565.0" y="1339.0"/>
      <point x="370" y="1232"/>
      <point x="351" y="1134" type="qcurve" smooth="yes"/>
      <point x="332" y="1031" type="line"/>
      <point x="167" y="1031" type="line"/>
      <point x="167" y="1500" type="line"/>
      <point x="307" y="1500" type="line"/>
      <point x="334" y="1428" type="line"/>
      <point x="384" y="1462"/>
      <point x="579" y="1530"/>
      <point x="759" y="1530" type="qcurve" smooth="yes"/>
      <point x="1108.0" y="1530.0"/>
      <point x="1492" y="1101"/>
      <point x="1492" y="752" type="qcurve" smooth="yes"/>
      <point x="1492" y="419"/>
      <point x="1090" y="-41"/>
      <point x="776" y="-41" type="qcurve" smooth="yes"/>
      <point x="578.0" y="-41"/>
      <point x="373" y="49"/>
      <point x="321" y="103" type="qcurve"/>
      <point x="274" y="-10" type="line"/>
      <point x="150" y="-10" type="line"/>
      <point x="150" y="494" type="line"/>
      <point x="316" y="494" type="line"/>
      <point x="349" y="363" type="line" smooth="yes"/>
      <point x="377" y="250"/>
      <point x="546" y="142"/>
    </contour>
  </outline>
</glyph>
<glyph name="Yu" format="2">
  <advance width="2304"/>
  <unicode hex="042E"/>
  <anchor x="1044.0" y="0" name="bottom"/>
  <anchor x="1044.0" y="1500" name="top"/>
  <outline>
    <contour>
      <point x="82" y="0" type="line"/>
      <point x="82" y="120" type="line"/>
      <point x="236" y="155" type="line"/>
      <point x="239" y="754" type="line"/>
      <point x="236" y="1332" type="line"/>
      <point x="82" y="1366" type="line"/>
      <point x="82" y="1500" type="line"/>
      <point x="678" y="1500" type="line"/>
      <point x="678" y="1366" type="line"/>
      <point x="524" y="1332" type="line"/>
      <point x="521" y="754" type="line"/>
      <point x="524" y="155" type="line"/>
      <point x="678" y="120" type="line"/>
      <point x="678" y="0" type="line"/>
    </contour>
    <contour>
      <point x="380" y="676" type="line"/>
      <point x="380" y="867" type="line"/>
      <point x="901" y="859" type="line"/>
      <point x="901" y="676" type="line"/>
    </contour>
    <contour>
      <point x="735" y="737" type="qcurve" smooth="yes"/>
      <point x="735" y="1068"/>
      <point x="1164" y="1530"/>
      <point x="1497" y="1530" type="qcurve" smooth="yes"/>
      <point x="1835" y="1530"/>
      <point x="2249" y="1097"/>
      <point x="2249" y="752" type="qcurve" smooth="yes"/>
      <point x="2249" y="423"/>
      <point x="1838" y="-41"/>
      <point x="1501" y="-41" type="qcurve" smooth="yes"/>
      <point x="1176" y="-41"/>
      <point x="735" y="396"/>
    </contour>
    <contour>
      <point x="1037" y="768" type="qcurve" smooth="yes"/>
      <point x="1037" y="499"/>
      <point x="1292" y="142"/>
      <point x="1497" y="142" type="qcurve" smooth="yes"/>
      <point x="1720" y="142"/>
      <point x="1947" y="460"/>
      <point x="1947" y="745" type="qcurve" smooth="yes"/>
      <point x="1947" y="998"/>
      <point x="1703" y="1339"/>
      <point x="1497" y="1339" type="qcurve" smooth="yes"/>
      <point x="1274" y="1339"/>
      <point x="1037" y="1028"/>
    </contour>
  </outline>
</glyph>
<glyph name="Ya" format="2">
  <advance width="1438"/>
  <unicode hex="042F"/>
  <anchor x="630.0" y="0" name="bottom"/>
  <anchor x="803.0" y="1500" name="top"/>
  <outline>
    <contour>
      <point x="1365" y="0" type="line"/>
      <point x="1365" y="120" type="line"/>
      <point x="1173" y="155" type="line"/>
      <point x="1171" y="764" type="line"/>
      <point x="1173" y="1332" type="line"/>
      <point x="1365" y="1366" type="line"/>
      <point x="1365" y="1500" type="line"/>
      <point x="733" y="1500" type="line"/>
      <point x="470" y="1500"/>
      <point x="201" y="1272"/>
      <point x="201" y="1063" type="qcurve" smooth="yes"/>
      <point x="201" y="883"/>
      <point x="455" y="659"/>
      <point x="680" y="659" type="qcurve"/>
      <point x="690" y="635" type="line"/>
      <point x="1033" y="645" type="line"/>
      <point x="1033" y="787" type="line"/>
      <point x="782" y="787" type="line" smooth="yes"/>
      <point x="639" y="787"/>
      <point x="490" y="935"/>
      <point x="490" y="1062" type="qcurve" smooth="yes"/>
      <point x="490" y="1203"/>
      <point x="646" y="1352"/>
      <point x="785" y="1352" type="qcurve" smooth="yes"/>
      <point x="862" y="1352" type="line"/>
      <point x="891" y="1333" type="line"/>
      <point x="895" y="774" type="line"/>
      <point x="893" y="155" type="line"/>
      <point x="715" y="120" type="line"/>
      <point x="715" y="0" type="line"/>
    </contour>
    <contour>
      <point x="784" y="699" type="line"/>
      <point x="525" y="731" type="line"/>
      <point x="261" y="315" type="line" smooth="yes"/>
      <point x="180" y="187"/>
      <point x="69" y="124"/>
      <point x="15" y="120" type="qcurve"/>
      <point x="15" y="0" type="line"/>
      <point x="340" y="0" type="line"/>
      <point x="369" y="20" type="line"/>
    </contour>
  </outline>
</glyph>
<glyph name="be" format="2">
  <advance width="1126"/>
  <unicode hex="0431"/>
  <outline>
    <contour>
      <point x="606" y="119" type="qcurve" smooth="yes"/>
      <point x="736" y="119"/>
      <point x="864" y="308"/>
      <point x="864" y="505" type="qcurve" smooth="yes"/>
      <point x="864" y="675"/>
      <point x="732" y="867"/>
      <point x="607" y="867" type="qcurve" smooth="yes"/>
      <point x="514" y="867"/>
      <point x="343" y="737"/>
      <point x="298" y="625" type="qcurve"/>
      <point x="226" y="733" type="line"/>
      <point x="288" y="864"/>
      <point x="524" y="1022"/>
      <point x="684" y="1022" type="qcurve" smooth="yes"/>
      <point x="895" y="1022"/>
      <point x="1134" y="755"/>
      <point x="1134" y="530" type="qcurve" smooth="yes"/>
      <point x="1134" y="271"/>
      <point x="832" y="-22"/>
      <point x="606" y="-22" type="qcurve" smooth="yes"/>
      <point x="350" y="-22"/>
      <point x="74" y="291"/>
      <point x="74" y="624" type="qcurve" smooth="yes"/>
      <point x="74" y="1000"/>
      <point x="404" y="1400"/>
      <point x="708" y="1443" type="qcurve" smooth="yes"/>
      <point x="890" y="1469"/>
      <point x="964.6208685341" y="1514.6730398692"/>
      <point x="971" y="1537" type="qcurve"/>
      <point x="1071" y="1537" type="line"/>
      <point x="1059" y="1370"/>
      <point x="905" y="1223"/>
      <point x="725" y="1204" type="qcurve" smooth="yes"/>
      <point x="545.2373981895" y="1184.8118571101"/>
      <point x="387.1226483502" y="1144.1709643669"/>
      <point x="354" y="1098" type="qcurve" smooth="yes"/>
      <point x="315.5453426708" y="1043.9556167265"/>
      <point x="288.0000146824" y="879.0016737883"/>
      <point x="287" y="765" type="qcurve"/>
      <point x="357" y="765" type="line"/>
      <point x="350" y="709"/>
      <point x="345" y="625"/>
      <point x="345" y="537" type="qcurve" smooth="yes"/>
      <point x="345" y="334"/>
      <point x="479" y="119"/>
    </contour>
  </outline>
</glyph>
<glyph name="de" format="2">
  <advance width="1203"/>
  <unicode hex="0434"/>
  <outline>
    <contour>
      <point x="257" y="865" type="line"/>
      <point x="139" y="900" type="line"/>
      <point x="139" y="1000" type="line"/>
      <point x="1118" y="1000" type="line"/>
      <point x="1118" y="900" type="line"/>
      <point x="1000" y="865" type="line"/>
      <point x="998" y="500" type="line"/>
      <point x="1000" y="0" type="line"/>
      <point x="744" y="0" type="line"/>
      <point x="746" y="500" type="line"/>
      <point x="744" y="875" type="line"/>
      <point x="419" y="875" type="line"/>
      <point x="402" y="552" type="line" smooth="yes"/>
      <point x="393" y="389"/>
      <point x="357" y="180"/>
      <point x="331" y="111" type="qcurve"/>
      <point x="146" y="111" type="line"/>
      <point x="182" y="183"/>
      <point x="233" y="436"/>
      <point x="241" y="575" type="qcurve" smooth="yes"/>
    </contour>
    <contour>
      <point x="1027" y="-318" type="line"/>
      <point x="958" y="0" type="line"/>
      <point x="211" y="0" type="line"/>
      <point x="142" y="-318" type="line"/>
      <point x="10" y="-318" type="line"/>
      <point x="20" y="125" type="line"/>
      <point x="1149" y="125" type="line"/>
      <point x="1159" y="-318" type="line"/>
    </contour>
  </outline>
</glyph>
<glyph name="zhe" format="2">
  <advance width="1666"/>
  <unicode hex="0436"/>
  <anchor x="833" y="0" name="bottom"/>
  <anchor x="833" y="1000" name="top"/>
  <outline>
    <contour>
      <point x="1000" y="481" type="line"/>
      <point x="1225" y="589" type="line"/>
      <point x="1563" y="135" type="line"/>
      <point x="1662" y="100" type="line"/>
      <point x="1662" y="0" type="line"/>
      <point x="1243" y="0" type="line"/>
      <point x="1231" y="99" type="line"/>
      <point x="1269" y="131" type="line"/>
    </contour>
    <contour>
      <point x="833" y="574" type="line"/>
      <point x="1071" y="574" type="line"/>
      <point x="1310" y="860" type="line"/>
      <point x="1193" y="890" type="line"/>
      <point x="1193" y="1000" type="line"/>
      <point x="1630" y="1000" type="line"/>
      <point x="1630" y="890" type="line"/>
      <point x="1492" y="855" type="line"/>
      <point x="1136" y="448" type="line"/>
      <point x="833" y="446" type="line"/>
    </contour>
    <contour>
      <point x="667" y="481" type="line"/>
      <point x="402" y="131" type="line"/>
      <point x="431" y="99" type="line"/>
      <point x="419" y="0" type="line"/>
      <point x="4" y="0" type="line"/>
      <point x="4" y="100" type="line"/>
      <point x="112" y="135" type="line"/>
      <point x="450" y="589" type="line"/>
    </contour>
    <contour>
      <point x="833" y="574" type="line"/>
      <point x="833" y="446" type="line"/>
      <point x="530" y="448" type="line"/>
      <point x="174" y="855" type="line"/>
      <point x="36" y="890" type="line"/>
      <point x="36" y="1000" type="line"/>
      <point x="473" y="1000" type="line"/>
      <point x="473" y="890" type="line"/>
      <point x="356" y="860" type="line"/>
      <point x="595" y="574" type="line"/>
    </contour>
    <contour>
      <point x="959" y="500" type="line"/>
      <point x="961" y="135" type="line"/>
      <point x="1075" y="100" type="line"/>
      <point x="1075" y="0" type="line"/>
      <point x="593" y="0" type="line"/>
      <point x="593" y="100" type="line"/>
      <point x="705" y="135" type="line"/>
      <point x="707" y="500" type="line"/>
      <point x="705" y="865" type="line"/>
      <point x="592" y="900" type="line"/>
      <point x="592" y="1000" type="line"/>
      <point x="1074" y="1000" type="line"/>
      <point x="1074" y="900" type="line"/>
      <point x="961" y="865" type="line"/>
    </contour>
  </outline>
</glyph>
<glyph name="icyr" format="2">
  <advance width="1282"/>
  <unicode hex="0438"/>
  <anchor x="641" y="0" name="bottom"/>
  <anchor x="641" y="1000" name="top"/>
  <outline>
    <contour>
      <point x="328" y="320" type="line"/>
      <point x="616" y="558" type="line"/>
      <point x="858" y="788" type="line"/>
      <point x="956" y="686" type="line"/>
      <point x="682" y="455" type="line"/>
      <point x="426" y="218" type="line"/>
    </contour>
    <contour>
      <point x="196" y="500" type="line"/>
      <point x="194" y="865" type="line"/>
      <point x="76" y="900" type="line"/>
      <point x="76" y="1000" type="line"/>
      <point x="560" y="1000" type="line"/>
      <point x="560" y="900" type="line"/>
      <point x="450" y="865" type="line"/>
      <point x="448" y="500" type="line"/>
      <point x="450" y="135" type="line"/>
      <point x="560" y="100" type="line"/>
      <point x="560" y="0" type="line"/>
      <point x="76" y="0" type="line"/>
      <point x="76" y="100" type="line"/>
      <point x="194" y="135" type="line"/>
    </contour>
    <contour>
      <point x="1083" y="500" type="line"/>
      <point x="1085" y="135" type="line"/>
      <point x="1203" y="100" type="line"/>
      <point x="1203" y="0" type="line"/>
      <point x="719" y="0" type="line"/>
      <point x="719" y="100" type="line"/>
      <point x="829" y="135" type="line"/>
      <point x="831" y="500" type="line"/>
      <point x="829" y="865" type="line"/>
      <point x="719" y="900" type="line"/>
      <point x="719" y="1000" type="line"/>
      <point x="1203" y="1000" type="line"/>
      <point x="1203" y="900" type="line"/>
      <point x="1085" y="865" type="line"/>
    </contour>
  </outline>
</glyph>
<glyph name="ka" format="2">
  <advance width="1166"/>
  <unicode hex="043A"/>
  <anchor x="612" y="0" name="bottom"/>
  <anchor x="612" y="1000" name="top"/>
  <outline>
    <contour>
      <point x="493" y="457" type="line"/>
      <point x="669" y="615" type="line"/>
      <point x="1072" y="134" type="line"/>
      <point x="1165" y="100" type="line"/>
      <point x="1165" y="0" type="line"/>
      <point x="756" y="0" type="line"/>
      <point x="751" y="81" type="line"/>
      <point x="775" y="115" type="line"/>
    </contour>
    <contour>
      <point x="313" y="579" type="line"/>
      <point x="522" y="576" type="line"/>
      <point x="770" y="860" type="line"/>
      <point x="671" y="890" type="line"/>
      <point x="671" y="1000" type="line"/>
      <point x="1117" y="1000" type="line"/>
      <point x="1117" y="890" type="line"/>
      <point x="959" y="855" type="line"/>
      <point x="572" y="447" type="line"/>
      <point x="313" y="445" type="line"/>
    </contour>
    <contour>
      <point x="195" y="500" type="line"/>
      <point x="193" y="865" type="line"/>
      <point x="75" y="900" type="line"/>
      <point x="75" y="1000" type="line"/>
      <point x="549" y="1000" type="line"/>
      <point x="549" y="900" type="line"/>
      <point x="449" y="865" type="line"/>
      <point x="447" y="500" type="line"/>
      <point x="449" y="135" type="line"/>
      <point x="559" y="100" type="line"/>
      <point x="559" y="0" type="line"/>
      <point x="75" y="0" type="line"/>
      <point x="75" y="100" type="line"/>
      <point x="193" y="135" type="line"/>
    </contour>
  </outline>
</glyph>
<glyph name="pe" format="2">
  <advance width="1266"/>
  <unicode hex="043F"/>
  <outline>
    <contour>
      <point x="200" y="500" type="line"/>
      <point x="198" y="865" type="line"/>
      <point x="80" y="900" type="line"/>
      <point x="80" y="1000" type="line"/>
      <point x="1187" y="1000" type="line"/>
      <point x="1187" y="900" type="line"/>
      <point x="1069" y="865" type="line"/>
      <point x="1067" y="500" type="line"/>
      <point x="1069" y="135" type="line"/>
      <point x="1187" y="100" type="line"/>
      <point x="1187" y="0" type="line"/>
      <point x="708" y="0" type="line"/>
      <point x="708" y="100" type="line"/>
      <point x="813" y="135" type="line"/>
      <point x="815" y="500" type="line"/>
      <point x="813" y="875" type="line"/>
      <point x="454" y="875" type="line"/>
      <point x="452" y="500" type="line"/>
      <point x="454" y="135" type="line"/>
      <point x="559" y="100" type="line"/>
      <point x="559" y="0" type="line"/>
      <point x="80" y="0" type="line"/>
      <point x="80" y="100" type="line"/>
      <point x="198" y="135" type="line"/>
    </contour>
  </outline>
</glyph>
<glyph name="hard" format="2">
  <advance width="1253"/>
  <unicode hex="044A"/>
  <outline>
    <contour>
      <point x="768" y="1000" type="line"/>
      <point x="768" y="900" type="line"/>
      <point x="650" y="865" type="line"/>
      <point x="648" y="500" type="line"/>
      <point x="650" y="130" type="line"/>
      <point x="776" y="130" type="line" smooth="yes"/>
      <point x="873" y="130"/>
      <point x="952" y="238"/>
      <point x="952" y="319" type="qcurve" smooth="yes"/>
      <point x="952" y="396"/>
      <point x="873" y="496"/>
      <point x="776" y="496" type="qcurve" smooth="yes"/>
      <point x="522" y="496" type="line"/>
      <point x="522" y="627" type="line"/>
      <point x="776" y="627" type="line" smooth="yes"/>
      <point x="1014" y="627"/>
      <point x="1208" y="463"/>
      <point x="1208" y="324" type="qcurve" smooth="yes"/>
      <point x="1208" y="177"/>
      <point x="1020" y="0"/>
      <point x="846" y="0" type="qcurve" smooth="yes"/>
      <point x="276" y="0" type="line"/>
      <point x="276" y="100" type="line"/>
      <point x="394" y="135" type="line"/>
      <point x="396" y="500" type="line"/>
      <point x="394" y="875" type="line"/>
      <point x="217" y="875" type="line"/>
      <point x="183" y="662" type="line"/>
      <point x="50" y="662" type="line"/>
      <point x="50" y="1000" type="line"/>
    </contour>
  </outline>
</glyph>
<glyph name="soft" format="2">
  <advance width="1058"/>
  <unicode hex="044C"/>
  <outline>
    <contour>
      <point x="450" y="130" type="line"/>
      <point x="576" y="130" type="line" smooth="yes"/>
      <point x="673" y="130"/>
      <point x="752" y="238"/>
      <point x="752" y="319" type="qcurve" smooth="yes"/>
      <point x="752" y="401"/>
      <point x="673" y="501"/>
      <point x="576" y="501" type="qcurve" smooth="yes"/>
      <point x="322" y="501" type="line"/>
      <point x="322" y="637" type="line"/>
      <point x="576" y="637" type="line" smooth="yes"/>
      <point x="813.0" y="637.0"/>
      <point x="1008" y="473"/>
      <point x="1008.0" y="328" type="qcurve" smooth="yes"/>
      <point x="1008" y="177"/>
      <point x="820" y="0"/>
      <point x="646" y="0" type="qcurve" smooth="yes"/>
      <point x="76" y="0" type="line"/>
      <point x="76" y="100" type="line"/>
      <point x="194" y="135" type="line"/>
      <point x="196" y="500" type="line"/>
      <point x="194" y="865" type="line"/>
      <point x="76" y="900" type="line"/>
      <point x="76" y="1000" type="line"/>
      <point x="568" y="1000" type="line"/>
      <point x="568" y="900" type="line"/>
      <point x="450" y="865" type="line"/>
      <point x="448" y="500" type="line"/>
    </contour>
  </outline>
</glyph>
<glyph name="ecyr" format="2">
  <advance width="1081"/>
  <unicode hex="044D"/>
  <anchor x="496.0" y="0" name="bottom"/>
  <anchor x="522.0" y="1000" name="top"/>
  <outline>
    <contour>
      <point x="230" y="73" type="qcurve"/>
      <point x="191" y="0" type="line"/>
      <point x="90" y="0" type="line"/>
      <point x="90" y="339" type="line"/>
      <point x="237" y="339" type="line"/>
      <point x="249" y="274" type="line" smooth="yes"/>
      <point x="262" y="206"/>
      <point x="377" y="119"/>
      <point x="482" y="119" type="qcurve" smooth="yes"/>
      <point x="614" y="119"/>
      <point x="766" y="317"/>
      <point x="766" y="506" type="qcurve" smooth="yes"/>
      <point x="766" y="685"/>
      <point x="618" y="872"/>
      <point x="488" y="875" type="qcurve" smooth="yes"/>
      <point x="403" y="877"/>
      <point x="264" y="803"/>
      <point x="251" y="725" type="qcurve" smooth="yes"/>
      <point x="241" y="664" type="line"/>
      <point x="111" y="664" type="line"/>
      <point x="111" y="1000" type="line"/>
      <point x="241" y="1000" type="line"/>
      <point x="261" y="956" type="line"/>
      <point x="316" y="993"/>
      <point x="468" y="1022"/>
      <point x="535" y="1022" type="qcurve" smooth="yes"/>
      <point x="768" y="1022"/>
      <point x="1036" y="736"/>
      <point x="1036" y="506" type="qcurve" smooth="yes"/>
      <point x="1036" y="290"/>
      <point x="779" y="-23"/>
      <point x="557" y="-23" type="qcurve" smooth="yes"/>
      <point x="455" y="-23"/>
      <point x="270" y="39"/>
    </contour>
    <contour>
      <point x="856" y="560" type="line"/>
      <point x="856" y="431" type="line"/>
      <point x="357" y="429" type="line"/>
      <point x="357" y="563" type="line"/>
    </contour>
  </outline>
</glyph>
<glyph name="yu" format="2">
  <advance width="1689"/>
  <unicode hex="044E"/>
  <anchor x="767.0" y="0" name="bottom"/>
  <anchor x="793.0" y="1000" name="top"/>
  <outline>
    <contour>
      <point x="322" y="579" type="line"/>
      <point x="749" y="576" type="line"/>
      <point x="749" y="446" type="line"/>
      <point x="322" y="444" type="line"/>
    </contour>
    <contour>
      <point x="196" y="500" type="line"/>
      <point x="194" y="865" type="line"/>
      <point x="76" y="900" type="line"/>
      <point x="76" y="1000" type="line"/>
      <point x="560" y="1000" type="line"/>
      <point x="560" y="900" type="line"/>
      <point x="450" y="865" type="line"/>
      <point x="448" y="500" type="line"/>
      <point x="450" y="135" type="line"/>
      <point x="560" y="100" type="line"/>
      <point x="560" y="0" type="line"/>
      <point x="76" y="0" type="line"/>
      <point x="76" y="100" type="line"/>
      <point x="194" y="135" type="line"/>
    </contour>
    <contour>
      <point x="597" y="500" type="qcurve" smooth="yes"/>
      <point x="597" y="717"/>
      <point x="883" y="1022"/>
      <point x="1115" y="1022" type="qcurve" smooth="yes"/>
      <point x="1348" y="1022"/>
      <point x="1637" y="737"/>
      <point x="1637" y="506" type="qcurve" smooth="yes"/>
      <point x="1637" y="290"/>
      <point x="1353" y="-22"/>
      <point x="1121" y="-22" type="qcurve" smooth="yes"/>
      <point x="888" y="-22"/>
      <point x="597" y="267"/>
    </contour>
    <contour>
      <point x="868" y="519" type="qcurve" smooth="yes"/>
      <point x="869" y="342"/>
      <point x="979" y="119"/>
      <point x="1113" y="119" type="qcurve" smooth="yes"/>
      <point x="1258" y="119"/>
      <point x="1367" y="322"/>
      <point x="1367" y="505" type="qcurve" smooth="yes"/>
      <point x="1367" y="674"/>
      <point x="1250" y="874"/>
      <point x="1115" y="874" type="qcurve" smooth="yes"/>
      <point x="969" y="874"/>
      <point x="867" y="694"/>
    </contour>
  </outline>
</glyph>
<glyph name="ya" format="2">
  <advance width="1101"/>
  <unicode hex="044F"/>
  <anchor x="496.0" y="0" name="bottom"/>
  <anchor x="525.0" y="1000" name="top"/>
  <outline>
    <contour>
      <point x="663" y="875" type="line"/>
      <point x="615" y="875" type="line" smooth="yes"/>
      <point x="490" y="875"/>
      <point x="359" y="797"/>
      <point x="359" y="711" type="qcurve" smooth="yes"/>
      <point x="359" y="627"/>
      <point x="490" y="534"/>
      <point x="615" y="534" type="qcurve" smooth="yes"/>
      <point x="791" y="534" type="line"/>
      <point x="791" y="404" type="line"/>
      <point x="478" y="399" type="line"/>
      <point x="442" y="410" type="line"/>
      <point x="281" y="425"/>
      <point x="103" y="586"/>
      <point x="103" y="712" type="qcurve" smooth="yes"/>
      <point x="103" y="849"/>
      <point x="317.0" y="1000.0"/>
      <point x="535" y="1000" type="qcurve" smooth="yes"/>
      <point x="1037" y="1000" type="line"/>
      <point x="1037" y="900" type="line"/>
      <point x="919" y="865" type="line"/>
      <point x="917" y="500" type="line"/>
      <point x="919" y="135" type="line"/>
      <point x="1037" y="100" type="line"/>
      <point x="1037" y="0" type="line"/>
      <point x="545" y="0" type="line"/>
      <point x="545" y="100" type="line"/>
      <point x="663" y="135" type="line"/>
      <point x="665" y="530" type="line"/>
    </contour>
    <contour>
      <point x="592" y="450" type="line"/>
      <point x="402" y="131" type="line"/>
      <point x="431" y="99" type="line"/>
      <point x="419" y="0" type="line"/>
      <point x="20" y="0" type="line"/>
      <point x="20" y="100" type="line"/>
      <point x="129" y="135" type="line"/>
      <point x="340" y="479" type="line"/>
    </contour>
  </outline>
</glyph>
<glyph name="Endescender" format="2">
  <advance width="1740"/>
  <unicode hex="04A2"/>
  <outline>
    <contour>
      <point x="1219" y="754" type="line"/>
      <point x="1216" y="1332" type="line"/>
      <point x="1062" y="1366" type="line"/>
      <point x="1062" y="1500" type="line"/>
      <point x="1658" y="1500" type="line"/>
      <point x="1658" y="1366" type="line"/>
      <point x="1504" y="1332" type="line"/>
      <point x="1501" y="754" type="line"/>
      <point x="1504" y="128" type="line"/>
      <point x="1679" y="128" type="line"/>
      <point x="1689" y="-338" type="line"/>
      <point x="1537" y="-338" type="line"/>
      <point x="1468" y="0" type="line"/>
      <point x="1062" y="0" type="line"/>
      <point x="1062" y="120" type="line"/>
      <point x="1216" y="155" type="line"/>
    </contour>
    <contour>
      <point x="82" y="0" type="line"/>
      <point x="82" y="120" type="line"/>
      <point x="236" y="155" type="line"/>
      <point x="239" y="754" type="line"/>
      <point x="236" y="1332" type="line"/>
      <point x="82" y="1366" type="line"/>
      <point x="82" y="1500" type="line"/>
      <point x="678" y="1500" type="line"/>
      <point x="678" y="1366" type="line"/>
      <point x="524" y="1332" type="line"/>
      <point x="521" y="754" type="line"/>
      <point x="524" y="155" type="line"/>
      <point x="678" y="120" type="line"/>
      <point x="678" y="0" type="line"/>
    </contour>
    <contour>
      <point x="380" y="706" type="line"/>
      <point x="380" y="858" type="line"/>
      <point x="870" y="850" type="line"/>
      <point x="1358" y="858" type="line"/>
      <point x="1358" y="706" type="line"/>
      <point x="870" y="706" type="line"/>
    </contour>
  </outline>
</glyph>
<glyph name="endescender" format="2">
  <advance width="1288"/>
  <unicode hex="04A3"/>
  <outline>
    <contour>
      <point x="322" y="579" type="line"/>
      <point x="637" y="576" type="line"/>
      <point x="947" y="579" type="line"/>
      <point x="947" y="444" type="line"/>
      <point x="637" y="446" type="line"/>
      <point x="322" y="444" type="line"/>
    </contour>
    <contour>
      <point x="196" y="500" type="line"/>
      <point x="194" y="865" type="line"/>
      <point x="76" y="900" type="line"/>
      <point x="76" y="1000" type="line"/>
      <point x="560" y="1000" type="line"/>
      <point x="560" y="900" type="line"/>
      <point x="450" y="865" type="line"/>
      <point x="448" y="500" type="line"/>
      <point x="450" y="135" type="line"/>
      <point x="560" y="100" type="line"/>
      <point x="560" y="0" type="line"/>
      <point x="76" y="0" type="line"/>
      <point x="76" y="100" type="line"/>
      <point x="194" y="135" type="line"/>
    </contour>
    <contour>
      <point x="1075" y="125" type="line"/>
      <point x="1234" y="125" type="line"/>
      <point x="1244" y="-318" type="line"/>
      <point x="1112" y="-318" type="line"/>
      <point x="1043" y="0" type="line"/>
      <point x="709" y="0" type="line"/>
      <point x="709" y="100" type="line"/>
      <point x="819" y="135" type="line"/>
      <point x="821" y="500" type="line"/>
      <point x="819" y="865" type="line"/>
      <point x="709" y="900" type="line"/>
      <point x="709" y="1000" type="line"/>
      <point x="1193" y="1000" type="line"/>
      <point x="1193" y="900" type="line"/>
      <point x="1075" y="865" type="line"/>
      <point x="1073" y="500" type="line"/>
    </contour>
  </outline>
</glyph>
<glyph name="Hadescender" format="2">
  <advance width="1356"/>
  <unicode hex="04B2"/>
  <outline>
    <contour>
      <point x="1178" y="128" type="line"/>
      <point x="1416" y="128" type="line"/>
      <point x="1426" y="-338" type="line"/>
      <point x="1274" y="-338" type="line"/>
      <point x="1205" y="0" type="line"/>
      <point x="1178" y="0" type="line"/>
    </contour>
    <contour>
      <point x="-30" y="0" type="line"/>
      <point x="-30" y="120" type="line"/>
      <point x="128" y="155" type="line"/>
      <point x="601" y="870" type="line"/>
      <point x="611" y="870" type="line"/>
      <point x="897" y="1340" type="line"/>
      <point x="750" y="1366" type="line"/>
      <point x="750" y="1500" type="line"/>
      <point x="1296" y="1500" type="line"/>
      <point x="1296" y="1366" type="line"/>
      <point x="1118" y="1335" type="line"/>
      <point x="732" y="735" type="line"/>
      <point x="722" y="735" type="line"/>
      <point x="369" y="150" type="line"/>
      <point x="526" y="120" type="line"/>
      <point x="526" y="0" type="line"/>
    </contour>
    <contour>
      <point x="20" y="1366" type="line"/>
      <point x="20" y="1500" type="line"/>
      <point x="634" y="1500" type="line"/>
      <point x="634" y="1366" type="line"/>
      <point x="461" y="1333" type="line"/>
      <point x="754" y="881" type="line"/>
      <point x="1311" y="79" type="line"/>
      <point x="1312" y="0" type="line"/>
      <point x="792" y="0" type="line"/>
      <point x="792" y="120" type="line"/>
      <point x="945" y="155" type="line"/>
      <point x="587" y="698" type="line"/>
      <point x="158" y="1335" type="line"/>
    </contour>
  </outline>
</glyph>
<glyph name="Chedescender-cy" format="2">
  <advance width="1678"/>
  <unicode hex="04B6"/>
  <outline>
    <contour>
      <point x="47" y="1366" type="line"/>
      <point x="47" y="1500" type="line"/>
      <point x="673" y="1500" type="line"/>
      <point x="673" y="1366" type="line"/>
      <point x="520" y="1332" type="line"/>
      <point x="518" y="1054" type="line" smooth="yes"/>
      <point x="517" y="887"/>
      <point x="668" y="754"/>
      <point x="855" y="754" type="qcurve" smooth="yes"/>
      <point x="960" y="754"/>
      <point x="1161" y="790"/>
      <point x="1265" y="828" type="qcurve"/>
      <point x="1265" y="691" type="line"/>
      <point x="1159" y="649"/>
      <point x="943" y="609"/>
      <point x="813" y="609" type="qcurve" smooth="yes"/>
      <point x="506" y="609"/>
      <point x="232" y="806"/>
      <point x="232" y="1061" type="qcurve" smooth="yes"/>
      <point x="232" y="1332" type="line"/>
    </contour>
    <contour>
      <point x="1409" y="128" type="line"/>
      <point x="1604" y="128" type="line"/>
      <point x="1614" y="-338" type="line"/>
      <point x="1452" y="-338" type="line"/>
      <point x="1383" y="0" type="line"/>
      <point x="927" y="0" type="line"/>
      <point x="927" y="120" type="line"/>
      <point x="1121" y="155" type="line"/>
      <point x="1124" y="754" type="line"/>
      <point x="1121" y="1332" type="line"/>
      <point x="967" y="1366" type="line"/>
      <point x="967" y="1500" type="line"/>
      <point x="1596" y="1500" type="line"/>
      <point x="1596" y="1366" type="line"/>
      <point x="1409" y="1332" type="line"/>
      <point x="1406" y="754" type="line"/>
    </contour>
  </outline>
</glyph>
<glyph name="chedescender-cy" format="2">
  <advance width="1249"/>
  <unicode hex="04B7"/>
  <outline>
    <contour>
      <point x="423" y="711" type="line"/>
      <point x="422" y="608"/>
      <point x="525" y="523"/>
      <point x="640" y="523" type="qcurve" smooth="yes"/>
      <point x="717" y="523"/>
      <point x="848" y="552"/>
      <point x="921" y="582" type="qcurve"/>
      <point x="921" y="459" type="line"/>
      <point x="844" y="428"/>
      <point x="682" y="393"/>
      <point x="566" y="393" type="qcurve" smooth="yes"/>
      <point x="385" y="393"/>
      <point x="171" y="535"/>
      <point x="169" y="711" type="qcurve"/>
      <point x="168" y="865" type="line"/>
      <point x="50" y="900" type="line"/>
      <point x="50" y="1000" type="line"/>
      <point x="534" y="1000" type="line"/>
      <point x="534" y="900" type="line"/>
      <point x="424" y="865" type="line"/>
    </contour>
    <contour>
      <point x="1017" y="0" type="line"/>
      <point x="671" y="0" type="line"/>
      <point x="671" y="100" type="line"/>
      <point x="793" y="135" type="line"/>
      <point x="795" y="500" type="line"/>
      <point x="793" y="865" type="line"/>
      <point x="683" y="900" type="line"/>
      <point x="683" y="1000" type="line"/>
      <point x="1167" y="1000" type="line"/>
      <point x="1167" y="900" type="line"/>
      <point x="1049" y="865" type="line"/>
      <point x="1047" y="500" type="line"/>
      <point x="1049" y="125" type="line"/>
      <point x="1208" y="125" type="line"/>
      <point x="1218" y="-318" type="line"/>
      <point x="1086" y="-318" type="line"/>
    </contour>
  </outline>
</glyph>
<glyph name="Cheverticalstroke-cy" format="2">
  <advance width="1678"/>
  <unicode hex="04B8"/>
  <outline>
    <contour>
      <point x="949" y="1145" type="line"/>
      <point x="949" y="289" type="line"/>
      <point x="729" y="289" type="line"/>
      <point x="729" y="1145" type="line"/>
    </contour>
    <contour>
      <point x="968" y="0" type="line"/>
      <point x="968" y="120" type="line"/>
      <point x="1184" y="155" type="line"/>
      <point x="1187" y="754" type="line"/>
      <point x="1184" y="1332" type="line"/>
      <point x="990" y="1366" type="line"/>
      <point x="990" y="1500" type="line"/>
      <point x="1626" y="1500" type="line"/>
      <point x="1626" y="1366" type="line"/>
      <point x="1472" y="1332" type="line"/>
      <point x="1469" y="754" type="line"/>
      <point x="1472" y="155" type="line"/>
      <point x="1626" y="120" type="line"/>
      <point x="1626" y="0" type="line"/>
    </contour>
    <contour>
      <point x="50" y="1366" type="line"/>
      <point x="50" y="1500" type="line"/>
      <point x="646" y="1500" type="line"/>
      <point x="646" y="1366" type="line"/>
      <point x="493" y="1332" type="line"/>
      <point x="491" y="1074" type="line" smooth="yes"/>
      <point x="489.6191411774" y="895.8692118881"/>
      <point x="659" y="754"/>
      <point x="848" y="754" type="qcurve" smooth="yes"/>
      <point x="991" y="754"/>
      <point x="1208.804143554" y="784.1929758361"/>
      <point x="1328" y="828" type="qcurve"/>
      <point x="1328" y="691" type="line"/>
      <point x="1208.008264627" y="643.2066816735"/>
      <point x="967" y="609"/>
      <point x="806" y="609" type="qcurve" smooth="yes"/>
      <point x="499" y="609"/>
      <point x="205" y="814.7168141593"/>
      <point x="205" y="1081" type="qcurve" smooth="yes"/>
      <point x="205" y="1332" type="line"/>
    </contour>
  </outline>
</glyph>
<glyph name="cheverticalstroke-cy" format="2">
  <advance width="1237"/>
  <unicode hex="04B9"/>
  <outline>
    <contour>
      <point x="681" y="762" type="line"/>
      <point x="681" y="170" type="line"/>
      <point x="525" y="170" type="line"/>
      <point x="525" y="762" type="line"/>
    </contour>
    <contour>
      <point x="411" y="711" type="line"/>
      <point x="410" y="608"/>
      <point x="539" y="523"/>
      <point x="670" y="523" type="qcurve" smooth="yes"/>
      <point x="746" y="523"/>
      <point x="842" y="546"/>
      <point x="931" y="582" type="qcurve"/>
      <point x="931" y="459" type="line"/>
      <point x="841" y="423"/>
      <point x="715" y="393"/>
      <point x="596" y="393" type="qcurve" smooth="yes"/>
      <point x="401" y="393"/>
      <point x="159" y="535"/>
      <point x="157" y="711" type="qcurve"/>
      <point x="156" y="865" type="line"/>
      <point x="50" y="900" type="line"/>
      <point x="50" y="1000" type="line"/>
      <point x="524" y="1000" type="line"/>
      <point x="524" y="900" type="line"/>
      <point x="412" y="865" type="line"/>
    </contour>
    <contour>
      <point x="1057" y="500" type="line"/>
      <point x="1059" y="135" type="line"/>
      <point x="1177" y="100" type="line"/>
      <point x="1177" y="0" type="line"/>
      <point x="681" y="0" type="line"/>
      <point x="681" y="100" type="line"/>
      <point x="803" y="135" type="line"/>
      <point x="805" y="500" type="line"/>
      <point x="803" y="865" type="line"/>
      <point x="693" y="900" type="line"/>
      <point x="693" y="1000" type="line"/>
      <point x="1177" y="1000" type="line"/>
      <point x="1177" y="900" type="line"/>
      <point x="1059" y="865" type="line"/>
    </contour>
  </outline>
</glyph>
<glyph name="Hastroke-cy" format="2">
  <advance width="1346"/>
  <unicode hex="04FE"/>
  <outline>
    <contour>
      <point x="183" y="709" type="line"/>
      <point x="183" y="881" type="line"/>
      <point x="660" y="878" type="line"/>
      <point x="1124" y="881" type="line"/>
      <point x="1124" y="709" type="line"/>
      <point x="653" y="712" type="line"/>
    </contour>
    <contour>
      <point x="-40" y="0" type="line"/>
      <point x="-40" y="120" type="line"/>
      <point x="118" y="155" type="line"/>
      <point x="591" y="870" type="line"/>
      <point x="601" y="870" type="line"/>
      <point x="887" y="1340" type="line"/>
      <point x="740" y="1366" type="line"/>
      <point x="740" y="1500" type="line"/>
      <point x="1286" y="1500" type="line"/>
      <point x="1286" y="1366" type="line"/>
      <point x="1108" y="1335" type="line"/>
      <point x="722" y="735" type="line"/>
      <point x="712" y="735" type="line"/>
      <point x="359" y="150" type="line"/>
      <point x="516" y="120" type="line"/>
      <point x="516" y="0" type="line"/>
    </contour>
    <contour>
      <point x="10" y="1366" type="line"/>
      <point x="10" y="1500" type="line"/>
      <point x="624" y="1500" type="line"/>
      <point x="624" y="1366" type="line"/>
      <point x="451" y="1333" type="line"/>
      <point x="744" y="881" type="line"/>
      <point x="1248" y="155" type="line"/>
      <point x="1386" y="120" type="line"/>
      <point x="1386" y="0" type="line"/>
      <point x="782" y="0" type="line"/>
      <point x="782" y="120" type="line"/>
      <point x="935" y="155" type="line"/>
      <point x="577" y="698" type="line"/>
      <point x="148" y="1335" type="line"/>
    </contour>
  </outline>
</glyph>
<glyph name="hastroke-cy" format="2">
  <advance width="1043"/>
  <unicode hex="04FF"/>
  <outline>
    <contour>
      <point x="181" y="429" type="line"/>
      <point x="181" y="575" type="line"/>
      <point x="521" y="572" type="line"/>
      <point x="856" y="575" type="line"/>
      <point x="856" y="429" type="line"/>
      <point x="499" y="432" type="line"/>
    </contour>
    <contour>
      <point x="16" y="0" type="line"/>
      <point x="16" y="100" type="line"/>
      <point x="164" y="135" type="line"/>
      <point x="467" y="539" type="line"/>
      <point x="480" y="557" type="line"/>
      <point x="697" y="860" type="line"/>
      <point x="610" y="890" type="line"/>
      <point x="610" y="1000" type="line"/>
      <point x="1006" y="1000" type="line"/>
      <point x="1006" y="890" type="line"/>
      <point x="858" y="855" type="line"/>
      <point x="578" y="469" type="line"/>
      <point x="572" y="460" type="line"/>
      <point x="335" y="130" type="line"/>
      <point x="442" y="100" type="line"/>
      <point x="442" y="0" type="line"/>
    </contour>
    <contour>
      <point x="20" y="890" type="line"/>
      <point x="20" y="1000" type="line"/>
      <point x="492" y="1000" type="line"/>
      <point x="492" y="890" type="line"/>
      <point x="409" y="853" type="line"/>
      <point x="606" y="579" type="line"/>
      <point x="938" y="135" type="line"/>
      <point x="1043" y="100" type="line"/>
      <point x="1043" y="0" type="line"/>
      <point x="551" y="0" type="line"/>
      <point x="551" y="100" type="line"/>
      <point x="654" y="137" type="line"/>
      <point x="432" y="424" type="line"/>
      <point x="128" y="855" type="line"/>
    </contour>
  </outline>
</glyph>
<glyph name="Germandbls" format="2">
	<unicode hex="1E9E"/>
	<advance width="1463"/>
	<outline>
		<contour>
			<point x="126" y="736" type="line"/>
			<point x="124" y="1048" type="line" smooth="yes"/>
			<point x="123" y="1291"/>
			<point x="395" y="1524"/>
			<point x="599" y="1524" type="qcurve" smooth="yes"/>
			<point x="710" y="1524"/>
			<point x="917" y="1506"/>
			<point x="1004" y="1500" type="qcurve"/>
			<point x="1006" y="1369" type="line"/>
			<point x="894" y="1369"/>
			<point x="744" y="1262"/>
			<point x="744" y="1164" type="qcurve" smooth="yes"/>
			<point x="744" y="1080"/>
			<point x="860" y="961"/>
			<point x="1050" y="882" type="qcurve" smooth="yes"/>
			<point x="1240" y="803"/>
			<point x="1452" y="582"/>
			<point x="1452" y="417" type="qcurve" smooth="yes"/>
			<point x="1452" y="224"/>
			<point x="1199" y="-22"/>
			<point x="1041" y="-22" type="qcurve" smooth="yes"/>
			<point x="893" y="-22"/>
			<point x="704" y="47"/>
			<point x="651" y="103" type="qcurve"/>
			<point x="610" y="0" type="line"/>
			<point x="498" y="0" type="line"/>
			<point x="498" y="484" type="line"/>
			<point x="622" y="484" type="line"/>
			<point x="638" y="394" type="line" smooth="yes"/>
			<point x="662" y="258"/>
			<point x="836" y="130"/>
			<point x="953" y="130" type="qcurve" smooth="yes"/>
			<point x="1059" y="130"/>
			<point x="1192" y="261"/>
			<point x="1192" y="371" type="qcurve" smooth="yes"/>
			<point x="1192" y="490"/>
			<point x="1056" y="615"/>
			<point x="888" y="679" type="qcurve" smooth="yes"/>
			<point x="712" y="747"/>
			<point x="517" y="935"/>
			<point x="517" y="1095" type="qcurve" smooth="yes"/>
			<point x="517" y="1181"/>
			<point x="598" y="1316"/>
			<point x="658" y="1365" type="qcurve"/>
			<point x="595" y="1365" type="line" smooth="yes"/>
			<point x="526" y="1365"/>
			<point x="416" y="1216"/>
			<point x="415" y="1019" type="qcurve" smooth="yes"/>
			<point x="413" y="760" type="line"/>
			<point x="415" y="-332" type="line"/>
			<point x="623" y="-364" type="line"/>
			<point x="623" y="-487" type="line"/>
			<point x="-54" y="-487" type="line"/>
			<point x="-54" y="-364" type="line"/>
			<point x="124" y="-327" type="line"/>
		</contour>
	</outline>
</glyph>
<glyph name="quotedblleft" format="2">
	<unicode hex="201C"/>
	<advance width="1030"/>
	<outline>
		<contour>
			<point x="488" y="1495" type="line"/>
			<point x="448" y="1462"/>
			<point x="347" y="1352"/>
			<point x="331" y="1289" type="qcurve"/>
			<point x="391" y="1288"/>
			<point x="477" y="1211"/>
			<point x="477" y="1149" type="qcurve" smooth="yes"/>
			<point x="477" y="1089"/>
			<point x="390" y="1010"/>
			<point x="322" y="1010" type="qcurve" smooth="yes"/>
			<point x="259" y="1010"/>
			<point x="155" y="1109"/>
			<point x="155" y="1189" type="qcurve" smooth="yes"/>
			<point x="155" y="1315"/>
			<point x="318" y="1509"/>
			<point x="422" y="1562" type="qcurve"/>
		</contour>
		<contour>
			<point x="917" y="1495" type="line"/>
			<point x="877" y="1462"/>
			<point x="776" y="1352"/>
			<point x="760" y="1289" type="qcurve"/>
			<point x="820" y="1288"/>
			<point x="906" y="1211"/>
			<point x="906" y="1149" type="qcurve" smooth="yes"/>
			<point x="906" y="1089"/>
			<point x="819" y="1010"/>
			<point x="751" y="1010" type="qcurve" smooth="yes"/>
			<point x="688" y="1010"/>
			<point x="584" y="1109"/>
			<point x="584" y="1189" type="qcurve" smooth="yes"/>
			<point x="584" y="1315"/>
			<point x="747" y="1509"/>
			<point x="851" y="1562" type="qcurve"/>
		</contour>
	</outline>
</glyph>
<glyph name="quotedblbase" format="2">
	<unicode hex="201E"/>
	<advance width="1030"/>
	<outline>
		<contour>
			<point x="132" y="-225" type="line"/>
			<point x="172" y="-192"/>
			<point x="273" y="-82"/>
			<point x="289" y="-19" type="qcurve"/>
			<point x="229" y="-18"/>
			<point x="143" y="59"/>
			<point x="143" y="121" type="qcurve" smooth="yes"/>
			<point x="143" y="181"/>
			<point x="230" y="260"/>
			<point x="298" y="260" type="qcurve" smooth="yes"/>
			<point x="361" y="260"/>
			<point x="465" y="161"/>
			<point x="465" y="81" type="qcurve" smooth="yes"/>
			<point x="465" y="-45"/>
			<point x="302" y="-239"/>
			<point x="198" y="-292" type="qcurve"/>
		</contour>
		<contour>
			<point x="562" y="-225" type="line"/>
			<point x="602" y="-192"/>
			<point x="703" y="-82"/>
			<point x="719" y="-19" type="qcurve"/>
			<point x="659" y="-18"/>
			<point x="573" y="59"/>
			<point x="573" y="121" type="qcurve" smooth="yes"/>
			<point x="573" y="181"/>
			<point x="660" y="260"/>
			<point x="728" y="260" type="qcurve" smooth="yes"/>
			<point x="791" y="260"/>
			<point x="895" y="161"/>
			<point x="895" y="81" type="qcurve" smooth="yes"/>
			<point x="895" y="-45"/>
			<point x="732" y="-239"/>
			<point x="628" y="-292" type="qcurve"/>
		</contour>
	</outline>
</glyph>
<glyph name="daggerdbl" format="2">
	<unicode hex="2021"/>
	<advance width="996"/>
	<outline>
		<contour>
			<point x="481" y="-540" type="line"/>
			<point x="359" y="-58" type="line"/>
			<point x="407" y="490" type="line"/>
			<point x="404" y="890" type="line"/>
			<point x="344" y="1438" type="line"/>
			<point x="422" y="1503" type="line"/>
			<point x="546" y="1506" type="line"/>
			<point x="618" y="1438" type="line"/>
			<point x="571" y="890" type="line"/>
			<point x="574" y="490" type="line"/>
			<point x="618" y="-58" type="line"/>
			<point x="512" y="-540" type="line"/>
		</contour>
		<contour>
			<point x="84" y="811" type="line"/>
			<point x="84" y="1041" type="line"/>
			<point x="487" y="1029" type="line"/>
			<point x="908" y="1041" type="line"/>
			<point x="908" y="811" type="line"/>
			<point x="487" y="817" type="line"/>
		</contour>
		<contour>
			<point x="88" y="382" type="line"/>
			<point x="88" y="612" type="line"/>
			<point x="491" y="600" type="line"/>
			<point x="912" y="612" type="line"/>
			<point x="912" y="382" type="line"/>
			<point x="491" y="388" type="line"/>
		</contour>
	</outline>
</glyph>
<glyph name="bullet" format="2">
	<unicode hex="2022"/>
	<advance width="784"/>
	<outline>
		<contour>
			<point x="62" y="773" type="qcurve" smooth="yes"/>
			<point x="62" y="906"/>
			<point x="248" y="1102"/>
			<point x="392" y="1102" type="qcurve" smooth="yes"/>
			<point x="536" y="1102"/>
			<point x="722" y="906"/>
			<point x="722" y="773" type="qcurve" smooth="yes"/>
			<point x="722" y="642"/>
			<point x="536" y="446"/>
			<point x="392" y="446" type="qcurve" smooth="yes"/>
			<point x="248" y="446"/>
			<point x="62" y="642"/>
		</contour>
	</outline>
</glyph>
<glyph name="second" format="2">
  <advance width="1034"/>
  <unicode hex="2033"/>
  <outline>
    <contour>
      <point x="118" y="1005" type="line"/>
      <point x="335" y="1466" type="line" smooth="yes"/>
      <point x="361" y="1522"/>
      <point x="471" y="1569"/>
      <point x="538" y="1530" type="qcurve" smooth="yes"/>
      <point x="605.0" y="1491.0"/>
      <point x="602" y="1370"/>
      <point x="567" y="1334" type="qcurve" smooth="yes"/>
      <point x="204" y="964" type="line"/>
    </contour>
    <contour>
      <point x="498" y="1005" type="line"/>
      <point x="715" y="1466" type="line" smooth="yes"/>
      <point x="741" y="1522"/>
      <point x="851" y="1569"/>
      <point x="918" y="1530" type="qcurve" smooth="yes"/>
      <point x="985.0" y="1491.0"/>
      <point x="982" y="1370"/>
      <point x="947" y="1334" type="qcurve" smooth="yes"/>
      <point x="584" y="964" type="line"/>
    </contour>
  </outline>
</glyph>
<glyph name="guilsinglleft" format="2">
	<unicode hex="2039"/>
	<advance width="847"/>
	<outline>
		<contour>
			<point x="25" y="644" type="line"/>
			<point x="25" y="644"/>
			<point x="610" y="998"/>
			<point x="678" y="1044" type="qcurve" smooth="yes"/>
			<point x="747" y="1090"/>
			<point x="828" y="918"/>
			<point x="774" y="879" type="qcurve" smooth="yes"/>
			<point x="657" y="796"/>
			<point x="379" y="612"/>
			<point x="379" y="612" type="qcurve"/>
			<point x="379" y="612"/>
			<point x="701" y="384"/>
			<point x="778" y="329" type="qcurve" smooth="yes"/>
			<point x="831" y="291"/>
			<point x="770" y="116"/>
			<point x="697" y="154" type="qcurve" smooth="yes"/>
			<point x="631" y="188"/>
			<point x="100" y="516"/>
			<point x="25" y="564" type="qcurve"/>
		</contour>
	</outline>
</glyph>
<glyph name="guilsinglright" format="2">
	<unicode hex="203A"/>
	<advance width="847"/>
	<outline>
		<contour>
			<point x="822" y="562" type="line"/>
			<point x="747" y="517"/>
			<point x="242" y="199"/>
			<point x="169" y="162" type="qcurve" smooth="yes"/>
			<point x="92" y="123"/>
			<point x="18" y="293"/>
			<point x="73" y="327" type="qcurve" smooth="yes"/>
			<point x="186" y="397"/>
			<point x="422" y="557"/>
			<point x="468" y="594" type="qcurve"/>
			<point x="429" y="620"/>
			<point x="145" y="823"/>
			<point x="69" y="877" type="qcurve" smooth="yes"/>
			<point x="15" y="916"/>
			<point x="77" y="1090"/>
			<point x="150" y="1052" type="qcurve" smooth="yes"/>
			<point x="216" y="1018"/>
			<point x="747" y="690"/>
			<point x="822" y="642" type="qcurve"/>
		</contour>
	</outline>
</glyph>
<glyph name="franc" format="2">
  <advance width="1060"/>
  <unicode hex="20A3"/>
  <outline>
    <contour>
      <point x="82" y="0" type="line"/>
      <point x="82" y="115" type="line"/>
      <point x="255" y="152" type="line"/>
      <point x="257" y="760" type="line"/>
      <point x="255" y="1337" type="line"/>
      <point x="82" y="1371" type="line"/>
      <point x="82" y="1500" type="line"/>
      <point x="986" y="1500" type="line"/>
      <point x="1046" y="1150" type="line"/>
      <point x="886" y="1150" type="line"/>
      <point x="796" y="1362" type="line"/>
      <point x="540" y="1362" type="line"/>
      <point x="510" y="1342" type="line"/>
      <point x="508" y="752" type="line"/>
      <point x="510" y="147" type="line"/>
      <point x="718" y="115" type="line"/>
      <point x="718" y="0" type="line"/>
    </contour>
    <contour>
      <point x="380" y="711" type="line"/>
      <point x="380" y="853" type="line"/>
      <point x="745" y="860" type="line"/>
      <point x="780" y="992" type="line"/>
      <point x="940" y="992" type="line"/>
      <point x="940" y="576" type="line"/>
      <point x="780" y="576" type="line"/>
      <point x="745" y="704" type="line"/>
    </contour>
    <contour>
      <point x="56" y="331" type="line"/>
      <point x="26" y="487" type="line"/>
      <point x="790" y="487" type="line"/>
      <point x="760" y="331" type="line"/>
    </contour>
  </outline>
</glyph>
<glyph name="lira" format="2">
  <advance width="1072"/>
  <unicode hex="20A4"/>
  <outline>
    <contour>
      <point x="656.0" y="497" type="qcurve" smooth="yes"/>
      <point x="656" y="394"/>
      <point x="532" y="201"/>
      <point x="436" y="148" type="qcurve"/>
      <point x="444" y="175" type="line"/>
      <point x="784" y="168" type="line"/>
      <point x="878" y="372" type="line"/>
      <point x="1050" y="372" type="line"/>
      <point x="951" y="0" type="line"/>
      <point x="60" y="0" type="line"/>
      <point x="0" y="100" type="line"/>
      <point x="71" y="193" type="line"/>
      <point x="251" y="182"/>
      <point x="410" y="366"/>
      <point x="410.0" y="459" type="qcurve" smooth="yes"/>
      <point x="410" y="544"/>
      <point x="336" y="676"/>
      <point x="286" y="747" type="qcurve" smooth="yes"/>
      <point x="219" y="842"/>
      <point x="100" y="1039"/>
      <point x="100" y="1161" type="qcurve" smooth="yes"/>
      <point x="100" y="1289"/>
      <point x="319" y="1501"/>
      <point x="529" y="1501" type="qcurve" smooth="yes"/>
      <point x="692" y="1501"/>
      <point x="907" y="1401"/>
      <point x="979" y="1308" type="qcurve"/>
      <point x="868" y="1165" type="line"/>
      <point x="819" y="1221"/>
      <point x="657" y="1341"/>
      <point x="557" y="1341.0" type="qcurve" smooth="yes"/>
      <point x="464" y="1341"/>
      <point x="359" y="1256"/>
      <point x="359" y="1173" type="qcurve" smooth="yes"/>
      <point x="359" y="1097"/>
      <point x="464" y="927"/>
      <point x="528" y="836" type="qcurve" smooth="yes"/>
      <point x="583" y="757"/>
      <point x="656" y="589"/>
    </contour>
    <contour>
      <point x="121" y="491" type="line"/>
      <point x="87" y="652" type="line"/>
      <point x="854" y="652" type="line"/>
      <point x="821" y="491" type="line"/>
    </contour>
    <contour>
      <point x="61" y="766" type="line"/>
      <point x="17" y="937" type="line"/>
      <point x="921" y="937" type="line"/>
      <point x="881" y="766" type="line"/>
    </contour>
  </outline>
</glyph>
<glyph name="naira" format="2">
  <advance width="1529"/>
  <unicode hex="20A6"/>
  <outline>
    <contour>
      <point x="82" y="0" type="line"/>
      <point x="82" y="115" type="line"/>
      <point x="270" y="150" type="line"/>
      <point x="272" y="754" type="line"/>
      <point x="270" y="1337" type="line"/>
      <point x="82" y="1371" type="line"/>
      <point x="82" y="1500" type="line"/>
      <point x="558" y="1500" type="line"/>
      <point x="893" y="873" type="line"/>
      <point x="1147" y="422" type="line"/>
      <point x="1147" y="754" type="line"/>
      <point x="1140" y="1337" type="line"/>
      <point x="922" y="1371" type="line"/>
      <point x="922" y="1500" type="line"/>
      <point x="1478" y="1500" type="line"/>
      <point x="1478" y="1371" type="line"/>
      <point x="1290" y="1337" type="line"/>
      <point x="1288" y="754" type="line"/>
      <point x="1284" y="0" type="line"/>
      <point x="1074" y="0" type="line"/>
      <point x="651" y="789" type="line"/>
      <point x="420" y="1219" type="line"/>
      <point x="413" y="754" type="line"/>
      <point x="420" y="150" type="line"/>
      <point x="628" y="115" type="line"/>
      <point x="628" y="0" type="line"/>
    </contour>
    <contour>
      <point x="1494" y="519" type="line"/>
      <point x="1202" y="519" type="line"/>
      <point x="1202" y="543" type="line"/>
      <point x="940" y="543" type="line"/>
      <point x="866" y="674" type="line"/>
      <point x="1202" y="674" type="line"/>
      <point x="1202" y="707" type="line"/>
      <point x="1444" y="707" type="line"/>
    </contour>
    <contour>
      <point x="74" y="519" type="line"/>
      <point x="35" y="707" type="line"/>
      <point x="356" y="707" type="line"/>
      <point x="356" y="675" type="line"/>
      <point x="866" y="675" type="line"/>
      <point x="944" y="537" type="line"/>
      <point x="356" y="537" type="line"/>
      <point x="356" y="519" type="line"/>
    </contour>
    <contour>
      <point x="1494" y="871" type="line"/>
      <point x="1202" y="871" type="line"/>
      <point x="1202" y="890" type="line"/>
      <point x="768" y="890" type="line"/>
      <point x="689" y="1028" type="line"/>
      <point x="1202" y="1028" type="line"/>
      <point x="1202" y="1059" type="line"/>
      <point x="1444" y="1059" type="line"/>
    </contour>
    <contour>
      <point x="74" y="871" type="line"/>
      <point x="35" y="1059" type="line"/>
      <point x="356" y="1059" type="line"/>
      <point x="356" y="1022" type="line"/>
      <point x="692" y="1022" type="line"/>
      <point x="768" y="891" type="line"/>
      <point x="356" y="891" type="line"/>
      <point x="356" y="871" type="line"/>
    </contour>
  </outline>
</glyph>
<glyph name="peseta" format="2">
  <advance width="2286"/>
  <unicode hex="20A7"/>
  <outline>
    <contour>
      <point x="82" y="0" type="line"/>
      <point x="82" y="115" type="line"/>
      <point x="270" y="152" type="line"/>
      <point x="272" y="754" type="line"/>
      <point x="270" y="1337" type="line"/>
      <point x="82" y="1371" type="line"/>
      <point x="82" y="1500" type="line"/>
      <point x="589" y="1500" type="line" smooth="yes"/>
      <point x="807.0" y="1500.0"/>
      <point x="1064" y="1277"/>
      <point x="1064.0" y="1090" type="qcurve" smooth="yes"/>
      <point x="1064" y="908"/>
      <point x="804" y="650"/>
      <point x="595" y="650" type="qcurve" smooth="yes"/>
      <point x="552" y="650"/>
      <point x="418" y="667"/>
      <point x="388" y="677" type="qcurve"/>
      <point x="397" y="808" type="line"/>
      <point x="429" y="797"/>
      <point x="520" y="787"/>
      <point x="555" y="787" type="qcurve" smooth="yes"/>
      <point x="657" y="787"/>
      <point x="786" y="946"/>
      <point x="786" y="1099" type="qcurve" smooth="yes"/>
      <point x="786" y="1240"/>
      <point x="658.0" y="1367.0"/>
      <point x="565" y="1367" type="qcurve" smooth="yes"/>
      <point x="549" y="1367" type="line"/>
      <point x="520" y="1347" type="line"/>
      <point x="518" y="835" type="line"/>
      <point x="520" y="147" type="line"/>
      <point x="728" y="115" type="line"/>
      <point x="728" y="0" type="line"/>
    </contour>
    <contour>
      <point x="986" y="792" type="line"/>
      <point x="986" y="906" type="line"/>
      <point x="1120" y="928"/>
      <point x="1198" y="1135"/>
      <point x="1204" y="1236" type="qcurve"/>
      <point x="1311" y="1236" type="line"/>
      <point x="1366" y="1188" type="line"/>
      <point x="1357" y="924" type="line"/>
      <point x="1540" y="924" type="line"/>
      <point x="1540" y="782" type="line"/>
      <point x="1345" y="782" type="line"/>
      <point x="1347" y="613" type="line"/>
      <point x="1356" y="256" type="line" smooth="yes"/>
      <point x="1357" y="201"/>
      <point x="1395" y="149.0"/>
      <point x="1455" y="149" type="qcurve" smooth="yes"/>
      <point x="1517" y="149" type="line"/>
      <point x="1517" y="29" type="line"/>
      <point x="1284" y="-8" type="line"/>
      <point x="1167" y="-9"/>
      <point x="1102" y="72"/>
      <point x="1102" y="162" type="qcurve"/>
      <point x="1109" y="526" type="line"/>
      <point x="1109" y="758" type="line"/>
    </contour>
    <contour>
      <point x="1501" y="19" type="line"/>
      <point x="1499" y="345" type="line"/>
      <point x="1660" y="345" type="line"/>
      <point x="1671" y="275" type="line" smooth="yes"/>
      <point x="1684" y="190"/>
      <point x="1790" y="116"/>
      <point x="1882" y="116" type="qcurve" smooth="yes"/>
      <point x="1977" y="116"/>
      <point x="2045" y="192"/>
      <point x="2045" y="255" type="qcurve" smooth="yes"/>
      <point x="2045" y="330"/>
      <point x="1955" y="388"/>
      <point x="1817" y="428" type="qcurve" smooth="yes"/>
      <point x="1656" y="475"/>
      <point x="1514" y="620"/>
      <point x="1514.0" y="736" type="qcurve" smooth="yes"/>
      <point x="1514" y="854"/>
      <point x="1684" y="1014"/>
      <point x="1849" y="1014" type="qcurve" smooth="yes"/>
      <point x="1922" y="1014"/>
      <point x="2015" y="970"/>
      <point x="2036" y="946" type="qcurve"/>
      <point x="2054" y="992" type="line"/>
      <point x="2170" y="992" type="line"/>
      <point x="2170" y="692" type="line"/>
      <point x="2040" y="692" type="line"/>
      <point x="2020" y="783" type="line" smooth="yes"/>
      <point x="2011" y="826"/>
      <point x="1924" y="882"/>
      <point x="1867" y="882.0" type="qcurve" smooth="yes"/>
      <point x="1802.0" y="882.0"/>
      <point x="1728" y="828"/>
      <point x="1728" y="776" type="qcurve" smooth="yes"/>
      <point x="1728" y="727"/>
      <point x="1797" y="686"/>
      <point x="1930" y="645" type="qcurve" smooth="yes"/>
      <point x="2101" y="592"/>
      <point x="2261" y="422"/>
      <point x="2261" y="282" type="qcurve" smooth="yes"/>
      <point x="2261" y="157"/>
      <point x="2057" y="-23"/>
      <point x="1904" y="-23" type="qcurve" smooth="yes"/>
      <point x="1813" y="-23"/>
      <point x="1683" y="21"/>
      <point x="1632" y="71" type="qcurve"/>
      <point x="1593" y="9" type="line"/>
    </contour>
  </outline>
</glyph>
